<?xml version="1.0" encoding="UTF-8" standalone="no"?>
<!DOCTYPE svg PUBLIC "-//W3C//DTD SVG 1.1//EN"
 "http://www.w3.org/Graphics/SVG/1.1/DTD/svg11.dtd">
<!-- Generated by graphviz version 2.43.0 (0)
 -->
<!-- Title: Server.DbContextMediwatch Pages: 1 -->
<svg width="163pt" height="248pt"
 viewBox="0.00 0.00 163.00 248.00" xmlns="http://www.w3.org/2000/svg" xmlns:xlink="http://www.w3.org/1999/xlink">
<g id="graph0" class="graph" transform="scale(1 1) rotate(0) translate(4 244)">
<title>Server.DbContextMediwatch</title>
<polygon fill="white" stroke="transparent" points="-4,4 -4,-244 159,-244 159,4 -4,4"/>
<!-- Node1 -->
<g id="node1" class="node">
<title>Node1</title>
<g id="a_node1"><a xlink:title=" ">
<polygon fill="#bfbfbf" stroke="black" points="0,-0.5 0,-145.5 155,-145.5 155,-0.5 0,-0.5"/>
<text text-anchor="middle" x="77.5" y="-133.5" font-family="Helvetica,sans-Serif" font-size="10.00">Server.DbContextMediwatch</text>
<polyline fill="none" stroke="black" points="0,-126.5 155,-126.5 "/>
<text text-anchor="start" x="8" y="-114.5" font-family="Helvetica,sans-Serif" font-size="10.00">+ compagnies</text>
<text text-anchor="start" x="8" y="-103.5" font-family="Helvetica,sans-Serif" font-size="10.00">+ formations</text>
<text text-anchor="start" x="8" y="-92.5" font-family="Helvetica,sans-Serif" font-size="10.00">+ applicant_sessions</text>
<text text-anchor="start" x="8" y="-81.5" font-family="Helvetica,sans-Serif" font-size="10.00">+ tags</text>
<text text-anchor="start" x="8" y="-70.5" font-family="Helvetica,sans-Serif" font-size="10.00">+ orderInfos</text>
<text text-anchor="start" x="8" y="-59.5" font-family="Helvetica,sans-Serif" font-size="10.00">+ articleModels</text>
<text text-anchor="start" x="8" y="-48.5" font-family="Helvetica,sans-Serif" font-size="10.00">+ joinFormationTags</text>
<polyline fill="none" stroke="black" points="0,-41.5 155,-41.5 "/>
<text text-anchor="start" x="8" y="-29.5" font-family="Helvetica,sans-Serif" font-size="10.00">+ DbContextMediwatch()</text>
<text text-anchor="start" x="8" y="-18.5" font-family="Helvetica,sans-Serif" font-size="10.00"># DbContextMediwatch()</text>
<text text-anchor="start" x="8" y="-7.5" font-family="Helvetica,sans-Serif" font-size="10.00"># OnConfiguring()</text>
</a>
</g>
</g>
<!-- Node2 -->
<g id="node2" class="node">
<title>Node2</title>
<g id="a_node2"><a xlink:title=" ">
<polygon fill="white" stroke="#bfbfbf" points="43.5,-182.5 43.5,-239.5 111.5,-239.5 111.5,-182.5 43.5,-182.5"/>
<text text-anchor="middle" x="77.5" y="-227.5" font-family="Helvetica,sans-Serif" font-size="10.00">DbContext</text>
<polyline fill="none" stroke="#bfbfbf" points="43.5,-220.5 111.5,-220.5 "/>
<text text-anchor="middle" x="77.5" y="-208.5" font-family="Helvetica,sans-Serif" font-size="10.00"> </text>
<polyline fill="none" stroke="#bfbfbf" points="43.5,-201.5 111.5,-201.5 "/>
<text text-anchor="middle" x="77.5" y="-189.5" font-family="Helvetica,sans-Serif" font-size="10.00"> </text>
</a>
</g>
</g>
<!-- Node2&#45;&gt;Node1 -->
<g id="edge1" class="edge">
<title>Node2&#45;&gt;Node1</title>
<path fill="none" stroke="midnightblue" d="M77.5,-172.36C77.5,-164 77.5,-154.87 77.5,-145.66"/>
<polygon fill="none" stroke="midnightblue" points="74,-172.48 77.5,-182.48 81,-172.48 74,-172.48"/>
</g>
</g>
</svg>
