<?xml version="1.0" encoding="UTF-8" standalone="no"?>
<!DOCTYPE svg PUBLIC "-//W3C//DTD SVG 1.1//EN"
 "http://www.w3.org/Graphics/SVG/1.1/DTD/svg11.dtd">
<!-- Generated by graphviz version 2.40.1 (20161225.0304)
 -->
<!-- Title: Mediwatch.Server.Migrations.IdentityDataContextModelSnapshot Pages: 1 -->
<svg width="180pt" height="171pt"
 viewBox="0.00 0.00 180.00 171.00" xmlns="http://www.w3.org/2000/svg" xmlns:xlink="http://www.w3.org/1999/xlink">
<g id="graph0" class="graph" transform="scale(1 1) rotate(0) translate(4 167)">
<title>Mediwatch.Server.Migrations.IdentityDataContextModelSnapshot</title>
<polygon fill="#ffffff" stroke="transparent" points="-4,4 -4,-167 176,-167 176,4 -4,4"/>
<!-- Node0 -->
<g id="node1" class="node">
<title>Node0</title>
<polygon fill="#bfbfbf" stroke="#000000" points="0,-.5 0,-68.5 172,-68.5 172,-.5 0,-.5"/>
<text text-anchor="start" x="8" y="-56.5" font-family="Helvetica,sans-Serif" font-size="10.00" fill="#000000">Mediwatch.Server.Migrations.</text>
<text text-anchor="middle" x="86" y="-45.5" font-family="Helvetica,sans-Serif" font-size="10.00" fill="#000000">IdentityDataContextModelSnapshot</text>
<polyline fill="none" stroke="#000000" points="0,-38.5 172,-38.5 "/>
<text text-anchor="middle" x="86" y="-26.5" font-family="Helvetica,sans-Serif" font-size="10.00" fill="#000000"> </text>
<polyline fill="none" stroke="#000000" points="0,-19.5 172,-19.5 "/>
<text text-anchor="start" x="8" y="-7.5" font-family="Helvetica,sans-Serif" font-size="10.00" fill="#000000"># BuildModel()</text>
</g>
<!-- Node1 -->
<g id="node2" class="node">
<title>Node1</title>
<polygon fill="#ffffff" stroke="#bfbfbf" points="44,-105.5 44,-162.5 128,-162.5 128,-105.5 44,-105.5"/>
<text text-anchor="middle" x="86" y="-150.5" font-family="Helvetica,sans-Serif" font-size="10.00" fill="#000000">ModelSnapshot</text>
<polyline fill="none" stroke="#bfbfbf" points="44,-143.5 128,-143.5 "/>
<text text-anchor="middle" x="86" y="-131.5" font-family="Helvetica,sans-Serif" font-size="10.00" fill="#000000"> </text>
<polyline fill="none" stroke="#bfbfbf" points="44,-124.5 128,-124.5 "/>
<text text-anchor="middle" x="86" y="-112.5" font-family="Helvetica,sans-Serif" font-size="10.00" fill="#000000"> </text>
</g>
<!-- Node1&#45;&gt;Node0 -->
<g id="edge1" class="edge">
<title>Node1&#45;&gt;Node0</title>
<path fill="none" stroke="#191970" d="M86,-95.4268C86,-86.6025 86,-77.2834 86,-68.6596"/>
<polygon fill="none" stroke="#191970" points="82.5001,-95.4873 86,-105.4873 89.5001,-95.4873 82.5001,-95.4873"/>
</g>
</g>
</svg>
