<?xml version="1.0" encoding="UTF-8" standalone="no"?>
<!DOCTYPE svg PUBLIC "-//W3C//DTD SVG 1.1//EN"
 "http://www.w3.org/Graphics/SVG/1.1/DTD/svg11.dtd">
<!-- Generated by graphviz version 2.43.0 (0)
 -->
<!-- Title: Mediwatch.Server.Migrations.DbContextMediwatchMigrations.paypalMigration Pages: 1 -->
<svg width="217pt" height="204pt"
 viewBox="0.00 0.00 217.00 204.00" xmlns="http://www.w3.org/2000/svg" xmlns:xlink="http://www.w3.org/1999/xlink">
<g id="graph0" class="graph" transform="scale(1 1) rotate(0) translate(4 200)">
<title>Mediwatch.Server.Migrations.DbContextMediwatchMigrations.paypalMigration</title>
<polygon fill="white" stroke="transparent" points="-4,4 -4,-200 213,-200 213,4 -4,4"/>
<!-- Node1 -->
<g id="node1" class="node">
<title>Node1</title>
<g id="a_node1"><a xlink:title=" ">
<polygon fill="#bfbfbf" stroke="black" points="0,-0.5 0,-101.5 209,-101.5 209,-0.5 0,-0.5"/>
<text text-anchor="start" x="8" y="-89.5" font-family="Helvetica,sans-Serif" font-size="10.00">Mediwatch.Server.Migrations.</text>
<text text-anchor="start" x="8" y="-78.5" font-family="Helvetica,sans-Serif" font-size="10.00">DbContextMediwatchMigrations.paypal</text>
<text text-anchor="middle" x="104.5" y="-67.5" font-family="Helvetica,sans-Serif" font-size="10.00">Migration</text>
<polyline fill="none" stroke="black" points="0,-60.5 209,-60.5 "/>
<text text-anchor="middle" x="104.5" y="-48.5" font-family="Helvetica,sans-Serif" font-size="10.00"> </text>
<polyline fill="none" stroke="black" points="0,-41.5 209,-41.5 "/>
<text text-anchor="start" x="8" y="-29.5" font-family="Helvetica,sans-Serif" font-size="10.00"># Up()</text>
<text text-anchor="start" x="8" y="-18.5" font-family="Helvetica,sans-Serif" font-size="10.00"># Down()</text>
<text text-anchor="start" x="8" y="-7.5" font-family="Helvetica,sans-Serif" font-size="10.00"># BuildTargetModel()</text>
</a>
</g>
</g>
<!-- Node2 -->
<g id="node2" class="node">
<title>Node2</title>
<g id="a_node2"><a xlink:title=" ">
<polygon fill="white" stroke="#bfbfbf" points="73,-138.5 73,-195.5 136,-195.5 136,-138.5 73,-138.5"/>
<text text-anchor="middle" x="104.5" y="-183.5" font-family="Helvetica,sans-Serif" font-size="10.00">Migration</text>
<polyline fill="none" stroke="#bfbfbf" points="73,-176.5 136,-176.5 "/>
<text text-anchor="middle" x="104.5" y="-164.5" font-family="Helvetica,sans-Serif" font-size="10.00"> </text>
<polyline fill="none" stroke="#bfbfbf" points="73,-157.5 136,-157.5 "/>
<text text-anchor="middle" x="104.5" y="-145.5" font-family="Helvetica,sans-Serif" font-size="10.00"> </text>
</a>
</g>
</g>
<!-- Node2&#45;&gt;Node1 -->
<g id="edge1" class="edge">
<title>Node2&#45;&gt;Node1</title>
<path fill="none" stroke="midnightblue" d="M104.5,-128.35C104.5,-119.8 104.5,-110.58 104.5,-101.61"/>
<polygon fill="none" stroke="midnightblue" points="101,-128.4 104.5,-138.4 108,-128.4 101,-128.4"/>
</g>
</g>
</svg>
