<?xml version="1.0" encoding="UTF-8" standalone="no"?>
<!DOCTYPE svg PUBLIC "-//W3C//DTD SVG 1.1//EN"
 "http://www.w3.org/Graphics/SVG/1.1/DTD/svg11.dtd">
<!-- Generated by graphviz version 2.43.0 (0)
 -->
<!-- Title: Mediwatch.Server.Areas.Identity.Data.UserCustom Pages: 1 -->
<svg width="184pt" height="204pt"
 viewBox="0.00 0.00 184.00 204.00" xmlns="http://www.w3.org/2000/svg" xmlns:xlink="http://www.w3.org/1999/xlink">
<g id="graph0" class="graph" transform="scale(1 1) rotate(0) translate(4 200)">
<title>Mediwatch.Server.Areas.Identity.Data.UserCustom</title>
<polygon fill="white" stroke="transparent" points="-4,4 -4,-200 180,-200 180,4 -4,4"/>
<!-- Node1 -->
<g id="node1" class="node">
<title>Node1</title>
<g id="a_node1"><a xlink:title=" ">
<polygon fill="#bfbfbf" stroke="black" points="0,-0.5 0,-101.5 176,-101.5 176,-0.5 0,-0.5"/>
<text text-anchor="start" x="8" y="-89.5" font-family="Helvetica,sans-Serif" font-size="10.00">Mediwatch.Server.Areas.Identity.</text>
<text text-anchor="middle" x="88" y="-78.5" font-family="Helvetica,sans-Serif" font-size="10.00">Data.UserCustom</text>
<polyline fill="none" stroke="black" points="0,-71.5 176,-71.5 "/>
<text text-anchor="start" x="8" y="-59.5" font-family="Helvetica,sans-Serif" font-size="10.00">+ Address</text>
<text text-anchor="start" x="8" y="-48.5" font-family="Helvetica,sans-Serif" font-size="10.00">+ Job</text>
<text text-anchor="start" x="8" y="-37.5" font-family="Helvetica,sans-Serif" font-size="10.00">+ Message</text>
<text text-anchor="start" x="8" y="-26.5" font-family="Helvetica,sans-Serif" font-size="10.00">+ CountryNumber</text>
<polyline fill="none" stroke="black" points="0,-19.5 176,-19.5 "/>
<text text-anchor="middle" x="88" y="-7.5" font-family="Helvetica,sans-Serif" font-size="10.00"> </text>
</a>
</g>
</g>
<!-- Node2 -->
<g id="node2" class="node">
<title>Node2</title>
<g id="a_node2"><a xlink:title=" ">
<polygon fill="white" stroke="#bfbfbf" points="27,-138.5 27,-195.5 149,-195.5 149,-138.5 27,-138.5"/>
<text text-anchor="middle" x="88" y="-183.5" font-family="Helvetica,sans-Serif" font-size="10.00">IdentityUser&lt; Guid &gt;</text>
<polyline fill="none" stroke="#bfbfbf" points="27,-176.5 149,-176.5 "/>
<text text-anchor="middle" x="88" y="-164.5" font-family="Helvetica,sans-Serif" font-size="10.00"> </text>
<polyline fill="none" stroke="#bfbfbf" points="27,-157.5 149,-157.5 "/>
<text text-anchor="middle" x="88" y="-145.5" font-family="Helvetica,sans-Serif" font-size="10.00"> </text>
</a>
</g>
</g>
<!-- Node2&#45;&gt;Node1 -->
<g id="edge1" class="edge">
<title>Node2&#45;&gt;Node1</title>
<path fill="none" stroke="midnightblue" d="M88,-128.35C88,-119.8 88,-110.58 88,-101.61"/>
<polygon fill="none" stroke="midnightblue" points="84.5,-128.4 88,-138.4 91.5,-128.4 84.5,-128.4"/>
</g>
</g>
</svg>
