<?xml version="1.0" encoding="UTF-8" standalone="no"?>
<!DOCTYPE svg PUBLIC "-//W3C//DTD SVG 1.1//EN"
 "http://www.w3.org/Graphics/SVG/1.1/DTD/svg11.dtd">
<!-- Generated by graphviz version 2.40.1 (20161225.0304)
 -->
<!-- Title: Mediwatch.Server.Migrations.innitialCreate Pages: 1 -->
<svg width="182pt" height="193pt"
 viewBox="0.00 0.00 182.00 193.00" xmlns="http://www.w3.org/2000/svg" xmlns:xlink="http://www.w3.org/1999/xlink">
<g id="graph0" class="graph" transform="scale(1 1) rotate(0) translate(4 189)">
<title>Mediwatch.Server.Migrations.innitialCreate</title>
<polygon fill="#ffffff" stroke="transparent" points="-4,4 -4,-189 178,-189 178,4 -4,4"/>
<!-- Node0 -->
<g id="node1" class="node">
<title>Node0</title>
<polygon fill="#bfbfbf" stroke="#000000" points="0,-.5 0,-90.5 174,-90.5 174,-.5 0,-.5"/>
<text text-anchor="start" x="8" y="-78.5" font-family="Helvetica,sans-Serif" font-size="10.00" fill="#000000">Mediwatch.Server.Migrations.innitial</text>
<text text-anchor="middle" x="87" y="-67.5" font-family="Helvetica,sans-Serif" font-size="10.00" fill="#000000">Create</text>
<polyline fill="none" stroke="#000000" points="0,-60.5 174,-60.5 "/>
<text text-anchor="middle" x="87" y="-48.5" font-family="Helvetica,sans-Serif" font-size="10.00" fill="#000000"> </text>
<polyline fill="none" stroke="#000000" points="0,-41.5 174,-41.5 "/>
<text text-anchor="start" x="8" y="-29.5" font-family="Helvetica,sans-Serif" font-size="10.00" fill="#000000"># Up()</text>
<text text-anchor="start" x="8" y="-18.5" font-family="Helvetica,sans-Serif" font-size="10.00" fill="#000000"># Down()</text>
<text text-anchor="start" x="8" y="-7.5" font-family="Helvetica,sans-Serif" font-size="10.00" fill="#000000"># BuildTargetModel()</text>
</g>
<!-- Node1 -->
<g id="node2" class="node">
<title>Node1</title>
<polygon fill="#ffffff" stroke="#bfbfbf" points="59,-127.5 59,-184.5 115,-184.5 115,-127.5 59,-127.5"/>
<text text-anchor="middle" x="87" y="-172.5" font-family="Helvetica,sans-Serif" font-size="10.00" fill="#000000">Migration</text>
<polyline fill="none" stroke="#bfbfbf" points="59,-165.5 115,-165.5 "/>
<text text-anchor="middle" x="87" y="-153.5" font-family="Helvetica,sans-Serif" font-size="10.00" fill="#000000"> </text>
<polyline fill="none" stroke="#bfbfbf" points="59,-146.5 115,-146.5 "/>
<text text-anchor="middle" x="87" y="-134.5" font-family="Helvetica,sans-Serif" font-size="10.00" fill="#000000"> </text>
</g>
<!-- Node1&#45;&gt;Node0 -->
<g id="edge1" class="edge">
<title>Node1&#45;&gt;Node0</title>
<path fill="none" stroke="#191970" d="M87,-117.1977C87,-108.667 87,-99.5607 87,-90.7995"/>
<polygon fill="none" stroke="#191970" points="83.5001,-117.2559 87,-127.2559 90.5001,-117.2559 83.5001,-117.2559"/>
</g>
</g>
</svg>
