<?xml version="1.0" encoding="UTF-8" standalone="no"?>
<!DOCTYPE svg PUBLIC "-//W3C//DTD SVG 1.1//EN"
 "http://www.w3.org/Graphics/SVG/1.1/DTD/svg11.dtd">
<!-- Generated by graphviz version 2.40.1 (20161225.0304)
 -->
<!-- Title: Mediwatch.Server.Migrations.CreateIdentitySchema Pages: 1 -->
<svg width="154pt" height="193pt"
 viewBox="0.00 0.00 154.00 193.00" xmlns="http://www.w3.org/2000/svg" xmlns:xlink="http://www.w3.org/1999/xlink">
<g id="graph0" class="graph" transform="scale(1 1) rotate(0) translate(4 189)">
<title>Mediwatch.Server.Migrations.CreateIdentitySchema</title>
<polygon fill="#ffffff" stroke="transparent" points="-4,4 -4,-189 150,-189 150,4 -4,4"/>
<!-- Node0 -->
<g id="node1" class="node">
<title>Node0</title>
<polygon fill="#bfbfbf" stroke="#000000" points="0,-.5 0,-90.5 146,-90.5 146,-.5 0,-.5"/>
<text text-anchor="start" x="8" y="-78.5" font-family="Helvetica,sans-Serif" font-size="10.00" fill="#000000">Mediwatch.Server.Migrations.</text>
<text text-anchor="middle" x="73" y="-67.5" font-family="Helvetica,sans-Serif" font-size="10.00" fill="#000000">CreateIdentitySchema</text>
<polyline fill="none" stroke="#000000" points="0,-60.5 146,-60.5 "/>
<text text-anchor="middle" x="73" y="-48.5" font-family="Helvetica,sans-Serif" font-size="10.00" fill="#000000"> </text>
<polyline fill="none" stroke="#000000" points="0,-41.5 146,-41.5 "/>
<text text-anchor="start" x="8" y="-29.5" font-family="Helvetica,sans-Serif" font-size="10.00" fill="#000000"># Up()</text>
<text text-anchor="start" x="8" y="-18.5" font-family="Helvetica,sans-Serif" font-size="10.00" fill="#000000"># Down()</text>
<text text-anchor="start" x="8" y="-7.5" font-family="Helvetica,sans-Serif" font-size="10.00" fill="#000000"># BuildTargetModel()</text>
</g>
<!-- Node1 -->
<g id="node2" class="node">
<title>Node1</title>
<polygon fill="#ffffff" stroke="#bfbfbf" points="45,-127.5 45,-184.5 101,-184.5 101,-127.5 45,-127.5"/>
<text text-anchor="middle" x="73" y="-172.5" font-family="Helvetica,sans-Serif" font-size="10.00" fill="#000000">Migration</text>
<polyline fill="none" stroke="#bfbfbf" points="45,-165.5 101,-165.5 "/>
<text text-anchor="middle" x="73" y="-153.5" font-family="Helvetica,sans-Serif" font-size="10.00" fill="#000000"> </text>
<polyline fill="none" stroke="#bfbfbf" points="45,-146.5 101,-146.5 "/>
<text text-anchor="middle" x="73" y="-134.5" font-family="Helvetica,sans-Serif" font-size="10.00" fill="#000000"> </text>
</g>
<!-- Node1&#45;&gt;Node0 -->
<g id="edge1" class="edge">
<title>Node1&#45;&gt;Node0</title>
<path fill="none" stroke="#191970" d="M73,-117.1977C73,-108.667 73,-99.5607 73,-90.7995"/>
<polygon fill="none" stroke="#191970" points="69.5001,-117.2559 73,-127.2559 76.5001,-117.2559 69.5001,-117.2559"/>
</g>
</g>
</svg>
