<?xml version="1.0" encoding="UTF-8" standalone="no"?>
<!DOCTYPE svg PUBLIC "-//W3C//DTD SVG 1.1//EN"
 "http://www.w3.org/Graphics/SVG/1.1/DTD/svg11.dtd">
<!-- Generated by graphviz version 2.43.0 (0)
 -->
<!-- Title: Mediwatch.Server.Controllers.UsersController Pages: 1 -->
<svg width="171pt" height="259pt"
 viewBox="0.00 0.00 171.00 259.00" xmlns="http://www.w3.org/2000/svg" xmlns:xlink="http://www.w3.org/1999/xlink">
<g id="graph0" class="graph" transform="scale(1 1) rotate(0) translate(4 255)">
<title>Mediwatch.Server.Controllers.UsersController</title>
<polygon fill="white" stroke="transparent" points="-4,4 -4,-255 167,-255 167,4 -4,4"/>
<!-- Node1 -->
<g id="node1" class="node">
<title>Node1</title>
<g id="a_node1"><a xlink:title=" ">
<polygon fill="#bfbfbf" stroke="black" points="0,-0.5 0,-156.5 163,-156.5 163,-0.5 0,-0.5"/>
<text text-anchor="start" x="8" y="-144.5" font-family="Helvetica,sans-Serif" font-size="10.00">Mediwatch.Server.Controllers.</text>
<text text-anchor="middle" x="81.5" y="-133.5" font-family="Helvetica,sans-Serif" font-size="10.00">UsersController</text>
<polyline fill="none" stroke="black" points="0,-126.5 163,-126.5 "/>
<text text-anchor="middle" x="81.5" y="-114.5" font-family="Helvetica,sans-Serif" font-size="10.00"> </text>
<polyline fill="none" stroke="black" points="0,-107.5 163,-107.5 "/>
<text text-anchor="start" x="8" y="-95.5" font-family="Helvetica,sans-Serif" font-size="10.00">+ UsersController()</text>
<text text-anchor="start" x="8" y="-84.5" font-family="Helvetica,sans-Serif" font-size="10.00">+ GetUserList()</text>
<text text-anchor="start" x="8" y="-73.5" font-family="Helvetica,sans-Serif" font-size="10.00">+ GetMyUser()</text>
<text text-anchor="start" x="8" y="-62.5" font-family="Helvetica,sans-Serif" font-size="10.00">+ GetUser()</text>
<text text-anchor="start" x="8" y="-51.5" font-family="Helvetica,sans-Serif" font-size="10.00">+ SetUser()</text>
<text text-anchor="start" x="8" y="-40.5" font-family="Helvetica,sans-Serif" font-size="10.00">+ GetUserFormation()</text>
<text text-anchor="start" x="8" y="-29.5" font-family="Helvetica,sans-Serif" font-size="10.00">+ RegisterUserformation()</text>
<text text-anchor="start" x="8" y="-18.5" font-family="Helvetica,sans-Serif" font-size="10.00">+ DeleteUserFormation()</text>
<text text-anchor="start" x="8" y="-7.5" font-family="Helvetica,sans-Serif" font-size="10.00">+ DeleteUser()</text>
</a>
</g>
</g>
<!-- Node2 -->
<g id="node2" class="node">
<title>Node2</title>
<g id="a_node2"><a xlink:title=" ">
<polygon fill="white" stroke="#bfbfbf" points="37,-193.5 37,-250.5 126,-250.5 126,-193.5 37,-193.5"/>
<text text-anchor="middle" x="81.5" y="-238.5" font-family="Helvetica,sans-Serif" font-size="10.00">ControllerBase</text>
<polyline fill="none" stroke="#bfbfbf" points="37,-231.5 126,-231.5 "/>
<text text-anchor="middle" x="81.5" y="-219.5" font-family="Helvetica,sans-Serif" font-size="10.00"> </text>
<polyline fill="none" stroke="#bfbfbf" points="37,-212.5 126,-212.5 "/>
<text text-anchor="middle" x="81.5" y="-200.5" font-family="Helvetica,sans-Serif" font-size="10.00"> </text>
</a>
</g>
</g>
<!-- Node2&#45;&gt;Node1 -->
<g id="edge1" class="edge">
<title>Node2&#45;&gt;Node1</title>
<path fill="none" stroke="midnightblue" d="M81.5,-183.34C81.5,-175.04 81.5,-165.96 81.5,-156.74"/>
<polygon fill="none" stroke="midnightblue" points="78,-183.38 81.5,-193.38 85,-183.38 78,-183.38"/>
</g>
</g>
</svg>
