<?xml version="1.0" encoding="UTF-8" standalone="no"?>
<!DOCTYPE svg PUBLIC "-//W3C//DTD SVG 1.1//EN"
 "http://www.w3.org/Graphics/SVG/1.1/DTD/svg11.dtd">
<!-- Generated by graphviz version 2.43.0 (0)
 -->
<!-- Title: Mediwatch.Server.Migrations.innitialCreate Pages: 1 -->
<svg width="203pt" height="193pt"
 viewBox="0.00 0.00 203.00 193.00" xmlns="http://www.w3.org/2000/svg" xmlns:xlink="http://www.w3.org/1999/xlink">
<g id="graph0" class="graph" transform="scale(1 1) rotate(0) translate(4 189)">
<title>Mediwatch.Server.Migrations.innitialCreate</title>
<polygon fill="white" stroke="transparent" points="-4,4 -4,-189 199,-189 199,4 -4,4"/>
<!-- Node1 -->
<g id="node1" class="node">
<title>Node1</title>
<g id="a_node1"><a xlink:title=" ">
<polygon fill="#bfbfbf" stroke="black" points="0,-0.5 0,-90.5 195,-90.5 195,-0.5 0,-0.5"/>
<text text-anchor="start" x="8" y="-78.5" font-family="Helvetica,sans-Serif" font-size="10.00">Mediwatch.Server.Migrations.innitial</text>
<text text-anchor="middle" x="97.5" y="-67.5" font-family="Helvetica,sans-Serif" font-size="10.00">Create</text>
<polyline fill="none" stroke="black" points="0,-60.5 195,-60.5 "/>
<text text-anchor="middle" x="97.5" y="-48.5" font-family="Helvetica,sans-Serif" font-size="10.00"> </text>
<polyline fill="none" stroke="black" points="0,-41.5 195,-41.5 "/>
<text text-anchor="start" x="8" y="-29.5" font-family="Helvetica,sans-Serif" font-size="10.00"># Up()</text>
<text text-anchor="start" x="8" y="-18.5" font-family="Helvetica,sans-Serif" font-size="10.00"># Down()</text>
<text text-anchor="start" x="8" y="-7.5" font-family="Helvetica,sans-Serif" font-size="10.00"># BuildTargetModel()</text>
</a>
</g>
</g>
<!-- Node2 -->
<g id="node2" class="node">
<title>Node2</title>
<g id="a_node2"><a xlink:title=" ">
<polygon fill="white" stroke="#bfbfbf" points="66,-127.5 66,-184.5 129,-184.5 129,-127.5 66,-127.5"/>
<text text-anchor="middle" x="97.5" y="-172.5" font-family="Helvetica,sans-Serif" font-size="10.00">Migration</text>
<polyline fill="none" stroke="#bfbfbf" points="66,-165.5 129,-165.5 "/>
<text text-anchor="middle" x="97.5" y="-153.5" font-family="Helvetica,sans-Serif" font-size="10.00"> </text>
<polyline fill="none" stroke="#bfbfbf" points="66,-146.5 129,-146.5 "/>
<text text-anchor="middle" x="97.5" y="-134.5" font-family="Helvetica,sans-Serif" font-size="10.00"> </text>
</a>
</g>
</g>
<!-- Node2&#45;&gt;Node1 -->
<g id="edge1" class="edge">
<title>Node2&#45;&gt;Node1</title>
<path fill="none" stroke="midnightblue" d="M97.5,-117.21C97.5,-108.61 97.5,-99.39 97.5,-90.55"/>
<polygon fill="none" stroke="midnightblue" points="94,-117.34 97.5,-127.34 101,-117.34 94,-117.34"/>
</g>
</g>
</svg>
