<?xml version="1.0" encoding="UTF-8" standalone="no"?>
<!DOCTYPE svg PUBLIC "-//W3C//DTD SVG 1.1//EN"
 "http://www.w3.org/Graphics/SVG/1.1/DTD/svg11.dtd">
<!-- Generated by graphviz version 2.40.1 (20161225.0304)
 -->
<!-- Title: Mediwatch.Server.Migrations.DbContextMediwatchModelSnapshot Pages: 1 -->
<svg width="187pt" height="171pt"
 viewBox="0.00 0.00 187.00 171.00" xmlns="http://www.w3.org/2000/svg" xmlns:xlink="http://www.w3.org/1999/xlink">
<g id="graph0" class="graph" transform="scale(1 1) rotate(0) translate(4 167)">
<title>Mediwatch.Server.Migrations.DbContextMediwatchModelSnapshot</title>
<polygon fill="#ffffff" stroke="transparent" points="-4,4 -4,-167 183,-167 183,4 -4,4"/>
<!-- Node2 -->
<g id="node1" class="node">
<title>Node2</title>
<polygon fill="#bfbfbf" stroke="#000000" points="0,-.5 0,-68.5 179,-68.5 179,-.5 0,-.5"/>
<text text-anchor="start" x="8" y="-56.5" font-family="Helvetica,sans-Serif" font-size="10.00" fill="#000000">Mediwatch.Server.Migrations.</text>
<text text-anchor="middle" x="89.5" y="-45.5" font-family="Helvetica,sans-Serif" font-size="10.00" fill="#000000">DbContextMediwatchModelSnapshot</text>
<polyline fill="none" stroke="#000000" points="0,-38.5 179,-38.5 "/>
<text text-anchor="middle" x="89.5" y="-26.5" font-family="Helvetica,sans-Serif" font-size="10.00" fill="#000000"> </text>
<polyline fill="none" stroke="#000000" points="0,-19.5 179,-19.5 "/>
<text text-anchor="start" x="8" y="-7.5" font-family="Helvetica,sans-Serif" font-size="10.00" fill="#000000"># BuildModel()</text>
</g>
<!-- Node3 -->
<g id="node2" class="node">
<title>Node3</title>
<polygon fill="#ffffff" stroke="#bfbfbf" points="47.5,-105.5 47.5,-162.5 131.5,-162.5 131.5,-105.5 47.5,-105.5"/>
<text text-anchor="middle" x="89.5" y="-150.5" font-family="Helvetica,sans-Serif" font-size="10.00" fill="#000000">ModelSnapshot</text>
<polyline fill="none" stroke="#bfbfbf" points="47.5,-143.5 131.5,-143.5 "/>
<text text-anchor="middle" x="89.5" y="-131.5" font-family="Helvetica,sans-Serif" font-size="10.00" fill="#000000"> </text>
<polyline fill="none" stroke="#bfbfbf" points="47.5,-124.5 131.5,-124.5 "/>
<text text-anchor="middle" x="89.5" y="-112.5" font-family="Helvetica,sans-Serif" font-size="10.00" fill="#000000"> </text>
</g>
<!-- Node3&#45;&gt;Node2 -->
<g id="edge1" class="edge">
<title>Node3&#45;&gt;Node2</title>
<path fill="none" stroke="#191970" d="M89.5,-95.4268C89.5,-86.6025 89.5,-77.2834 89.5,-68.6596"/>
<polygon fill="none" stroke="#191970" points="86.0001,-95.4873 89.5,-105.4873 93.0001,-95.4873 86.0001,-95.4873"/>
</g>
</g>
</svg>
