<?xml version="1.0" encoding="UTF-8" standalone="no"?>
<!DOCTYPE svg PUBLIC "-//W3C//DTD SVG 1.1//EN"
 "http://www.w3.org/Graphics/SVG/1.1/DTD/svg11.dtd">
<!-- Generated by graphviz version 2.43.0 (0)
 -->
<!-- Title: Server.DbContextMediwatch Pages: 1 -->
<svg width="163pt" height="237pt"
 viewBox="0.00 0.00 163.00 237.00" xmlns="http://www.w3.org/2000/svg" xmlns:xlink="http://www.w3.org/1999/xlink">
<g id="graph0" class="graph" transform="scale(1 1) rotate(0) translate(4 233)">
<title>Server.DbContextMediwatch</title>
<polygon fill="white" stroke="transparent" points="-4,4 -4,-233 159,-233 159,4 -4,4"/>
<!-- Node1 -->
<g id="node1" class="node">
<title>Node1</title>
<g id="a_node1"><a xlink:title=" ">
<polygon fill="#bfbfbf" stroke="black" points="0,-0.5 0,-134.5 155,-134.5 155,-0.5 0,-0.5"/>
<text text-anchor="middle" x="77.5" y="-122.5" font-family="Helvetica,sans-Serif" font-size="10.00">Server.DbContextMediwatch</text>
<polyline fill="none" stroke="black" points="0,-115.5 155,-115.5 "/>
<text text-anchor="start" x="8" y="-103.5" font-family="Helvetica,sans-Serif" font-size="10.00">+ compagnies</text>
<text text-anchor="start" x="8" y="-92.5" font-family="Helvetica,sans-Serif" font-size="10.00">+ formations</text>
<text text-anchor="start" x="8" y="-81.5" font-family="Helvetica,sans-Serif" font-size="10.00">+ applicant_sessions</text>
<text text-anchor="start" x="8" y="-70.5" font-family="Helvetica,sans-Serif" font-size="10.00">+ tags</text>
<text text-anchor="start" x="8" y="-59.5" font-family="Helvetica,sans-Serif" font-size="10.00">+ orderInfos</text>
<text text-anchor="start" x="8" y="-48.5" font-family="Helvetica,sans-Serif" font-size="10.00">+ articleModels</text>
<polyline fill="none" stroke="black" points="0,-41.5 155,-41.5 "/>
<text text-anchor="start" x="8" y="-29.5" font-family="Helvetica,sans-Serif" font-size="10.00">+ DbContextMediwatch()</text>
<text text-anchor="start" x="8" y="-18.5" font-family="Helvetica,sans-Serif" font-size="10.00"># DbContextMediwatch()</text>
<text text-anchor="start" x="8" y="-7.5" font-family="Helvetica,sans-Serif" font-size="10.00"># OnConfiguring()</text>
</a>
</g>
</g>
<!-- Node2 -->
<g id="node2" class="node">
<title>Node2</title>
<g id="a_node2"><a xlink:title=" ">
<polygon fill="white" stroke="#bfbfbf" points="43.5,-171.5 43.5,-228.5 111.5,-228.5 111.5,-171.5 43.5,-171.5"/>
<text text-anchor="middle" x="77.5" y="-216.5" font-family="Helvetica,sans-Serif" font-size="10.00">DbContext</text>
<polyline fill="none" stroke="#bfbfbf" points="43.5,-209.5 111.5,-209.5 "/>
<text text-anchor="middle" x="77.5" y="-197.5" font-family="Helvetica,sans-Serif" font-size="10.00"> </text>
<polyline fill="none" stroke="#bfbfbf" points="43.5,-190.5 111.5,-190.5 "/>
<text text-anchor="middle" x="77.5" y="-178.5" font-family="Helvetica,sans-Serif" font-size="10.00"> </text>
</a>
</g>
</g>
<!-- Node2&#45;&gt;Node1 -->
<g id="edge1" class="edge">
<title>Node2&#45;&gt;Node1</title>
<path fill="none" stroke="midnightblue" d="M77.5,-161.16C77.5,-152.78 77.5,-143.67 77.5,-134.53"/>
<polygon fill="none" stroke="midnightblue" points="74,-161.32 77.5,-171.32 81,-161.32 74,-161.32"/>
</g>
</g>
</svg>
