<?xml version="1.0" encoding="UTF-8" standalone="no"?>
<!DOCTYPE svg PUBLIC "-//W3C//DTD SVG 1.1//EN"
 "http://www.w3.org/Graphics/SVG/1.1/DTD/svg11.dtd">
<!-- Generated by graphviz version 2.40.1 (20161225.0304)
 -->
<!-- Title: Mediwatch.Server.Migrations.DbContextMediwatchMigrations.CreateMediwatchDb3 Pages: 1 -->
<svg width="196pt" height="204pt"
 viewBox="0.00 0.00 196.00 204.00" xmlns="http://www.w3.org/2000/svg" xmlns:xlink="http://www.w3.org/1999/xlink">
<g id="graph0" class="graph" transform="scale(1 1) rotate(0) translate(4 200)">
<title>Mediwatch.Server.Migrations.DbContextMediwatchMigrations.CreateMediwatchDb3</title>
<polygon fill="#ffffff" stroke="transparent" points="-4,4 -4,-200 192,-200 192,4 -4,4"/>
<!-- Node0 -->
<g id="node1" class="node">
<title>Node0</title>
<polygon fill="#bfbfbf" stroke="#000000" points="0,-.5 0,-101.5 188,-101.5 188,-.5 0,-.5"/>
<text text-anchor="start" x="8" y="-89.5" font-family="Helvetica,sans-Serif" font-size="10.00" fill="#000000">Mediwatch.Server.Migrations.</text>
<text text-anchor="start" x="8" y="-78.5" font-family="Helvetica,sans-Serif" font-size="10.00" fill="#000000">DbContextMediwatchMigrations.Create</text>
<text text-anchor="middle" x="94" y="-67.5" font-family="Helvetica,sans-Serif" font-size="10.00" fill="#000000">MediwatchDb3</text>
<polyline fill="none" stroke="#000000" points="0,-60.5 188,-60.5 "/>
<text text-anchor="middle" x="94" y="-48.5" font-family="Helvetica,sans-Serif" font-size="10.00" fill="#000000"> </text>
<polyline fill="none" stroke="#000000" points="0,-41.5 188,-41.5 "/>
<text text-anchor="start" x="8" y="-29.5" font-family="Helvetica,sans-Serif" font-size="10.00" fill="#000000"># Up()</text>
<text text-anchor="start" x="8" y="-18.5" font-family="Helvetica,sans-Serif" font-size="10.00" fill="#000000"># Down()</text>
<text text-anchor="start" x="8" y="-7.5" font-family="Helvetica,sans-Serif" font-size="10.00" fill="#000000"># BuildTargetModel()</text>
</g>
<!-- Node1 -->
<g id="node2" class="node">
<title>Node1</title>
<polygon fill="#ffffff" stroke="#bfbfbf" points="66,-138.5 66,-195.5 122,-195.5 122,-138.5 66,-138.5"/>
<text text-anchor="middle" x="94" y="-183.5" font-family="Helvetica,sans-Serif" font-size="10.00" fill="#000000">Migration</text>
<polyline fill="none" stroke="#bfbfbf" points="66,-176.5 122,-176.5 "/>
<text text-anchor="middle" x="94" y="-164.5" font-family="Helvetica,sans-Serif" font-size="10.00" fill="#000000"> </text>
<polyline fill="none" stroke="#bfbfbf" points="66,-157.5 122,-157.5 "/>
<text text-anchor="middle" x="94" y="-145.5" font-family="Helvetica,sans-Serif" font-size="10.00" fill="#000000"> </text>
</g>
<!-- Node1&#45;&gt;Node0 -->
<g id="edge1" class="edge">
<title>Node1&#45;&gt;Node0</title>
<path fill="none" stroke="#191970" d="M94,-128.0826C94,-119.6942 94,-110.7064 94,-101.9373"/>
<polygon fill="none" stroke="#191970" points="90.5001,-128.3258 94,-138.3258 97.5001,-128.3259 90.5001,-128.3258"/>
</g>
</g>
</svg>
