<?xml version="1.0" encoding="UTF-8" standalone="no"?>
<!DOCTYPE svg PUBLIC "-//W3C//DTD SVG 1.1//EN"
 "http://www.w3.org/Graphics/SVG/1.1/DTD/svg11.dtd">
<!-- Generated by graphviz version 2.43.0 (0)
 -->
<!-- Title: Mediwatch.Server.Controllers.EmailController Pages: 1 -->
<svg width="171pt" height="171pt"
 viewBox="0.00 0.00 171.00 171.00" xmlns="http://www.w3.org/2000/svg" xmlns:xlink="http://www.w3.org/1999/xlink">
<g id="graph0" class="graph" transform="scale(1 1) rotate(0) translate(4 167)">
<title>Mediwatch.Server.Controllers.EmailController</title>
<polygon fill="white" stroke="transparent" points="-4,4 -4,-167 167,-167 167,4 -4,4"/>
<!-- Node1 -->
<g id="node1" class="node">
<title>Node1</title>
<g id="a_node1"><a xlink:title=" ">
<polygon fill="#bfbfbf" stroke="black" points="0,-0.5 0,-68.5 163,-68.5 163,-0.5 0,-0.5"/>
<text text-anchor="start" x="8" y="-56.5" font-family="Helvetica,sans-Serif" font-size="10.00">Mediwatch.Server.Controllers.</text>
<text text-anchor="middle" x="81.5" y="-45.5" font-family="Helvetica,sans-Serif" font-size="10.00">EmailController</text>
<polyline fill="none" stroke="black" points="0,-38.5 163,-38.5 "/>
<text text-anchor="middle" x="81.5" y="-26.5" font-family="Helvetica,sans-Serif" font-size="10.00"> </text>
<polyline fill="none" stroke="black" points="0,-19.5 163,-19.5 "/>
<text text-anchor="start" x="8" y="-7.5" font-family="Helvetica,sans-Serif" font-size="10.00">+ SendMail()</text>
</a>
</g>
</g>
<!-- Node2 -->
<g id="node2" class="node">
<title>Node2</title>
<g id="a_node2"><a xlink:title=" ">
<polygon fill="white" stroke="#bfbfbf" points="49,-105.5 49,-162.5 114,-162.5 114,-105.5 49,-105.5"/>
<text text-anchor="middle" x="81.5" y="-150.5" font-family="Helvetica,sans-Serif" font-size="10.00">Controller</text>
<polyline fill="none" stroke="#bfbfbf" points="49,-143.5 114,-143.5 "/>
<text text-anchor="middle" x="81.5" y="-131.5" font-family="Helvetica,sans-Serif" font-size="10.00"> </text>
<polyline fill="none" stroke="#bfbfbf" points="49,-124.5 114,-124.5 "/>
<text text-anchor="middle" x="81.5" y="-112.5" font-family="Helvetica,sans-Serif" font-size="10.00"> </text>
</a>
</g>
</g>
<!-- Node2&#45;&gt;Node1 -->
<g id="edge1" class="edge">
<title>Node2&#45;&gt;Node1</title>
<path fill="none" stroke="midnightblue" d="M81.5,-95.06C81.5,-86.39 81.5,-77.24 81.5,-68.79"/>
<polygon fill="none" stroke="midnightblue" points="78,-95.32 81.5,-105.32 85,-95.32 78,-95.32"/>
</g>
</g>
</svg>
