<?xml version="1.0" encoding="UTF-8" standalone="no"?>
<!DOCTYPE svg PUBLIC "-//W3C//DTD SVG 1.1//EN"
 "http://www.w3.org/Graphics/SVG/1.1/DTD/svg11.dtd">
<!-- Generated by graphviz version 2.40.1 (20161225.0304)
 -->
<!-- Title: Mediwatch.Server.Migrations.DbContextMediwatchMigrations.FormationTemplate Pages: 1 -->
<svg width="211pt" height="204pt"
 viewBox="0.00 0.00 211.00 204.00" xmlns="http://www.w3.org/2000/svg" xmlns:xlink="http://www.w3.org/1999/xlink">
<g id="graph0" class="graph" transform="scale(1 1) rotate(0) translate(4 200)">
<title>Mediwatch.Server.Migrations.DbContextMediwatchMigrations.FormationTemplate</title>
<polygon fill="#ffffff" stroke="transparent" points="-4,4 -4,-200 207,-200 207,4 -4,4"/>
<!-- Node2 -->
<g id="node1" class="node">
<title>Node2</title>
<polygon fill="#bfbfbf" stroke="#000000" points="0,-.5 0,-101.5 203,-101.5 203,-.5 0,-.5"/>
<text text-anchor="start" x="8" y="-89.5" font-family="Helvetica,sans-Serif" font-size="10.00" fill="#000000">Mediwatch.Server.Migrations.</text>
<text text-anchor="start" x="8" y="-78.5" font-family="Helvetica,sans-Serif" font-size="10.00" fill="#000000">DbContextMediwatchMigrations.Formation</text>
<text text-anchor="middle" x="101.5" y="-67.5" font-family="Helvetica,sans-Serif" font-size="10.00" fill="#000000">Template</text>
<polyline fill="none" stroke="#000000" points="0,-60.5 203,-60.5 "/>
<text text-anchor="middle" x="101.5" y="-48.5" font-family="Helvetica,sans-Serif" font-size="10.00" fill="#000000"> </text>
<polyline fill="none" stroke="#000000" points="0,-41.5 203,-41.5 "/>
<text text-anchor="start" x="8" y="-29.5" font-family="Helvetica,sans-Serif" font-size="10.00" fill="#000000"># Up()</text>
<text text-anchor="start" x="8" y="-18.5" font-family="Helvetica,sans-Serif" font-size="10.00" fill="#000000"># Down()</text>
<text text-anchor="start" x="8" y="-7.5" font-family="Helvetica,sans-Serif" font-size="10.00" fill="#000000"># BuildTargetModel()</text>
</g>
<!-- Node3 -->
<g id="node2" class="node">
<title>Node3</title>
<polygon fill="#ffffff" stroke="#bfbfbf" points="73.5,-138.5 73.5,-195.5 129.5,-195.5 129.5,-138.5 73.5,-138.5"/>
<text text-anchor="middle" x="101.5" y="-183.5" font-family="Helvetica,sans-Serif" font-size="10.00" fill="#000000">Migration</text>
<polyline fill="none" stroke="#bfbfbf" points="73.5,-176.5 129.5,-176.5 "/>
<text text-anchor="middle" x="101.5" y="-164.5" font-family="Helvetica,sans-Serif" font-size="10.00" fill="#000000"> </text>
<polyline fill="none" stroke="#bfbfbf" points="73.5,-157.5 129.5,-157.5 "/>
<text text-anchor="middle" x="101.5" y="-145.5" font-family="Helvetica,sans-Serif" font-size="10.00" fill="#000000"> </text>
</g>
<!-- Node3&#45;&gt;Node2 -->
<g id="edge1" class="edge">
<title>Node3&#45;&gt;Node2</title>
<path fill="none" stroke="#191970" d="M101.5,-128.0826C101.5,-119.6942 101.5,-110.7064 101.5,-101.9373"/>
<polygon fill="none" stroke="#191970" points="98.0001,-128.3258 101.5,-138.3258 105.0001,-128.3259 98.0001,-128.3258"/>
</g>
</g>
</svg>
