<?xml version="1.0" encoding="UTF-8" standalone="no"?>
<!DOCTYPE svg PUBLIC "-//W3C//DTD SVG 1.1//EN"
 "http://www.w3.org/Graphics/SVG/1.1/DTD/svg11.dtd">
<!-- Generated by graphviz version 2.43.0 (0)
 -->
<!-- Title: Server.Services.AdminServiceAccessor Pages: 1 -->
<svg width="170pt" height="171pt"
 viewBox="0.00 0.00 170.00 171.00" xmlns="http://www.w3.org/2000/svg" xmlns:xlink="http://www.w3.org/1999/xlink">
<g id="graph0" class="graph" transform="scale(1 1) rotate(0) translate(4 167)">
<title>Server.Services.AdminServiceAccessor</title>
<polygon fill="white" stroke="transparent" points="-4,4 -4,-167 166,-167 166,4 -4,4"/>
<!-- Node1 -->
<g id="node1" class="node">
<title>Node1</title>
<g id="a_node1"><a xlink:title=" ">
<polygon fill="#bfbfbf" stroke="black" points="0,-0.5 0,-68.5 162,-68.5 162,-0.5 0,-0.5"/>
<text text-anchor="start" x="8" y="-56.5" font-family="Helvetica,sans-Serif" font-size="10.00">Server.Services.AdminService</text>
<text text-anchor="middle" x="81" y="-45.5" font-family="Helvetica,sans-Serif" font-size="10.00">Accessor</text>
<polyline fill="none" stroke="black" points="0,-38.5 162,-38.5 "/>
<text text-anchor="start" x="8" y="-26.5" font-family="Helvetica,sans-Serif" font-size="10.00">+ Service</text>
<polyline fill="none" stroke="black" points="0,-19.5 162,-19.5 "/>
<text text-anchor="start" x="8" y="-7.5" font-family="Helvetica,sans-Serif" font-size="10.00">+ AdminServiceAccessor()</text>
</a>
</g>
</g>
<!-- Node2 -->
<g id="node2" class="node">
<title>Node2</title>
<g id="a_node2"><a xlink:href="interface_server_1_1_services_1_1_interface_1_1_i_admin_service_accessor.html" target="_top" xlink:title=" ">
<polygon fill="white" stroke="black" points="15.5,-105.5 15.5,-162.5 146.5,-162.5 146.5,-105.5 15.5,-105.5"/>
<text text-anchor="middle" x="81" y="-150.5" font-family="Helvetica,sans-Serif" font-size="10.00">IAdminServiceAccessor</text>
<polyline fill="none" stroke="black" points="15.5,-143.5 146.5,-143.5 "/>
<text text-anchor="start" x="23.5" y="-131.5" font-family="Helvetica,sans-Serif" font-size="10.00">+ Service</text>
<polyline fill="none" stroke="black" points="15.5,-124.5 146.5,-124.5 "/>
<text text-anchor="middle" x="81" y="-112.5" font-family="Helvetica,sans-Serif" font-size="10.00"> </text>
</a>
</g>
</g>
<!-- Node2&#45;&gt;Node1 -->
<g id="edge1" class="edge">
<title>Node2&#45;&gt;Node1</title>
<path fill="none" stroke="midnightblue" d="M81,-95.06C81,-86.39 81,-77.24 81,-68.79"/>
<polygon fill="none" stroke="midnightblue" points="77.5,-95.32 81,-105.32 84.5,-95.32 77.5,-95.32"/>
</g>
</g>
</svg>
