<?xml version="1.0" encoding="UTF-8" standalone="no"?>
<!DOCTYPE svg PUBLIC "-//W3C//DTD SVG 1.1//EN"
 "http://www.w3.org/Graphics/SVG/1.1/DTD/svg11.dtd">
<!-- Generated by graphviz version 2.40.1 (20161225.0304)
 -->
<!-- Title: MediwatchWebsite.Server.Controllers.OidcConfigurationController Pages: 1 -->
<svg width="182pt" height="193pt"
 viewBox="0.00 0.00 182.00 193.00" xmlns="http://www.w3.org/2000/svg" xmlns:xlink="http://www.w3.org/1999/xlink">
<g id="graph0" class="graph" transform="scale(1 1) rotate(0) translate(4 189)">
<title>MediwatchWebsite.Server.Controllers.OidcConfigurationController</title>
<polygon fill="#ffffff" stroke="transparent" points="-4,4 -4,-189 178,-189 178,4 -4,4"/>
<!-- Node0 -->
<g id="node1" class="node">
<title>Node0</title>
<polygon fill="#bfbfbf" stroke="#000000" points="0,-.5 0,-90.5 174,-90.5 174,-.5 0,-.5"/>
<text text-anchor="start" x="8" y="-78.5" font-family="Helvetica,sans-Serif" font-size="10.00" fill="#000000">MediwatchWebsite.Server.</text>
<text text-anchor="start" x="8" y="-67.5" font-family="Helvetica,sans-Serif" font-size="10.00" fill="#000000">Controllers.OidcConfiguration</text>
<text text-anchor="middle" x="87" y="-56.5" font-family="Helvetica,sans-Serif" font-size="10.00" fill="#000000">Controller</text>
<polyline fill="none" stroke="#000000" points="0,-49.5 174,-49.5 "/>
<text text-anchor="start" x="8" y="-37.5" font-family="Helvetica,sans-Serif" font-size="10.00" fill="#000000">+ ClientRequestParametersProvider</text>
<polyline fill="none" stroke="#000000" points="0,-30.5 174,-30.5 "/>
<text text-anchor="start" x="8" y="-18.5" font-family="Helvetica,sans-Serif" font-size="10.00" fill="#000000">+ OidcConfigurationController()</text>
<text text-anchor="start" x="8" y="-7.5" font-family="Helvetica,sans-Serif" font-size="10.00" fill="#000000">+ GetClientRequestParameters()</text>
</g>
<!-- Node1 -->
<g id="node2" class="node">
<title>Node1</title>
<polygon fill="#ffffff" stroke="#bfbfbf" points="57.5,-127.5 57.5,-184.5 116.5,-184.5 116.5,-127.5 57.5,-127.5"/>
<text text-anchor="middle" x="87" y="-172.5" font-family="Helvetica,sans-Serif" font-size="10.00" fill="#000000">Controller</text>
<polyline fill="none" stroke="#bfbfbf" points="57.5,-165.5 116.5,-165.5 "/>
<text text-anchor="middle" x="87" y="-153.5" font-family="Helvetica,sans-Serif" font-size="10.00" fill="#000000"> </text>
<polyline fill="none" stroke="#bfbfbf" points="57.5,-146.5 116.5,-146.5 "/>
<text text-anchor="middle" x="87" y="-134.5" font-family="Helvetica,sans-Serif" font-size="10.00" fill="#000000"> </text>
</g>
<!-- Node1&#45;&gt;Node0 -->
<g id="edge1" class="edge">
<title>Node1&#45;&gt;Node0</title>
<path fill="none" stroke="#191970" d="M87,-117.1977C87,-108.667 87,-99.5607 87,-90.7995"/>
<polygon fill="none" stroke="#191970" points="83.5001,-117.2559 87,-127.2559 90.5001,-117.2559 83.5001,-117.2559"/>
</g>
</g>
</svg>
