<?xml version="1.0" encoding="UTF-8" standalone="no"?>
<!DOCTYPE svg PUBLIC "-//W3C//DTD SVG 1.1//EN"
 "http://www.w3.org/Graphics/SVG/1.1/DTD/svg11.dtd">
<!-- Generated by graphviz version 2.40.1 (20161225.0304)
 -->
<!-- Title: Mediwatch.Server.Controllers.UsersController Pages: 1 -->
<svg width="157pt" height="193pt"
 viewBox="0.00 0.00 157.00 193.00" xmlns="http://www.w3.org/2000/svg" xmlns:xlink="http://www.w3.org/1999/xlink">
<g id="graph0" class="graph" transform="scale(1 1) rotate(0) translate(4 189)">
<title>Mediwatch.Server.Controllers.UsersController</title>
<polygon fill="#ffffff" stroke="transparent" points="-4,4 -4,-189 153,-189 153,4 -4,4"/>
<!-- Node0 -->
<g id="node1" class="node">
<title>Node0</title>
<polygon fill="#bfbfbf" stroke="#000000" points="0,-.5 0,-90.5 149,-90.5 149,-.5 0,-.5"/>
<text text-anchor="start" x="8" y="-78.5" font-family="Helvetica,sans-Serif" font-size="10.00" fill="#000000">Mediwatch.Server.Controllers.</text>
<text text-anchor="middle" x="74.5" y="-67.5" font-family="Helvetica,sans-Serif" font-size="10.00" fill="#000000">UsersController</text>
<polyline fill="none" stroke="#000000" points="0,-60.5 149,-60.5 "/>
<text text-anchor="middle" x="74.5" y="-48.5" font-family="Helvetica,sans-Serif" font-size="10.00" fill="#000000"> </text>
<polyline fill="none" stroke="#000000" points="0,-41.5 149,-41.5 "/>
<text text-anchor="start" x="8" y="-29.5" font-family="Helvetica,sans-Serif" font-size="10.00" fill="#000000">+ UsersController()</text>
<text text-anchor="start" x="8" y="-18.5" font-family="Helvetica,sans-Serif" font-size="10.00" fill="#000000">+ GetUserList()</text>
<text text-anchor="start" x="8" y="-7.5" font-family="Helvetica,sans-Serif" font-size="10.00" fill="#000000">+ GetUser()</text>
</g>
<!-- Node1 -->
<g id="node2" class="node">
<title>Node1</title>
<polygon fill="#ffffff" stroke="#bfbfbf" points="34,-127.5 34,-184.5 115,-184.5 115,-127.5 34,-127.5"/>
<text text-anchor="middle" x="74.5" y="-172.5" font-family="Helvetica,sans-Serif" font-size="10.00" fill="#000000">ControllerBase</text>
<polyline fill="none" stroke="#bfbfbf" points="34,-165.5 115,-165.5 "/>
<text text-anchor="middle" x="74.5" y="-153.5" font-family="Helvetica,sans-Serif" font-size="10.00" fill="#000000"> </text>
<polyline fill="none" stroke="#bfbfbf" points="34,-146.5 115,-146.5 "/>
<text text-anchor="middle" x="74.5" y="-134.5" font-family="Helvetica,sans-Serif" font-size="10.00" fill="#000000"> </text>
</g>
<!-- Node1&#45;&gt;Node0 -->
<g id="edge1" class="edge">
<title>Node1&#45;&gt;Node0</title>
<path fill="none" stroke="#191970" d="M74.5,-117.1977C74.5,-108.667 74.5,-99.5607 74.5,-90.7995"/>
<polygon fill="none" stroke="#191970" points="71.0001,-117.2559 74.5,-127.2559 78.0001,-117.2559 71.0001,-117.2559"/>
</g>
</g>
</svg>
