<?xml version="1.0" encoding="UTF-8" standalone="no"?>
<!DOCTYPE svg PUBLIC "-//W3C//DTD SVG 1.1//EN"
 "http://www.w3.org/Graphics/SVG/1.1/DTD/svg11.dtd">
<!-- Generated by graphviz version 2.40.1 (20161225.0304)
 -->
<!-- Title: Mediwatch.Server.Migrations.MigrationAddOrderController_price Pages: 1 -->
<svg width="174pt" height="193pt"
 viewBox="0.00 0.00 174.00 193.00" xmlns="http://www.w3.org/2000/svg" xmlns:xlink="http://www.w3.org/1999/xlink">
<g id="graph0" class="graph" transform="scale(1 1) rotate(0) translate(4 189)">
<title>Mediwatch.Server.Migrations.MigrationAddOrderController_price</title>
<polygon fill="#ffffff" stroke="transparent" points="-4,4 -4,-189 170,-189 170,4 -4,4"/>
<!-- Node0 -->
<g id="node1" class="node">
<title>Node0</title>
<polygon fill="#bfbfbf" stroke="#000000" points="0,-.5 0,-90.5 166,-90.5 166,-.5 0,-.5"/>
<text text-anchor="start" x="8" y="-78.5" font-family="Helvetica,sans-Serif" font-size="10.00" fill="#000000">Mediwatch.Server.Migrations.</text>
<text text-anchor="middle" x="83" y="-67.5" font-family="Helvetica,sans-Serif" font-size="10.00" fill="#000000">MigrationAddOrderController_price</text>
<polyline fill="none" stroke="#000000" points="0,-60.5 166,-60.5 "/>
<text text-anchor="middle" x="83" y="-48.5" font-family="Helvetica,sans-Serif" font-size="10.00" fill="#000000"> </text>
<polyline fill="none" stroke="#000000" points="0,-41.5 166,-41.5 "/>
<text text-anchor="start" x="8" y="-29.5" font-family="Helvetica,sans-Serif" font-size="10.00" fill="#000000"># Up()</text>
<text text-anchor="start" x="8" y="-18.5" font-family="Helvetica,sans-Serif" font-size="10.00" fill="#000000"># Down()</text>
<text text-anchor="start" x="8" y="-7.5" font-family="Helvetica,sans-Serif" font-size="10.00" fill="#000000"># BuildTargetModel()</text>
</g>
<!-- Node1 -->
<g id="node2" class="node">
<title>Node1</title>
<polygon fill="#ffffff" stroke="#bfbfbf" points="55,-127.5 55,-184.5 111,-184.5 111,-127.5 55,-127.5"/>
<text text-anchor="middle" x="83" y="-172.5" font-family="Helvetica,sans-Serif" font-size="10.00" fill="#000000">Migration</text>
<polyline fill="none" stroke="#bfbfbf" points="55,-165.5 111,-165.5 "/>
<text text-anchor="middle" x="83" y="-153.5" font-family="Helvetica,sans-Serif" font-size="10.00" fill="#000000"> </text>
<polyline fill="none" stroke="#bfbfbf" points="55,-146.5 111,-146.5 "/>
<text text-anchor="middle" x="83" y="-134.5" font-family="Helvetica,sans-Serif" font-size="10.00" fill="#000000"> </text>
</g>
<!-- Node1&#45;&gt;Node0 -->
<g id="edge1" class="edge">
<title>Node1&#45;&gt;Node0</title>
<path fill="none" stroke="#191970" d="M83,-117.1977C83,-108.667 83,-99.5607 83,-90.7995"/>
<polygon fill="none" stroke="#191970" points="79.5001,-117.2559 83,-127.2559 86.5001,-117.2559 79.5001,-117.2559"/>
</g>
</g>
</svg>
