<?xml version="1.0" encoding="UTF-8" standalone="no"?>
<!DOCTYPE svg PUBLIC "-//W3C//DTD SVG 1.1//EN"
 "http://www.w3.org/Graphics/SVG/1.1/DTD/svg11.dtd">
<!-- Generated by graphviz version 2.43.0 (0)
 -->
<!-- Title: Mediwatch.Server.Migrations.DbContextMediwatchMigrations.DbContextMediwatchModelSnapshot Pages: 1 -->
<svg width="198pt" height="182pt"
 viewBox="0.00 0.00 198.00 182.00" xmlns="http://www.w3.org/2000/svg" xmlns:xlink="http://www.w3.org/1999/xlink">
<g id="graph0" class="graph" transform="scale(1 1) rotate(0) translate(4 178)">
<title>Mediwatch.Server.Migrations.DbContextMediwatchMigrations.DbContextMediwatchModelSnapshot</title>
<polygon fill="white" stroke="transparent" points="-4,4 -4,-178 194,-178 194,4 -4,4"/>
<!-- Node1 -->
<g id="node1" class="node">
<title>Node1</title>
<g id="a_node1"><a xlink:title=" ">
<polygon fill="#bfbfbf" stroke="black" points="0,-0.5 0,-79.5 190,-79.5 190,-0.5 0,-0.5"/>
<text text-anchor="start" x="8" y="-67.5" font-family="Helvetica,sans-Serif" font-size="10.00">Mediwatch.Server.Migrations.</text>
<text text-anchor="start" x="8" y="-56.5" font-family="Helvetica,sans-Serif" font-size="10.00">DbContextMediwatchMigrations.Db</text>
<text text-anchor="middle" x="95" y="-45.5" font-family="Helvetica,sans-Serif" font-size="10.00">ContextMediwatchModelSnapshot</text>
<polyline fill="none" stroke="black" points="0,-38.5 190,-38.5 "/>
<text text-anchor="middle" x="95" y="-26.5" font-family="Helvetica,sans-Serif" font-size="10.00"> </text>
<polyline fill="none" stroke="black" points="0,-19.5 190,-19.5 "/>
<text text-anchor="start" x="8" y="-7.5" font-family="Helvetica,sans-Serif" font-size="10.00"># BuildModel()</text>
</a>
</g>
</g>
<!-- Node2 -->
<g id="node2" class="node">
<title>Node2</title>
<g id="a_node2"><a xlink:title=" ">
<polygon fill="white" stroke="#bfbfbf" points="49,-116.5 49,-173.5 141,-173.5 141,-116.5 49,-116.5"/>
<text text-anchor="middle" x="95" y="-161.5" font-family="Helvetica,sans-Serif" font-size="10.00">ModelSnapshot</text>
<polyline fill="none" stroke="#bfbfbf" points="49,-154.5 141,-154.5 "/>
<text text-anchor="middle" x="95" y="-142.5" font-family="Helvetica,sans-Serif" font-size="10.00"> </text>
<polyline fill="none" stroke="#bfbfbf" points="49,-135.5 141,-135.5 "/>
<text text-anchor="middle" x="95" y="-123.5" font-family="Helvetica,sans-Serif" font-size="10.00"> </text>
</a>
</g>
</g>
<!-- Node2&#45;&gt;Node1 -->
<g id="edge1" class="edge">
<title>Node2&#45;&gt;Node1</title>
<path fill="none" stroke="midnightblue" d="M95,-106.16C95,-97.47 95,-88.23 95,-79.52"/>
<polygon fill="none" stroke="midnightblue" points="91.5,-106.4 95,-116.4 98.5,-106.4 91.5,-106.4"/>
</g>
</g>
</svg>
