<?xml version="1.0" encoding="UTF-8" standalone="no"?>
<!DOCTYPE svg PUBLIC "-//W3C//DTD SVG 1.1//EN"
 "http://www.w3.org/Graphics/SVG/1.1/DTD/svg11.dtd">
<!-- Generated by graphviz version 2.40.1 (20161225.0304)
 -->
<!-- Title: BlazingBlog.Server.Controllers.BlogUtilsController Pages: 1 -->
<svg width="161pt" height="193pt"
 viewBox="0.00 0.00 161.00 193.00" xmlns="http://www.w3.org/2000/svg" xmlns:xlink="http://www.w3.org/1999/xlink">
<g id="graph0" class="graph" transform="scale(1 1) rotate(0) translate(4 189)">
<title>BlazingBlog.Server.Controllers.BlogUtilsController</title>
<polygon fill="#ffffff" stroke="transparent" points="-4,4 -4,-189 157,-189 157,4 -4,4"/>
<!-- Node2 -->
<g id="node1" class="node">
<title>Node2</title>
<polygon fill="#bfbfbf" stroke="#000000" points="0,-.5 0,-90.5 153,-90.5 153,-.5 0,-.5"/>
<text text-anchor="start" x="8" y="-78.5" font-family="Helvetica,sans-Serif" font-size="10.00" fill="#000000">BlazingBlog.Server.Controllers.</text>
<text text-anchor="middle" x="76.5" y="-67.5" font-family="Helvetica,sans-Serif" font-size="10.00" fill="#000000">BlogUtilsController</text>
<polyline fill="none" stroke="#000000" points="0,-60.5 153,-60.5 "/>
<text text-anchor="middle" x="76.5" y="-48.5" font-family="Helvetica,sans-Serif" font-size="10.00" fill="#000000"> </text>
<polyline fill="none" stroke="#000000" points="0,-41.5 153,-41.5 "/>
<text text-anchor="start" x="8" y="-29.5" font-family="Helvetica,sans-Serif" font-size="10.00" fill="#000000">+ UploadImage()</text>
<text text-anchor="start" x="8" y="-18.5" font-family="Helvetica,sans-Serif" font-size="10.00" fill="#000000">+ GetImage()</text>
<text text-anchor="start" x="8" y="-7.5" font-family="Helvetica,sans-Serif" font-size="10.00" fill="#000000">+ GetLinInfo()</text>
</g>
<!-- Node3 -->
<g id="node2" class="node">
<title>Node3</title>
<polygon fill="#ffffff" stroke="#bfbfbf" points="36,-127.5 36,-184.5 117,-184.5 117,-127.5 36,-127.5"/>
<text text-anchor="middle" x="76.5" y="-172.5" font-family="Helvetica,sans-Serif" font-size="10.00" fill="#000000">ControllerBase</text>
<polyline fill="none" stroke="#bfbfbf" points="36,-165.5 117,-165.5 "/>
<text text-anchor="middle" x="76.5" y="-153.5" font-family="Helvetica,sans-Serif" font-size="10.00" fill="#000000"> </text>
<polyline fill="none" stroke="#bfbfbf" points="36,-146.5 117,-146.5 "/>
<text text-anchor="middle" x="76.5" y="-134.5" font-family="Helvetica,sans-Serif" font-size="10.00" fill="#000000"> </text>
</g>
<!-- Node3&#45;&gt;Node2 -->
<g id="edge1" class="edge">
<title>Node3&#45;&gt;Node2</title>
<path fill="none" stroke="#191970" d="M76.5,-117.1977C76.5,-108.667 76.5,-99.5607 76.5,-90.7995"/>
<polygon fill="none" stroke="#191970" points="73.0001,-117.2559 76.5,-127.2559 80.0001,-117.2559 73.0001,-117.2559"/>
</g>
</g>
</svg>
