<?xml version="1.0" encoding="UTF-8" standalone="no"?>
<!DOCTYPE svg PUBLIC "-//W3C//DTD SVG 1.1//EN"
 "http://www.w3.org/Graphics/SVG/1.1/DTD/svg11.dtd">
<!-- Generated by graphviz version 2.43.0 (0)
 -->
<!-- Title: Mediwatch.Server.Areas.Identity.Data.IdentityDataContext Pages: 1 -->
<svg width="184pt" height="226pt"
 viewBox="0.00 0.00 184.00 226.00" xmlns="http://www.w3.org/2000/svg" xmlns:xlink="http://www.w3.org/1999/xlink">
<g id="graph0" class="graph" transform="scale(1 1) rotate(0) translate(4 222)">
<title>Mediwatch.Server.Areas.Identity.Data.IdentityDataContext</title>
<polygon fill="white" stroke="transparent" points="-4,4 -4,-222 180,-222 180,4 -4,4"/>
<!-- Node1 -->
<g id="node1" class="node">
<title>Node1</title>
<g id="a_node1"><a xlink:title=" ">
<polygon fill="#bfbfbf" stroke="black" points="0,-0.5 0,-90.5 176,-90.5 176,-0.5 0,-0.5"/>
<text text-anchor="start" x="8" y="-78.5" font-family="Helvetica,sans-Serif" font-size="10.00">Mediwatch.Server.Areas.Identity.</text>
<text text-anchor="middle" x="88" y="-67.5" font-family="Helvetica,sans-Serif" font-size="10.00">Data.IdentityDataContext</text>
<polyline fill="none" stroke="black" points="0,-60.5 176,-60.5 "/>
<text text-anchor="middle" x="88" y="-48.5" font-family="Helvetica,sans-Serif" font-size="10.00"> </text>
<polyline fill="none" stroke="black" points="0,-41.5 176,-41.5 "/>
<text text-anchor="start" x="8" y="-29.5" font-family="Helvetica,sans-Serif" font-size="10.00">+ IdentityDataContext()</text>
<text text-anchor="start" x="8" y="-18.5" font-family="Helvetica,sans-Serif" font-size="10.00"># OnConfiguring()</text>
<text text-anchor="start" x="8" y="-7.5" font-family="Helvetica,sans-Serif" font-size="10.00"># OnModelCreating()</text>
</a>
</g>
</g>
<!-- Node2 -->
<g id="node2" class="node">
<title>Node2</title>
<g id="a_node2"><a xlink:title=" ">
<polygon fill="white" stroke="#bfbfbf" points="24.5,-127.5 24.5,-217.5 151.5,-217.5 151.5,-127.5 24.5,-127.5"/>
<text text-anchor="start" x="32.5" y="-205.5" font-family="Helvetica,sans-Serif" font-size="10.00">IdentityDbContext&lt;</text>
<text text-anchor="start" x="32.5" y="-194.5" font-family="Helvetica,sans-Serif" font-size="10.00"> IdentityUser&lt; Guid</text>
<text text-anchor="start" x="32.5" y="-183.5" font-family="Helvetica,sans-Serif" font-size="10.00"> &gt;, IdentityRole&lt; Guid</text>
<text text-anchor="middle" x="88" y="-172.5" font-family="Helvetica,sans-Serif" font-size="10.00"> &gt;, Guid &gt;</text>
<polyline fill="none" stroke="#bfbfbf" points="24.5,-165.5 151.5,-165.5 "/>
<text text-anchor="middle" x="88" y="-153.5" font-family="Helvetica,sans-Serif" font-size="10.00"> </text>
<polyline fill="none" stroke="#bfbfbf" points="24.5,-146.5 151.5,-146.5 "/>
<text text-anchor="middle" x="88" y="-134.5" font-family="Helvetica,sans-Serif" font-size="10.00"> </text>
</a>
</g>
</g>
<!-- Node2&#45;&gt;Node1 -->
<g id="edge1" class="edge">
<title>Node2&#45;&gt;Node1</title>
<path fill="none" stroke="midnightblue" d="M88,-117.16C88,-108.28 88,-99.18 88,-90.59"/>
<polygon fill="none" stroke="midnightblue" points="84.5,-117.43 88,-127.43 91.5,-117.43 84.5,-117.43"/>
</g>
</g>
</svg>
