<?xml version="1.0" encoding="UTF-8" standalone="no"?>
<!DOCTYPE svg PUBLIC "-//W3C//DTD SVG 1.1//EN"
 "http://www.w3.org/Graphics/SVG/1.1/DTD/svg11.dtd">
<!-- Generated by graphviz version 2.40.1 (20161225.0304)
 -->
<!-- Title: Mediwatch.Server.Areas.Identity.Data.IdentityDataContext Pages: 1 -->
<svg width="170pt" height="226pt"
 viewBox="0.00 0.00 170.00 226.00" xmlns="http://www.w3.org/2000/svg" xmlns:xlink="http://www.w3.org/1999/xlink">
<g id="graph0" class="graph" transform="scale(1 1) rotate(0) translate(4 222)">
<title>Mediwatch.Server.Areas.Identity.Data.IdentityDataContext</title>
<polygon fill="#ffffff" stroke="transparent" points="-4,4 -4,-222 166,-222 166,4 -4,4"/>
<!-- Node2 -->
<g id="node1" class="node">
<title>Node2</title>
<polygon fill="#bfbfbf" stroke="#000000" points="0,-.5 0,-90.5 162,-90.5 162,-.5 0,-.5"/>
<text text-anchor="start" x="8" y="-78.5" font-family="Helvetica,sans-Serif" font-size="10.00" fill="#000000">Mediwatch.Server.Areas.Identity.</text>
<text text-anchor="middle" x="81" y="-67.5" font-family="Helvetica,sans-Serif" font-size="10.00" fill="#000000">Data.IdentityDataContext</text>
<polyline fill="none" stroke="#000000" points="0,-60.5 162,-60.5 "/>
<text text-anchor="middle" x="81" y="-48.5" font-family="Helvetica,sans-Serif" font-size="10.00" fill="#000000"> </text>
<polyline fill="none" stroke="#000000" points="0,-41.5 162,-41.5 "/>
<text text-anchor="start" x="8" y="-29.5" font-family="Helvetica,sans-Serif" font-size="10.00" fill="#000000">+ IdentityDataContext()</text>
<text text-anchor="start" x="8" y="-18.5" font-family="Helvetica,sans-Serif" font-size="10.00" fill="#000000"># OnConfiguring()</text>
<text text-anchor="start" x="8" y="-7.5" font-family="Helvetica,sans-Serif" font-size="10.00" fill="#000000"># OnModelCreating()</text>
</g>
<!-- Node3 -->
<g id="node2" class="node">
<title>Node3</title>
<polygon fill="#ffffff" stroke="#bfbfbf" points="24.5,-127.5 24.5,-217.5 137.5,-217.5 137.5,-127.5 24.5,-127.5"/>
<text text-anchor="start" x="32.5" y="-205.5" font-family="Helvetica,sans-Serif" font-size="10.00" fill="#000000">IdentityDbContext&lt;</text>
<text text-anchor="start" x="32.5" y="-194.5" font-family="Helvetica,sans-Serif" font-size="10.00" fill="#000000"> IdentityUser&lt; Guid</text>
<text text-anchor="start" x="32.5" y="-183.5" font-family="Helvetica,sans-Serif" font-size="10.00" fill="#000000"> &gt;, IdentityRole&lt; Guid</text>
<text text-anchor="middle" x="81" y="-172.5" font-family="Helvetica,sans-Serif" font-size="10.00" fill="#000000"> &gt;, Guid &gt;</text>
<polyline fill="none" stroke="#bfbfbf" points="24.5,-165.5 137.5,-165.5 "/>
<text text-anchor="middle" x="81" y="-153.5" font-family="Helvetica,sans-Serif" font-size="10.00" fill="#000000"> </text>
<polyline fill="none" stroke="#bfbfbf" points="24.5,-146.5 137.5,-146.5 "/>
<text text-anchor="middle" x="81" y="-134.5" font-family="Helvetica,sans-Serif" font-size="10.00" fill="#000000"> </text>
</g>
<!-- Node3&#45;&gt;Node2 -->
<g id="edge1" class="edge">
<title>Node3&#45;&gt;Node2</title>
<path fill="none" stroke="#191970" d="M81,-117.2012C81,-108.4232 81,-99.4326 81,-90.9156"/>
<polygon fill="none" stroke="#191970" points="77.5001,-117.3669 81,-127.367 84.5001,-117.367 77.5001,-117.3669"/>
</g>
</g>
</svg>
