<?xml version="1.0" encoding="UTF-8" standalone="no"?>
<!DOCTYPE svg PUBLIC "-//W3C//DTD SVG 1.1//EN"
 "http://www.w3.org/Graphics/SVG/1.1/DTD/svg11.dtd">
<!-- Generated by graphviz version 2.43.0 (0)
 -->
<!-- Title: Graphe hiérarchique des classes Pages: 1 -->
<svg width="300pt" height="578pt"
 viewBox="0.00 0.00 300.00 578.00" xmlns="http://www.w3.org/2000/svg" xmlns:xlink="http://www.w3.org/1999/xlink">
<g id="graph0" class="graph" transform="scale(1 1) rotate(0) translate(4 574)">
<title>Graphe hiérarchique des classes</title>
<polygon fill="white" stroke="transparent" points="-4,4 -4,-574 296,-574 296,4 -4,4"/>
<!-- Node28 -->
<g id="node1" class="node">
<title>Node28</title>
<g id="a_node1"><a xlink:title=" ">
<polygon fill="white" stroke="#bfbfbf" points="0,-275 0,-294 89,-294 89,-275 0,-275"/>
<text text-anchor="middle" x="44.5" y="-282" font-family="Helvetica,sans-Serif" font-size="10.00">ControllerBase</text>
</a>
</g>
</g>
<!-- Node0 -->
<g id="node2" class="node">
<title>Node0</title>
<g id="a_node2"><a xlink:href="class_blazing_blog_1_1_server_1_1_controllers_1_1_articles_controller.html" target="_top" xlink:title=" ">
<polygon fill="white" stroke="black" points="125,-539.5 125,-569.5 292,-569.5 292,-539.5 125,-539.5"/>
<text text-anchor="start" x="133" y="-557.5" font-family="Helvetica,sans-Serif" font-size="10.00">BlazingBlog.Server.Controllers.</text>
<text text-anchor="middle" x="208.5" y="-546.5" font-family="Helvetica,sans-Serif" font-size="10.00">ArticlesController</text>
</a>
</g>
</g>
<!-- Node28&#45;&gt;Node0 -->
<g id="edge1" class="edge">
<title>Node28&#45;&gt;Node0</title>
<path fill="none" stroke="midnightblue" d="M45.94,-304.36C48.07,-350.82 59.99,-467.38 125,-530.5 128.53,-533.93 132.52,-536.87 136.8,-539.4"/>
<polygon fill="midnightblue" stroke="midnightblue" points="49.43,-304.01 45.58,-294.14 42.43,-304.26 49.43,-304.01"/>
</g>
<!-- Node30 -->
<g id="node3" class="node">
<title>Node30</title>
<g id="a_node3"><a xlink:href="class_blazing_blog_1_1_server_1_1_controllers_1_1_blog_utils_controller.html" target="_top" xlink:title=" ">
<polygon fill="white" stroke="black" points="125,-490.5 125,-520.5 292,-520.5 292,-490.5 125,-490.5"/>
<text text-anchor="start" x="133" y="-508.5" font-family="Helvetica,sans-Serif" font-size="10.00">BlazingBlog.Server.Controllers.</text>
<text text-anchor="middle" x="208.5" y="-497.5" font-family="Helvetica,sans-Serif" font-size="10.00">BlogUtilsController</text>
</a>
</g>
</g>
<!-- Node28&#45;&gt;Node30 -->
<g id="edge2" class="edge">
<title>Node28&#45;&gt;Node30</title>
<path fill="none" stroke="midnightblue" d="M47.79,-304.39C53.42,-344.04 71.6,-433.22 125,-481.5 128.76,-484.9 132.98,-487.82 137.47,-490.33"/>
<polygon fill="midnightblue" stroke="midnightblue" points="51.25,-303.86 46.49,-294.39 44.31,-304.76 51.25,-303.86"/>
</g>
<!-- Node31 -->
<g id="node4" class="node">
<title>Node31</title>
<g id="a_node4"><a xlink:href="class_mediwatch_1_1_server_1_1_controllers_1_1_account_controller.html" target="_top" xlink:title=" ">
<polygon fill="white" stroke="black" points="127,-441.5 127,-471.5 290,-471.5 290,-441.5 127,-441.5"/>
<text text-anchor="start" x="135" y="-459.5" font-family="Helvetica,sans-Serif" font-size="10.00">Mediwatch.Server.Controllers.</text>
<text text-anchor="middle" x="208.5" y="-448.5" font-family="Helvetica,sans-Serif" font-size="10.00">AccountController</text>
</a>
</g>
</g>
<!-- Node28&#45;&gt;Node31 -->
<g id="edge3" class="edge">
<title>Node28&#45;&gt;Node31</title>
<path fill="none" stroke="midnightblue" d="M50.61,-303.96C59.96,-335.66 82.82,-398.36 125,-432.5 129.29,-435.97 134.06,-438.94 139.09,-441.48"/>
<polygon fill="midnightblue" stroke="midnightblue" points="53.93,-302.82 47.86,-294.13 47.19,-304.71 53.93,-302.82"/>
</g>
<!-- Node32 -->
<g id="node5" class="node">
<title>Node32</title>
<g id="a_node5"><a xlink:href="class_mediwatch_1_1_server_1_1_controllers_1_1_applicant_session_controller.html" target="_top" xlink:title=" ">
<polygon fill="white" stroke="black" points="127,-392.5 127,-422.5 290,-422.5 290,-392.5 127,-392.5"/>
<text text-anchor="start" x="135" y="-410.5" font-family="Helvetica,sans-Serif" font-size="10.00">Mediwatch.Server.Controllers.</text>
<text text-anchor="middle" x="208.5" y="-399.5" font-family="Helvetica,sans-Serif" font-size="10.00">ApplicantSessionController</text>
</a>
</g>
</g>
<!-- Node28&#45;&gt;Node32 -->
<g id="edge4" class="edge">
<title>Node28&#45;&gt;Node32</title>
<path fill="none" stroke="midnightblue" d="M55.47,-302.84C68.53,-325.17 93.54,-362.5 125,-383.5 130.09,-386.9 135.66,-389.82 141.43,-392.34"/>
<polygon fill="midnightblue" stroke="midnightblue" points="58.44,-300.99 50.47,-294.01 52.35,-304.44 58.44,-300.99"/>
</g>
<!-- Node33 -->
<g id="node6" class="node">
<title>Node33</title>
<g id="a_node6"><a xlink:href="class_mediwatch_1_1_server_1_1_controllers_1_1_compagny_controller.html" target="_top" xlink:title=" ">
<polygon fill="white" stroke="black" points="127,-343.5 127,-373.5 290,-373.5 290,-343.5 127,-343.5"/>
<text text-anchor="start" x="135" y="-361.5" font-family="Helvetica,sans-Serif" font-size="10.00">Mediwatch.Server.Controllers.</text>
<text text-anchor="middle" x="208.5" y="-350.5" font-family="Helvetica,sans-Serif" font-size="10.00">CompagnyController</text>
</a>
</g>
</g>
<!-- Node28&#45;&gt;Node33 -->
<g id="edge5" class="edge">
<title>Node28&#45;&gt;Node33</title>
<path fill="none" stroke="midnightblue" d="M66.71,-300.13C82.22,-310.98 104.11,-325.12 125,-334.5 132.35,-337.8 140.27,-340.78 148.19,-343.42"/>
<polygon fill="midnightblue" stroke="midnightblue" points="68.54,-297.14 58.37,-294.18 64.48,-302.84 68.54,-297.14"/>
</g>
<!-- Node34 -->
<g id="node7" class="node">
<title>Node34</title>
<g id="a_node7"><a xlink:href="class_mediwatch_1_1_server_1_1_controllers_1_1_formation_controller.html" target="_top" xlink:title=" ">
<polygon fill="white" stroke="black" points="127,-294.5 127,-324.5 290,-324.5 290,-294.5 127,-294.5"/>
<text text-anchor="start" x="135" y="-312.5" font-family="Helvetica,sans-Serif" font-size="10.00">Mediwatch.Server.Controllers.</text>
<text text-anchor="middle" x="208.5" y="-301.5" font-family="Helvetica,sans-Serif" font-size="10.00">FormationController</text>
</a>
</g>
</g>
<!-- Node28&#45;&gt;Node34 -->
<g id="edge6" class="edge">
<title>Node28&#45;&gt;Node34</title>
<path fill="none" stroke="midnightblue" d="M99.42,-292.82C108.23,-294.18 117.51,-295.61 126.79,-297.05"/>
<polygon fill="midnightblue" stroke="midnightblue" points="99.76,-289.33 89.34,-291.27 98.69,-296.25 99.76,-289.33"/>
</g>
<!-- Node35 -->
<g id="node8" class="node">
<title>Node35</title>
<g id="a_node8"><a xlink:href="class_mediwatch_1_1_server_1_1_controllers_1_1_join_tag_formation_controller.html" target="_top" xlink:title=" ">
<polygon fill="white" stroke="black" points="127,-245.5 127,-275.5 290,-275.5 290,-245.5 127,-245.5"/>
<text text-anchor="start" x="135" y="-263.5" font-family="Helvetica,sans-Serif" font-size="10.00">Mediwatch.Server.Controllers.</text>
<text text-anchor="middle" x="208.5" y="-252.5" font-family="Helvetica,sans-Serif" font-size="10.00">JoinTagFormationController</text>
</a>
</g>
</g>
<!-- Node28&#45;&gt;Node35 -->
<g id="edge7" class="edge">
<title>Node28&#45;&gt;Node35</title>
<path fill="none" stroke="midnightblue" d="M99.42,-276.51C108.23,-275.21 117.51,-273.83 126.79,-272.46"/>
<polygon fill="midnightblue" stroke="midnightblue" points="98.72,-273.08 89.34,-278.01 99.74,-280 98.72,-273.08"/>
</g>
<!-- Node36 -->
<g id="node9" class="node">
<title>Node36</title>
<g id="a_node9"><a xlink:href="class_mediwatch_1_1_server_1_1_controllers_1_1_order_controller.html" target="_top" xlink:title=" ">
<polygon fill="white" stroke="black" points="127,-196.5 127,-226.5 290,-226.5 290,-196.5 127,-196.5"/>
<text text-anchor="start" x="135" y="-214.5" font-family="Helvetica,sans-Serif" font-size="10.00">Mediwatch.Server.Controllers.</text>
<text text-anchor="middle" x="208.5" y="-203.5" font-family="Helvetica,sans-Serif" font-size="10.00">OrderController</text>
</a>
</g>
</g>
<!-- Node28&#45;&gt;Node36 -->
<g id="edge8" class="edge">
<title>Node28&#45;&gt;Node36</title>
<path fill="none" stroke="midnightblue" d="M67.39,-269.24C82.92,-258.93 104.56,-245.6 125,-236.5 133.2,-232.85 142.09,-229.54 150.9,-226.6"/>
<polygon fill="midnightblue" stroke="midnightblue" points="65.33,-266.41 59,-274.91 69.25,-272.21 65.33,-266.41"/>
</g>
<!-- Node37 -->
<g id="node10" class="node">
<title>Node37</title>
<g id="a_node10"><a xlink:href="class_mediwatch_1_1_server_1_1_controllers_1_1_tag_controller.html" target="_top" xlink:title=" ">
<polygon fill="white" stroke="black" points="127,-147.5 127,-177.5 290,-177.5 290,-147.5 127,-147.5"/>
<text text-anchor="start" x="135" y="-165.5" font-family="Helvetica,sans-Serif" font-size="10.00">Mediwatch.Server.Controllers.</text>
<text text-anchor="middle" x="208.5" y="-154.5" font-family="Helvetica,sans-Serif" font-size="10.00">TagController</text>
</a>
</g>
</g>
<!-- Node28&#45;&gt;Node37 -->
<g id="edge9" class="edge">
<title>Node28&#45;&gt;Node37</title>
<path fill="none" stroke="midnightblue" d="M55.8,-266.26C69.05,-244.41 94.09,-208.16 125,-187.5 130.72,-183.67 137.05,-180.42 143.59,-177.65"/>
<polygon fill="midnightblue" stroke="midnightblue" points="52.76,-264.53 50.71,-274.92 58.79,-268.07 52.76,-264.53"/>
</g>
<!-- Node38 -->
<g id="node11" class="node">
<title>Node38</title>
<g id="a_node11"><a xlink:href="class_mediwatch_1_1_server_1_1_controllers_1_1_users_controller.html" target="_top" xlink:title=" ">
<polygon fill="white" stroke="black" points="127,-98.5 127,-128.5 290,-128.5 290,-98.5 127,-98.5"/>
<text text-anchor="start" x="135" y="-116.5" font-family="Helvetica,sans-Serif" font-size="10.00">Mediwatch.Server.Controllers.</text>
<text text-anchor="middle" x="208.5" y="-105.5" font-family="Helvetica,sans-Serif" font-size="10.00">UsersController</text>
</a>
</g>
</g>
<!-- Node28&#45;&gt;Node38 -->
<g id="edge10" class="edge">
<title>Node28&#45;&gt;Node38</title>
<path fill="none" stroke="midnightblue" d="M50.87,-264.9C60.47,-233.55 83.55,-172.24 125,-138.5 129.76,-134.63 135.11,-131.35 140.74,-128.59"/>
<polygon fill="midnightblue" stroke="midnightblue" points="47.47,-264.07 48.03,-274.65 54.19,-266.03 47.47,-264.07"/>
</g>
<!-- Node39 -->
<g id="node12" class="node">
<title>Node39</title>
<g id="a_node12"><a xlink:href="class_mediwatch_1_1_server_1_1_controllers_1_1_weather_forecast_controller.html" target="_top" xlink:title=" ">
<polygon fill="white" stroke="black" points="127,-49.5 127,-79.5 290,-79.5 290,-49.5 127,-49.5"/>
<text text-anchor="start" x="135" y="-67.5" font-family="Helvetica,sans-Serif" font-size="10.00">Mediwatch.Server.Controllers.</text>
<text text-anchor="middle" x="208.5" y="-56.5" font-family="Helvetica,sans-Serif" font-size="10.00">WeatherForecastController</text>
</a>
</g>
</g>
<!-- Node28&#45;&gt;Node39 -->
<g id="edge11" class="edge">
<title>Node28&#45;&gt;Node39</title>
<path fill="none" stroke="midnightblue" d="M47.93,-264.6C53.8,-225.32 72.36,-137.46 125,-89.5 129.2,-85.67 133.98,-82.43 139.06,-79.68"/>
<polygon fill="midnightblue" stroke="midnightblue" points="44.44,-264.35 46.55,-274.73 51.37,-265.3 44.44,-264.35"/>
</g>
<!-- Node40 -->
<g id="node13" class="node">
<title>Node40</title>
<g id="a_node13"><a xlink:href="class_server_1_1_controllers_1_1_admin_manager.html" target="_top" xlink:title=" ">
<polygon fill="white" stroke="black" points="139.5,-0.5 139.5,-30.5 277.5,-30.5 277.5,-0.5 139.5,-0.5"/>
<text text-anchor="start" x="147.5" y="-18.5" font-family="Helvetica,sans-Serif" font-size="10.00">Server.Controllers.Admin</text>
<text text-anchor="middle" x="208.5" y="-7.5" font-family="Helvetica,sans-Serif" font-size="10.00">Manager</text>
</a>
</g>
</g>
<!-- Node28&#45;&gt;Node40 -->
<g id="edge12" class="edge">
<title>Node28&#45;&gt;Node40</title>
<path fill="none" stroke="midnightblue" d="M46.04,-264.84C48.39,-218.86 60.74,-103.44 125,-40.5 129.17,-36.42 133.98,-33 139.15,-30.13"/>
<polygon fill="midnightblue" stroke="midnightblue" points="42.54,-264.83 45.63,-274.96 49.53,-265.11 42.54,-264.83"/>
</g>
</g>
</svg>
