<?xml version="1.0" encoding="UTF-8" standalone="no"?>
<!DOCTYPE svg PUBLIC "-//W3C//DTD SVG 1.1//EN"
 "http://www.w3.org/Graphics/SVG/1.1/DTD/svg11.dtd">
<!-- Generated by graphviz version 2.40.1 (20161225.0304)
 -->
<!-- Title: Graphe hiérarchique des classes Pages: 1 -->
<svg width="288pt" height="220pt"
 viewBox="0.00 0.00 288.00 219.50" xmlns="http://www.w3.org/2000/svg" xmlns:xlink="http://www.w3.org/1999/xlink">
<g id="graph0" class="graph" transform="scale(1 1) rotate(0) translate(4 215.5)">
<title>Graphe hiérarchique des classes</title>
<polygon fill="#ffffff" stroke="transparent" points="-4,4 -4,-215.5 284,-215.5 284,4 -4,4"/>
<!-- Node7 -->
<g id="node1" class="node">
<title>Node7</title>
<polygon fill="#ffffff" stroke="#bfbfbf" points="0,-101.5 0,-120.5 56,-120.5 56,-101.5 0,-101.5"/>
<text text-anchor="middle" x="28" y="-108.5" font-family="Helvetica,sans-Serif" font-size="10.00" fill="#000000">Migration</text>
</g>
<!-- Node0 -->
<g id="node2" class="node">
<title>Node0</title>
<g id="a_node2"><a xlink:href="class_mediwatch_1_1_server_1_1_migrations_1_1_create_identity_schema.html" target="_top" xlink:title="Mediwatch.Server.Migrations.\lCreateIdentitySchema">
<polygon fill="#ffffff" stroke="#000000" points="113,-181 113,-211 259,-211 259,-181 113,-181"/>
<text text-anchor="start" x="121" y="-199" font-family="Helvetica,sans-Serif" font-size="10.00" fill="#000000">Mediwatch.Server.Migrations.</text>
<text text-anchor="middle" x="186" y="-188" font-family="Helvetica,sans-Serif" font-size="10.00" fill="#000000">CreateIdentitySchema</text>
</a>
</g>
</g>
<!-- Node7&#45;&gt;Node0 -->
<g id="edge1" class="edge">
<title>Node7&#45;&gt;Node0</title>
<path fill="none" stroke="#191970" d="M42.181,-128.35C54.1257,-141.8662 72.3687,-160.1079 92,-171 98.9401,-174.8506 106.5003,-178.13 114.219,-180.9181"/>
<polygon fill="#191970" stroke="#191970" points="44.7597,-125.9801 35.6016,-120.6529 39.4387,-130.5285 44.7597,-125.9801"/>
</g>
<!-- Node9 -->
<g id="node3" class="node">
<title>Node9</title>
<g id="a_node3"><a xlink:href="class_mediwatch_1_1_server_1_1_migrations_1_1_db_context_mediwatch_migrations_1_1_create_mediwatch_db.html" target="_top" xlink:title="Mediwatch.Server.Migrations.\lDbContextMediwatchMigrations.Create\lMediwatchDb">
<polygon fill="#ffffff" stroke="#000000" points="92,-120.5 92,-161.5 280,-161.5 280,-120.5 92,-120.5"/>
<text text-anchor="start" x="100" y="-149.5" font-family="Helvetica,sans-Serif" font-size="10.00" fill="#000000">Mediwatch.Server.Migrations.</text>
<text text-anchor="start" x="100" y="-138.5" font-family="Helvetica,sans-Serif" font-size="10.00" fill="#000000">DbContextMediwatchMigrations.Create</text>
<text text-anchor="middle" x="186" y="-127.5" font-family="Helvetica,sans-Serif" font-size="10.00" fill="#000000">MediwatchDb</text>
</a>
</g>
</g>
<!-- Node7&#45;&gt;Node9 -->
<g id="edge2" class="edge">
<title>Node7&#45;&gt;Node9</title>
<path fill="none" stroke="#191970" d="M66.1738,-118.2482C74.0858,-119.7505 82.7511,-121.3958 91.6883,-123.0927"/>
<polygon fill="#191970" stroke="#191970" points="66.7246,-114.7903 56.2472,-116.3634 65.4188,-121.6675 66.7246,-114.7903"/>
</g>
<!-- Node10 -->
<g id="node4" class="node">
<title>Node10</title>
<g id="a_node4"><a xlink:href="class_mediwatch_1_1_server_1_1_migrations_1_1_db_context_mediwatch_migrations_1_1_create_mediwatch_db1.html" target="_top" xlink:title="Mediwatch.Server.Migrations.\lDbContextMediwatchMigrations.Create\lMediwatchDb1">
<polygon fill="#ffffff" stroke="#000000" points="92,-60.5 92,-101.5 280,-101.5 280,-60.5 92,-60.5"/>
<text text-anchor="start" x="100" y="-89.5" font-family="Helvetica,sans-Serif" font-size="10.00" fill="#000000">Mediwatch.Server.Migrations.</text>
<text text-anchor="start" x="100" y="-78.5" font-family="Helvetica,sans-Serif" font-size="10.00" fill="#000000">DbContextMediwatchMigrations.Create</text>
<text text-anchor="middle" x="186" y="-67.5" font-family="Helvetica,sans-Serif" font-size="10.00" fill="#000000">MediwatchDb1</text>
</a>
</g>
</g>
<!-- Node7&#45;&gt;Node10 -->
<g id="edge3" class="edge">
<title>Node7&#45;&gt;Node10</title>
<path fill="none" stroke="#191970" d="M66.1738,-103.7518C74.0858,-102.2495 82.7511,-100.6042 91.6883,-98.9073"/>
<polygon fill="#191970" stroke="#191970" points="65.4188,-100.3325 56.2472,-105.6366 66.7246,-107.2097 65.4188,-100.3325"/>
</g>
<!-- Node11 -->
<g id="node5" class="node">
<title>Node11</title>
<g id="a_node5"><a xlink:href="class_mediwatch_1_1_server_1_1_migrations_1_1_db_context_mediwatch_migrations_1_1_create_mediwatch_db3.html" target="_top" xlink:title="Mediwatch.Server.Migrations.\lDbContextMediwatchMigrations.Create\lMediwatchDb3">
<polygon fill="#ffffff" stroke="#000000" points="92,-.5 92,-41.5 280,-41.5 280,-.5 92,-.5"/>
<text text-anchor="start" x="100" y="-29.5" font-family="Helvetica,sans-Serif" font-size="10.00" fill="#000000">Mediwatch.Server.Migrations.</text>
<text text-anchor="start" x="100" y="-18.5" font-family="Helvetica,sans-Serif" font-size="10.00" fill="#000000">DbContextMediwatchMigrations.Create</text>
<text text-anchor="middle" x="186" y="-7.5" font-family="Helvetica,sans-Serif" font-size="10.00" fill="#000000">MediwatchDb3</text>
</a>
</g>
</g>
<!-- Node7&#45;&gt;Node11 -->
<g id="edge4" class="edge">
<title>Node7&#45;&gt;Node11</title>
<path fill="none" stroke="#191970" d="M42.736,-93.4554C54.768,-80.1316 72.8589,-62.2419 92,-51 97.9085,-47.5298 104.2655,-44.4117 110.7866,-41.6203"/>
<polygon fill="#191970" stroke="#191970" points="40.0297,-91.2331 36.0721,-101.0611 45.2947,-95.8462 40.0297,-91.2331"/>
</g>
</g>
</svg>
