<?xml version="1.0" encoding="UTF-8" standalone="no"?>
<!DOCTYPE svg PUBLIC "-//W3C//DTD SVG 1.1//EN"
 "http://www.w3.org/Graphics/SVG/1.1/DTD/svg11.dtd">
<!-- Generated by graphviz version 2.40.1 (20161225.0304)
 -->
<!-- Title: Graphe hiérarchique des classes Pages: 1 -->
<svg width="287pt" height="100pt"
 viewBox="0.00 0.00 287.00 99.50" xmlns="http://www.w3.org/2000/svg" xmlns:xlink="http://www.w3.org/1999/xlink">
<g id="graph0" class="graph" transform="scale(1 1) rotate(0) translate(4 95.5)">
<title>Graphe hiérarchique des classes</title>
<polygon fill="#ffffff" stroke="transparent" points="-4,4 -4,-95.5 283,-95.5 283,4 -4,4"/>
<!-- Node7 -->
<g id="node1" class="node">
<title>Node7</title>
<polygon fill="#ffffff" stroke="#bfbfbf" points="0,-33 0,-52 56,-52 56,-33 0,-33"/>
<text text-anchor="middle" x="28" y="-40" font-family="Helvetica,sans-Serif" font-size="10.00" fill="#000000">Migration</text>
</g>
<!-- Node0 -->
<g id="node2" class="node">
<title>Node0</title>
<g id="a_node2"><a xlink:href="class_mediwatch_1_1_server_1_1_migrations_1_1_db_context_mediwatch_migrations_1_1innitial_create.html" target="_top" xlink:title="Mediwatch.Server.Migrations.\lDbContextMediwatchMigrations.innitial\lCreate">
<polygon fill="#ffffff" stroke="#000000" points="92,-50 92,-91 279,-91 279,-50 92,-50"/>
<text text-anchor="start" x="100" y="-79" font-family="Helvetica,sans-Serif" font-size="10.00" fill="#000000">Mediwatch.Server.Migrations.</text>
<text text-anchor="start" x="100" y="-68" font-family="Helvetica,sans-Serif" font-size="10.00" fill="#000000">DbContextMediwatchMigrations.innitial</text>
<text text-anchor="middle" x="185.5" y="-57" font-family="Helvetica,sans-Serif" font-size="10.00" fill="#000000">Create</text>
</a>
</g>
</g>
<!-- Node7&#45;&gt;Node0 -->
<g id="edge1" class="edge">
<title>Node7&#45;&gt;Node0</title>
<path fill="none" stroke="#191970" d="M66.1425,-49.2809C74.1031,-50.6961 82.8259,-52.2468 91.8183,-53.8455"/>
<polygon fill="#191970" stroke="#191970" points="66.6161,-45.8103 56.1578,-47.5058 65.3908,-52.7022 66.6161,-45.8103"/>
</g>
<!-- Node9 -->
<g id="node3" class="node">
<title>Node9</title>
<g id="a_node3"><a xlink:href="class_mediwatch_1_1_server_1_1_migrations_1_1innitial_create.html" target="_top" xlink:title="Mediwatch.Server.Migrations.innitial\lCreate">
<polygon fill="#ffffff" stroke="#000000" points="98.5,-.5 98.5,-30.5 272.5,-30.5 272.5,-.5 98.5,-.5"/>
<text text-anchor="start" x="106.5" y="-18.5" font-family="Helvetica,sans-Serif" font-size="10.00" fill="#000000">Mediwatch.Server.Migrations.innitial</text>
<text text-anchor="middle" x="185.5" y="-7.5" font-family="Helvetica,sans-Serif" font-size="10.00" fill="#000000">Create</text>
</a>
</g>
</g>
<!-- Node7&#45;&gt;Node9 -->
<g id="edge2" class="edge">
<title>Node7&#45;&gt;Node9</title>
<path fill="none" stroke="#191970" d="M66.0462,-35.9778C75.9883,-34.2734 87.1242,-32.3644 98.4921,-30.4156"/>
<polygon fill="#191970" stroke="#191970" points="65.4227,-32.5335 56.1578,-37.6729 66.6055,-39.4329 65.4227,-32.5335"/>
</g>
</g>
</svg>
