<?xml version="1.0" encoding="UTF-8" standalone="no"?>
<!DOCTYPE svg PUBLIC "-//W3C//DTD SVG 1.1//EN"
 "http://www.w3.org/Graphics/SVG/1.1/DTD/svg11.dtd">
<!-- Generated by graphviz version 2.40.1 (20161225.0304)
 -->
<!-- Title: Graphe hiérarchique des classes Pages: 1 -->
<svg width="303pt" height="100pt"
 viewBox="0.00 0.00 303.00 99.50" xmlns="http://www.w3.org/2000/svg" xmlns:xlink="http://www.w3.org/1999/xlink">
<g id="graph0" class="graph" transform="scale(1 1) rotate(0) translate(4 95.5)">
<title>Graphe hiérarchique des classes</title>
<polygon fill="#ffffff" stroke="transparent" points="-4,4 -4,-95.5 299,-95.5 299,4 -4,4"/>
<!-- Node7 -->
<g id="node1" class="node">
<title>Node7</title>
<polygon fill="#ffffff" stroke="#bfbfbf" points="0,-38.5 0,-57.5 56,-57.5 56,-38.5 0,-38.5"/>
<text text-anchor="middle" x="28" y="-45.5" font-family="Helvetica,sans-Serif" font-size="10.00" fill="#000000">Migration</text>
</g>
<!-- Node0 -->
<g id="node2" class="node">
<title>Node0</title>
<g id="a_node2"><a xlink:href="class_mediwatch_1_1_server_1_1_migrations_1_1_create_identity_schema.html" target="_top" xlink:title="Mediwatch.Server.Migrations.\lCreateIdentitySchema">
<polygon fill="#ffffff" stroke="#000000" points="120.5,-61 120.5,-91 266.5,-91 266.5,-61 120.5,-61"/>
<text text-anchor="start" x="128.5" y="-79" font-family="Helvetica,sans-Serif" font-size="10.00" fill="#000000">Mediwatch.Server.Migrations.</text>
<text text-anchor="middle" x="193.5" y="-68" font-family="Helvetica,sans-Serif" font-size="10.00" fill="#000000">CreateIdentitySchema</text>
</a>
</g>
</g>
<!-- Node7&#45;&gt;Node0 -->
<g id="edge1" class="edge">
<title>Node7&#45;&gt;Node0</title>
<path fill="none" stroke="#191970" d="M66.1647,-54.4569C82.2858,-57.1843 101.6257,-60.4563 120.3071,-63.6169"/>
<polygon fill="#191970" stroke="#191970" points="66.5186,-50.9671 56.0748,-52.7498 65.3508,-57.869 66.5186,-50.9671"/>
</g>
<!-- Node9 -->
<g id="node3" class="node">
<title>Node9</title>
<g id="a_node3"><a xlink:href="class_mediwatch_1_1_server_1_1_migrations_1_1_db_context_mediwatch_migrations_1_1_formation_template.html" target="_top" xlink:title="Mediwatch.Server.Migrations.\lDbContextMediwatchMigrations.Formation\lTemplate">
<polygon fill="#ffffff" stroke="#000000" points="92,-.5 92,-41.5 295,-41.5 295,-.5 92,-.5"/>
<text text-anchor="start" x="100" y="-29.5" font-family="Helvetica,sans-Serif" font-size="10.00" fill="#000000">Mediwatch.Server.Migrations.</text>
<text text-anchor="start" x="100" y="-18.5" font-family="Helvetica,sans-Serif" font-size="10.00" fill="#000000">DbContextMediwatchMigrations.Formation</text>
<text text-anchor="middle" x="193.5" y="-7.5" font-family="Helvetica,sans-Serif" font-size="10.00" fill="#000000">Template</text>
</a>
</g>
</g>
<!-- Node7&#45;&gt;Node9 -->
<g id="edge2" class="edge">
<title>Node7&#45;&gt;Node9</title>
<path fill="none" stroke="#191970" d="M66.0496,-41.7925C74.013,-40.4933 82.7656,-39.0654 91.8386,-37.5852"/>
<polygon fill="#191970" stroke="#191970" points="65.3808,-38.3553 56.0748,-43.4198 66.5079,-45.2639 65.3808,-38.3553"/>
</g>
</g>
</svg>
