<?xml version="1.0" encoding="UTF-8" standalone="no"?>
<!DOCTYPE svg PUBLIC "-//W3C//DTD SVG 1.1//EN"
 "http://www.w3.org/Graphics/SVG/1.1/DTD/svg11.dtd">
<!-- Generated by graphviz version 2.40.1 (20161225.0304)
 -->
<!-- Title: Graphe hiérarchique des classes Pages: 1 -->
<svg width="277pt" height="50pt"
 viewBox="0.00 0.00 277.00 50.00" xmlns="http://www.w3.org/2000/svg" xmlns:xlink="http://www.w3.org/1999/xlink">
<g id="graph0" class="graph" transform="scale(1 1) rotate(0) translate(4 46)">
<title>Graphe hiérarchique des classes</title>
<polygon fill="#ffffff" stroke="transparent" points="-4,4 -4,-46 273,-46 273,4 -4,4"/>
<!-- Node2 -->
<g id="node1" class="node">
<title>Node2</title>
<polygon fill="#ffffff" stroke="#bfbfbf" points="0,-11.5 0,-30.5 84,-30.5 84,-11.5 0,-11.5"/>
<text text-anchor="middle" x="42" y="-18.5" font-family="Helvetica,sans-Serif" font-size="10.00" fill="#000000">ModelSnapshot</text>
</g>
<!-- Node0 -->
<g id="node2" class="node">
<title>Node0</title>
<g id="a_node2"><a xlink:href="class_mediwatch_website_1_1_server_1_1_data_1_1_migrations_1_1_application_db_context_model_snapshot.html" target="_top" xlink:title="MediwatchWebsite.Server.\lData.Migrations.ApplicationDb\lContextModelSnapshot">
<polygon fill="#ffffff" stroke="#000000" points="120,-.5 120,-41.5 269,-41.5 269,-.5 120,-.5"/>
<text text-anchor="start" x="128" y="-29.5" font-family="Helvetica,sans-Serif" font-size="10.00" fill="#000000">MediwatchWebsite.Server.</text>
<text text-anchor="start" x="128" y="-18.5" font-family="Helvetica,sans-Serif" font-size="10.00" fill="#000000">Data.Migrations.ApplicationDb</text>
<text text-anchor="middle" x="194.5" y="-7.5" font-family="Helvetica,sans-Serif" font-size="10.00" fill="#000000">ContextModelSnapshot</text>
</a>
</g>
</g>
<!-- Node2&#45;&gt;Node0 -->
<g id="edge1" class="edge">
<title>Node2&#45;&gt;Node0</title>
<path fill="none" stroke="#191970" d="M94.2577,-21C102.4988,-21 111.1563,-21 119.7874,-21"/>
<polygon fill="#191970" stroke="#191970" points="94.075,-17.5001 84.075,-21 94.075,-24.5001 94.075,-17.5001"/>
</g>
</g>
</svg>
