<?xml version="1.0" encoding="UTF-8" standalone="no"?>
<!DOCTYPE svg PUBLIC "-//W3C//DTD SVG 1.1//EN"
 "http://www.w3.org/Graphics/SVG/1.1/DTD/svg11.dtd">
<!-- Generated by graphviz version 2.40.1 (20161225.0304)
 -->
<!-- Title: Graphe hiérarchique des classes Pages: 1 -->
<svg width="274pt" height="88pt"
 viewBox="0.00 0.00 274.00 88.00" xmlns="http://www.w3.org/2000/svg" xmlns:xlink="http://www.w3.org/1999/xlink">
<g id="graph0" class="graph" transform="scale(1 1) rotate(0) translate(4 84)">
<title>Graphe hiérarchique des classes</title>
<polygon fill="#ffffff" stroke="transparent" points="-4,4 -4,-84 270,-84 270,4 -4,4"/>
<!-- Node20 -->
<g id="node1" class="node">
<title>Node20</title>
<polygon fill="#ffffff" stroke="#bfbfbf" points="0,-30 0,-49 81,-49 81,-30 0,-30"/>
<text text-anchor="middle" x="40.5" y="-37" font-family="Helvetica,sans-Serif" font-size="10.00" fill="#000000">ControllerBase</text>
</g>
<!-- Node0 -->
<g id="node2" class="node">
<title>Node0</title>
<g id="a_node2"><a xlink:href="class_mediwatch_1_1_server_1_1_controllers_1_1_account_controller.html" target="_top" xlink:title="Mediwatch.Server.Controllers.\lAccountController">
<polygon fill="#ffffff" stroke="#000000" points="117,-49.5 117,-79.5 266,-79.5 266,-49.5 117,-49.5"/>
<text text-anchor="start" x="125" y="-67.5" font-family="Helvetica,sans-Serif" font-size="10.00" fill="#000000">Mediwatch.Server.Controllers.</text>
<text text-anchor="middle" x="191.5" y="-56.5" font-family="Helvetica,sans-Serif" font-size="10.00" fill="#000000">AccountController</text>
</a>
</g>
</g>
<!-- Node20&#45;&gt;Node0 -->
<g id="edge1" class="edge">
<title>Node20&#45;&gt;Node0</title>
<path fill="none" stroke="#191970" d="M91.4621,-47.9374C99.6439,-49.292 108.257,-50.718 116.8554,-52.1416"/>
<polygon fill="#191970" stroke="#191970" points="91.8002,-44.4458 81.3628,-46.2654 90.6568,-51.3518 91.8002,-44.4458"/>
</g>
<!-- Node22 -->
<g id="node3" class="node">
<title>Node22</title>
<g id="a_node3"><a xlink:href="class_mediwatch_1_1_server_1_1_controllers_1_1_weather_forecast_controller.html" target="_top" xlink:title="Mediwatch.Server.Controllers.\lWeatherForecastController">
<polygon fill="#ffffff" stroke="#000000" points="117,-.5 117,-30.5 266,-30.5 266,-.5 117,-.5"/>
<text text-anchor="start" x="125" y="-18.5" font-family="Helvetica,sans-Serif" font-size="10.00" fill="#000000">Mediwatch.Server.Controllers.</text>
<text text-anchor="middle" x="191.5" y="-7.5" font-family="Helvetica,sans-Serif" font-size="10.00" fill="#000000">WeatherForecastController</text>
</a>
</g>
</g>
<!-- Node20&#45;&gt;Node22 -->
<g id="edge2" class="edge">
<title>Node20&#45;&gt;Node22</title>
<path fill="none" stroke="#191970" d="M91.4621,-31.4001C99.6439,-30.0996 108.257,-28.7307 116.8554,-27.364"/>
<polygon fill="#191970" stroke="#191970" points="90.6894,-27.9789 81.3628,-33.0053 91.7882,-34.8921 90.6894,-27.9789"/>
</g>
</g>
</svg>
