<?xml version="1.0" encoding="UTF-8" standalone="no"?>
<!DOCTYPE svg PUBLIC "-//W3C//DTD SVG 1.1//EN"
 "http://www.w3.org/Graphics/SVG/1.1/DTD/svg11.dtd">
<!-- Generated by graphviz version 2.43.0 (0)
 -->
<!-- Title: Graphe hiérarchique des classes Pages: 1 -->
<svg width="317pt" height="100pt"
 viewBox="0.00 0.00 317.00 99.50" xmlns="http://www.w3.org/2000/svg" xmlns:xlink="http://www.w3.org/1999/xlink">
<g id="graph0" class="graph" transform="scale(1 1) rotate(0) translate(4 95.5)">
<title>Graphe hiérarchique des classes</title>
<polygon fill="white" stroke="transparent" points="-4,4 -4,-95.5 313,-95.5 313,4 -4,4"/>
<!-- Node9 -->
<g id="node1" class="node">
<title>Node9</title>
<g id="a_node1"><a xlink:title=" ">
<polygon fill="white" stroke="#bfbfbf" points="0,-33 0,-52 63,-52 63,-33 0,-33"/>
<text text-anchor="middle" x="31.5" y="-40" font-family="Helvetica,sans-Serif" font-size="10.00">Migration</text>
</a>
</g>
</g>
<!-- Node0 -->
<g id="node2" class="node">
<title>Node0</title>
<g id="a_node2"><a xlink:href="class_mediwatch_1_1_server_1_1_migrations_1_1_db_context_mediwatch_migrations_1_1innitial_create.html" target="_top" xlink:title=" ">
<polygon fill="white" stroke="black" points="99,-50 99,-91 309,-91 309,-50 99,-50"/>
<text text-anchor="start" x="107" y="-79" font-family="Helvetica,sans-Serif" font-size="10.00">Mediwatch.Server.Migrations.</text>
<text text-anchor="start" x="107" y="-68" font-family="Helvetica,sans-Serif" font-size="10.00">DbContextMediwatchMigrations.innitial</text>
<text text-anchor="middle" x="204" y="-57" font-family="Helvetica,sans-Serif" font-size="10.00">Create</text>
</a>
</g>
</g>
<!-- Node9&#45;&gt;Node0 -->
<g id="edge1" class="edge">
<title>Node9&#45;&gt;Node0</title>
<path fill="none" stroke="midnightblue" d="M73.33,-49.2C81.23,-50.5 89.85,-51.92 98.75,-53.38"/>
<polygon fill="midnightblue" stroke="midnightblue" points="73.81,-45.74 63.38,-47.57 72.68,-52.64 73.81,-45.74"/>
</g>
<!-- Node11 -->
<g id="node3" class="node">
<title>Node11</title>
<g id="a_node3"><a xlink:href="class_mediwatch_1_1_server_1_1_migrations_1_1innitial_create.html" target="_top" xlink:title=" ">
<polygon fill="white" stroke="black" points="106.5,-0.5 106.5,-30.5 301.5,-30.5 301.5,-0.5 106.5,-0.5"/>
<text text-anchor="start" x="114.5" y="-18.5" font-family="Helvetica,sans-Serif" font-size="10.00">Mediwatch.Server.Migrations.innitial</text>
<text text-anchor="middle" x="204" y="-7.5" font-family="Helvetica,sans-Serif" font-size="10.00">Create</text>
</a>
</g>
</g>
<!-- Node9&#45;&gt;Node11 -->
<g id="edge2" class="edge">
<title>Node9&#45;&gt;Node11</title>
<path fill="none" stroke="midnightblue" d="M73.51,-36C84.11,-34.33 95.97,-32.45 108.09,-30.53"/>
<polygon fill="midnightblue" stroke="midnightblue" points="72.71,-32.59 63.38,-37.61 73.8,-39.5 72.71,-32.59"/>
</g>
</g>
</svg>
