<?xml version="1.0" encoding="UTF-8" standalone="no"?>
<!DOCTYPE svg PUBLIC "-//W3C//DTD SVG 1.1//EN"
 "http://www.w3.org/Graphics/SVG/1.1/DTD/svg11.dtd">
<!-- Generated by graphviz version 2.43.0 (0)
 -->
<!-- Title: Graphe hiérarchique des classes Pages: 1 -->
<svg width="300pt" height="480pt"
 viewBox="0.00 0.00 300.00 480.00" xmlns="http://www.w3.org/2000/svg" xmlns:xlink="http://www.w3.org/1999/xlink">
<g id="graph0" class="graph" transform="scale(1 1) rotate(0) translate(4 476)">
<title>Graphe hiérarchique des classes</title>
<polygon fill="white" stroke="transparent" points="-4,4 -4,-476 296,-476 296,4 -4,4"/>
<!-- Node23 -->
<g id="node1" class="node">
<title>Node23</title>
<g id="a_node1"><a xlink:title=" ">
<polygon fill="white" stroke="#bfbfbf" points="0,-226 0,-245 89,-245 89,-226 0,-226"/>
<text text-anchor="middle" x="44.5" y="-233" font-family="Helvetica,sans-Serif" font-size="10.00">ControllerBase</text>
</a>
</g>
</g>
<!-- Node0 -->
<g id="node2" class="node">
<title>Node0</title>
<g id="a_node2"><a xlink:href="class_blazing_blog_1_1_server_1_1_controllers_1_1_articles_controller.html" target="_top" xlink:title=" ">
<polygon fill="white" stroke="black" points="125,-441.5 125,-471.5 292,-471.5 292,-441.5 125,-441.5"/>
<text text-anchor="start" x="133" y="-459.5" font-family="Helvetica,sans-Serif" font-size="10.00">BlazingBlog.Server.Controllers.</text>
<text text-anchor="middle" x="208.5" y="-448.5" font-family="Helvetica,sans-Serif" font-size="10.00">ArticlesController</text>
</a>
</g>
</g>
<!-- Node23&#45;&gt;Node0 -->
<g id="edge1" class="edge">
<title>Node23&#45;&gt;Node0</title>
<path fill="none" stroke="midnightblue" d="M47.79,-255.39C53.42,-295.04 71.6,-384.22 125,-432.5 128.76,-435.9 132.98,-438.82 137.47,-441.33"/>
<polygon fill="midnightblue" stroke="midnightblue" points="51.25,-254.86 46.49,-245.39 44.31,-255.76 51.25,-254.86"/>
</g>
<!-- Node25 -->
<g id="node3" class="node">
<title>Node25</title>
<g id="a_node3"><a xlink:href="class_blazing_blog_1_1_server_1_1_controllers_1_1_blog_utils_controller.html" target="_top" xlink:title=" ">
<polygon fill="white" stroke="black" points="125,-392.5 125,-422.5 292,-422.5 292,-392.5 125,-392.5"/>
<text text-anchor="start" x="133" y="-410.5" font-family="Helvetica,sans-Serif" font-size="10.00">BlazingBlog.Server.Controllers.</text>
<text text-anchor="middle" x="208.5" y="-399.5" font-family="Helvetica,sans-Serif" font-size="10.00">BlogUtilsController</text>
</a>
</g>
</g>
<!-- Node23&#45;&gt;Node25 -->
<g id="edge2" class="edge">
<title>Node23&#45;&gt;Node25</title>
<path fill="none" stroke="midnightblue" d="M50.61,-254.96C59.96,-286.66 82.82,-349.36 125,-383.5 129.29,-386.97 134.06,-389.94 139.09,-392.48"/>
<polygon fill="midnightblue" stroke="midnightblue" points="53.93,-253.82 47.86,-245.13 47.19,-255.71 53.93,-253.82"/>
</g>
<!-- Node26 -->
<g id="node4" class="node">
<title>Node26</title>
<g id="a_node4"><a xlink:href="class_mediwatch_1_1_server_1_1_controllers_1_1_account_controller.html" target="_top" xlink:title=" ">
<polygon fill="white" stroke="black" points="127,-343.5 127,-373.5 290,-373.5 290,-343.5 127,-343.5"/>
<text text-anchor="start" x="135" y="-361.5" font-family="Helvetica,sans-Serif" font-size="10.00">Mediwatch.Server.Controllers.</text>
<text text-anchor="middle" x="208.5" y="-350.5" font-family="Helvetica,sans-Serif" font-size="10.00">AccountController</text>
</a>
</g>
</g>
<!-- Node23&#45;&gt;Node26 -->
<g id="edge3" class="edge">
<title>Node23&#45;&gt;Node26</title>
<path fill="none" stroke="midnightblue" d="M55.47,-253.84C68.53,-276.17 93.54,-313.5 125,-334.5 130.09,-337.9 135.66,-340.82 141.43,-343.34"/>
<polygon fill="midnightblue" stroke="midnightblue" points="58.44,-251.99 50.47,-245.01 52.35,-255.44 58.44,-251.99"/>
</g>
<!-- Node27 -->
<g id="node5" class="node">
<title>Node27</title>
<g id="a_node5"><a xlink:href="class_mediwatch_1_1_server_1_1_controllers_1_1_applicant_session_controller.html" target="_top" xlink:title=" ">
<polygon fill="white" stroke="black" points="127,-294.5 127,-324.5 290,-324.5 290,-294.5 127,-294.5"/>
<text text-anchor="start" x="135" y="-312.5" font-family="Helvetica,sans-Serif" font-size="10.00">Mediwatch.Server.Controllers.</text>
<text text-anchor="middle" x="208.5" y="-301.5" font-family="Helvetica,sans-Serif" font-size="10.00">ApplicantSessionController</text>
</a>
</g>
</g>
<!-- Node23&#45;&gt;Node27 -->
<g id="edge4" class="edge">
<title>Node23&#45;&gt;Node27</title>
<path fill="none" stroke="midnightblue" d="M66.71,-251.13C82.22,-261.98 104.11,-276.12 125,-285.5 132.35,-288.8 140.27,-291.78 148.19,-294.42"/>
<polygon fill="midnightblue" stroke="midnightblue" points="68.54,-248.14 58.37,-245.18 64.48,-253.84 68.54,-248.14"/>
</g>
<!-- Node28 -->
<g id="node6" class="node">
<title>Node28</title>
<g id="a_node6"><a xlink:href="class_mediwatch_1_1_server_1_1_controllers_1_1_compagny_controller.html" target="_top" xlink:title=" ">
<polygon fill="white" stroke="black" points="127,-245.5 127,-275.5 290,-275.5 290,-245.5 127,-245.5"/>
<text text-anchor="start" x="135" y="-263.5" font-family="Helvetica,sans-Serif" font-size="10.00">Mediwatch.Server.Controllers.</text>
<text text-anchor="middle" x="208.5" y="-252.5" font-family="Helvetica,sans-Serif" font-size="10.00">CompagnyController</text>
</a>
</g>
</g>
<!-- Node23&#45;&gt;Node28 -->
<g id="edge5" class="edge">
<title>Node23&#45;&gt;Node28</title>
<path fill="none" stroke="midnightblue" d="M99.42,-243.82C108.23,-245.18 117.51,-246.61 126.79,-248.05"/>
<polygon fill="midnightblue" stroke="midnightblue" points="99.76,-240.33 89.34,-242.27 98.69,-247.25 99.76,-240.33"/>
</g>
<!-- Node29 -->
<g id="node7" class="node">
<title>Node29</title>
<g id="a_node7"><a xlink:href="class_mediwatch_1_1_server_1_1_controllers_1_1_formation_controller.html" target="_top" xlink:title=" ">
<polygon fill="white" stroke="black" points="127,-196.5 127,-226.5 290,-226.5 290,-196.5 127,-196.5"/>
<text text-anchor="start" x="135" y="-214.5" font-family="Helvetica,sans-Serif" font-size="10.00">Mediwatch.Server.Controllers.</text>
<text text-anchor="middle" x="208.5" y="-203.5" font-family="Helvetica,sans-Serif" font-size="10.00">FormationController</text>
</a>
</g>
</g>
<!-- Node23&#45;&gt;Node29 -->
<g id="edge6" class="edge">
<title>Node23&#45;&gt;Node29</title>
<path fill="none" stroke="midnightblue" d="M99.42,-227.51C108.23,-226.21 117.51,-224.83 126.79,-223.46"/>
<polygon fill="midnightblue" stroke="midnightblue" points="98.72,-224.08 89.34,-229.01 99.74,-231 98.72,-224.08"/>
</g>
<!-- Node30 -->
<g id="node8" class="node">
<title>Node30</title>
<g id="a_node8"><a xlink:href="class_mediwatch_1_1_server_1_1_controllers_1_1_order_controller.html" target="_top" xlink:title=" ">
<polygon fill="white" stroke="black" points="127,-147.5 127,-177.5 290,-177.5 290,-147.5 127,-147.5"/>
<text text-anchor="start" x="135" y="-165.5" font-family="Helvetica,sans-Serif" font-size="10.00">Mediwatch.Server.Controllers.</text>
<text text-anchor="middle" x="208.5" y="-154.5" font-family="Helvetica,sans-Serif" font-size="10.00">OrderController</text>
</a>
</g>
</g>
<!-- Node23&#45;&gt;Node30 -->
<g id="edge7" class="edge">
<title>Node23&#45;&gt;Node30</title>
<path fill="none" stroke="midnightblue" d="M67.39,-220.24C82.92,-209.93 104.56,-196.6 125,-187.5 133.2,-183.85 142.09,-180.54 150.9,-177.6"/>
<polygon fill="midnightblue" stroke="midnightblue" points="65.33,-217.41 59,-225.91 69.25,-223.21 65.33,-217.41"/>
</g>
<!-- Node31 -->
<g id="node9" class="node">
<title>Node31</title>
<g id="a_node9"><a xlink:href="class_mediwatch_1_1_server_1_1_controllers_1_1_tag_controller.html" target="_top" xlink:title=" ">
<polygon fill="white" stroke="black" points="127,-98.5 127,-128.5 290,-128.5 290,-98.5 127,-98.5"/>
<text text-anchor="start" x="135" y="-116.5" font-family="Helvetica,sans-Serif" font-size="10.00">Mediwatch.Server.Controllers.</text>
<text text-anchor="middle" x="208.5" y="-105.5" font-family="Helvetica,sans-Serif" font-size="10.00">TagController</text>
</a>
</g>
</g>
<!-- Node23&#45;&gt;Node31 -->
<g id="edge8" class="edge">
<title>Node23&#45;&gt;Node31</title>
<path fill="none" stroke="midnightblue" d="M55.8,-217.26C69.05,-195.41 94.09,-159.16 125,-138.5 130.72,-134.67 137.05,-131.42 143.59,-128.65"/>
<polygon fill="midnightblue" stroke="midnightblue" points="52.76,-215.53 50.71,-225.92 58.79,-219.07 52.76,-215.53"/>
</g>
<!-- Node32 -->
<g id="node10" class="node">
<title>Node32</title>
<g id="a_node10"><a xlink:href="class_mediwatch_1_1_server_1_1_controllers_1_1_users_controller.html" target="_top" xlink:title=" ">
<polygon fill="white" stroke="black" points="127,-49.5 127,-79.5 290,-79.5 290,-49.5 127,-49.5"/>
<text text-anchor="start" x="135" y="-67.5" font-family="Helvetica,sans-Serif" font-size="10.00">Mediwatch.Server.Controllers.</text>
<text text-anchor="middle" x="208.5" y="-56.5" font-family="Helvetica,sans-Serif" font-size="10.00">UsersController</text>
</a>
</g>
</g>
<!-- Node23&#45;&gt;Node32 -->
<g id="edge9" class="edge">
<title>Node23&#45;&gt;Node32</title>
<path fill="none" stroke="midnightblue" d="M50.87,-215.9C60.47,-184.55 83.55,-123.24 125,-89.5 129.76,-85.63 135.11,-82.35 140.74,-79.59"/>
<polygon fill="midnightblue" stroke="midnightblue" points="47.47,-215.07 48.03,-225.65 54.19,-217.03 47.47,-215.07"/>
</g>
<!-- Node33 -->
<g id="node11" class="node">
<title>Node33</title>
<g id="a_node11"><a xlink:href="class_mediwatch_1_1_server_1_1_controllers_1_1_weather_forecast_controller.html" target="_top" xlink:title=" ">
<polygon fill="white" stroke="black" points="127,-0.5 127,-30.5 290,-30.5 290,-0.5 127,-0.5"/>
<text text-anchor="start" x="135" y="-18.5" font-family="Helvetica,sans-Serif" font-size="10.00">Mediwatch.Server.Controllers.</text>
<text text-anchor="middle" x="208.5" y="-7.5" font-family="Helvetica,sans-Serif" font-size="10.00">WeatherForecastController</text>
</a>
</g>
</g>
<!-- Node23&#45;&gt;Node33 -->
<g id="edge10" class="edge">
<title>Node23&#45;&gt;Node33</title>
<path fill="none" stroke="midnightblue" d="M47.93,-215.6C53.8,-176.32 72.36,-88.46 125,-40.5 129.2,-36.67 133.98,-33.43 139.06,-30.68"/>
<polygon fill="midnightblue" stroke="midnightblue" points="44.44,-215.35 46.55,-225.73 51.37,-216.3 44.44,-215.35"/>
</g>
</g>
</svg>
