<?xml version="1.0" encoding="UTF-8" standalone="no"?>
<!DOCTYPE svg PUBLIC "-//W3C//DTD SVG 1.1//EN"
 "http://www.w3.org/Graphics/SVG/1.1/DTD/svg11.dtd">
<!-- Generated by graphviz version 2.40.1 (20161225.0304)
 -->
<!-- Title: Graphe hiérarchique des classes Pages: 1 -->
<svg width="278pt" height="382pt"
 viewBox="0.00 0.00 278.00 382.00" xmlns="http://www.w3.org/2000/svg" xmlns:xlink="http://www.w3.org/1999/xlink">
<g id="graph0" class="graph" transform="scale(1 1) rotate(0) translate(4 378)">
<title>Graphe hiérarchique des classes</title>
<polygon fill="#ffffff" stroke="transparent" points="-4,4 -4,-378 274,-378 274,4 -4,4"/>
<!-- Node16 -->
<g id="node1" class="node">
<title>Node16</title>
<polygon fill="#ffffff" stroke="#bfbfbf" points="0,-177 0,-196 81,-196 81,-177 0,-177"/>
<text text-anchor="middle" x="40.5" y="-184" font-family="Helvetica,sans-Serif" font-size="10.00" fill="#000000">ControllerBase</text>
</g>
<!-- Node0 -->
<g id="node2" class="node">
<title>Node0</title>
<g id="a_node2"><a xlink:href="class_blazing_blog_1_1_server_1_1_controllers_1_1_articles_controller.html" target="_top" xlink:title="BlazingBlog.Server.Controllers.\lArticlesController">
<polygon fill="#ffffff" stroke="#000000" points="117,-343.5 117,-373.5 270,-373.5 270,-343.5 117,-343.5"/>
<text text-anchor="start" x="125" y="-361.5" font-family="Helvetica,sans-Serif" font-size="10.00" fill="#000000">BlazingBlog.Server.Controllers.</text>
<text text-anchor="middle" x="193.5" y="-350.5" font-family="Helvetica,sans-Serif" font-size="10.00" fill="#000000">ArticlesController</text>
</a>
</g>
</g>
<!-- Node16&#45;&gt;Node0 -->
<g id="edge1" class="edge">
<title>Node16&#45;&gt;Node0</title>
<path fill="none" stroke="#191970" d="M45.284,-205.8502C54.0776,-237.4018 75.7994,-299.8771 117,-334.5 121.0494,-337.9029 125.5823,-340.8244 130.3658,-343.3324"/>
<polygon fill="#191970" stroke="#191970" points="48.6401,-204.8505 42.7021,-196.076 41.8722,-206.6383 48.6401,-204.8505"/>
</g>
<!-- Node18 -->
<g id="node3" class="node">
<title>Node18</title>
<g id="a_node3"><a xlink:href="class_blazing_blog_1_1_server_1_1_controllers_1_1_blog_utils_controller.html" target="_top" xlink:title="BlazingBlog.Server.Controllers.\lBlogUtilsController">
<polygon fill="#ffffff" stroke="#000000" points="117,-294.5 117,-324.5 270,-324.5 270,-294.5 117,-294.5"/>
<text text-anchor="start" x="125" y="-312.5" font-family="Helvetica,sans-Serif" font-size="10.00" fill="#000000">BlazingBlog.Server.Controllers.</text>
<text text-anchor="middle" x="193.5" y="-301.5" font-family="Helvetica,sans-Serif" font-size="10.00" fill="#000000">BlogUtilsController</text>
</a>
</g>
</g>
<!-- Node16&#45;&gt;Node18 -->
<g id="edge2" class="edge">
<title>Node16&#45;&gt;Node18</title>
<path fill="none" stroke="#191970" d="M50.1792,-205.077C62.7027,-227.3444 86.5704,-264.3021 117,-285.5 121.9112,-288.9212 127.3309,-291.8703 132.9497,-294.4092"/>
<polygon fill="#191970" stroke="#191970" points="53.2335,-203.3671 45.3803,-196.2553 47.0844,-206.7122 53.2335,-203.3671"/>
</g>
<!-- Node19 -->
<g id="node4" class="node">
<title>Node19</title>
<g id="a_node4"><a xlink:href="class_mediwatch_1_1_server_1_1_controllers_1_1_account_controller.html" target="_top" xlink:title="Mediwatch.Server.Controllers.\lAccountController">
<polygon fill="#ffffff" stroke="#000000" points="119,-245.5 119,-275.5 268,-275.5 268,-245.5 119,-245.5"/>
<text text-anchor="start" x="127" y="-263.5" font-family="Helvetica,sans-Serif" font-size="10.00" fill="#000000">Mediwatch.Server.Controllers.</text>
<text text-anchor="middle" x="193.5" y="-252.5" font-family="Helvetica,sans-Serif" font-size="10.00" fill="#000000">AccountController</text>
</a>
</g>
</g>
<!-- Node16&#45;&gt;Node19 -->
<g id="edge3" class="edge">
<title>Node16&#45;&gt;Node19</title>
<path fill="none" stroke="#191970" d="M61.2962,-202.3517C76.1827,-213.1212 97.042,-227.0688 117,-236.5 123.9218,-239.7709 131.4005,-242.7441 138.8772,-245.3966"/>
<polygon fill="#191970" stroke="#191970" points="62.9849,-199.2479 52.8606,-196.1255 58.828,-204.88 62.9849,-199.2479"/>
</g>
<!-- Node20 -->
<g id="node5" class="node">
<title>Node20</title>
<g id="a_node5"><a xlink:href="class_mediwatch_1_1_server_1_1_controllers_1_1_applicant_session_controller.html" target="_top" xlink:title="Mediwatch.Server.Controllers.\lApplicantSessionController">
<polygon fill="#ffffff" stroke="#000000" points="119,-196.5 119,-226.5 268,-226.5 268,-196.5 119,-196.5"/>
<text text-anchor="start" x="127" y="-214.5" font-family="Helvetica,sans-Serif" font-size="10.00" fill="#000000">Mediwatch.Server.Controllers.</text>
<text text-anchor="middle" x="193.5" y="-203.5" font-family="Helvetica,sans-Serif" font-size="10.00" fill="#000000">ApplicantSessionController</text>
</a>
</g>
</g>
<!-- Node16&#45;&gt;Node20 -->
<g id="edge4" class="edge">
<title>Node16&#45;&gt;Node20</title>
<path fill="none" stroke="#191970" d="M90.9787,-194.7481C99.9608,-196.2158 109.4863,-197.7723 118.9714,-199.3221"/>
<polygon fill="#191970" stroke="#191970" points="91.5331,-191.2924 81.0995,-193.1339 90.4042,-198.2008 91.5331,-191.2924"/>
</g>
<!-- Node21 -->
<g id="node6" class="node">
<title>Node21</title>
<g id="a_node6"><a xlink:href="class_mediwatch_1_1_server_1_1_controllers_1_1_compagny_controller.html" target="_top" xlink:title="Mediwatch.Server.Controllers.\lCompagnyController">
<polygon fill="#ffffff" stroke="#000000" points="119,-147.5 119,-177.5 268,-177.5 268,-147.5 119,-147.5"/>
<text text-anchor="start" x="127" y="-165.5" font-family="Helvetica,sans-Serif" font-size="10.00" fill="#000000">Mediwatch.Server.Controllers.</text>
<text text-anchor="middle" x="193.5" y="-154.5" font-family="Helvetica,sans-Serif" font-size="10.00" fill="#000000">CompagnyController</text>
</a>
</g>
</g>
<!-- Node16&#45;&gt;Node21 -->
<g id="edge5" class="edge">
<title>Node16&#45;&gt;Node21</title>
<path fill="none" stroke="#191970" d="M91.2686,-178.5363C100.1657,-177.1407 109.5883,-175.6626 118.9714,-174.1908"/>
<polygon fill="#191970" stroke="#191970" points="90.4363,-175.124 81.0995,-180.1315 91.5211,-182.0394 90.4363,-175.124"/>
</g>
<!-- Node22 -->
<g id="node7" class="node">
<title>Node22</title>
<g id="a_node7"><a xlink:href="class_mediwatch_1_1_server_1_1_controllers_1_1_formation_controller.html" target="_top" xlink:title="Mediwatch.Server.Controllers.\lFormationController">
<polygon fill="#ffffff" stroke="#000000" points="119,-98.5 119,-128.5 268,-128.5 268,-98.5 119,-98.5"/>
<text text-anchor="start" x="127" y="-116.5" font-family="Helvetica,sans-Serif" font-size="10.00" fill="#000000">Mediwatch.Server.Controllers.</text>
<text text-anchor="middle" x="193.5" y="-105.5" font-family="Helvetica,sans-Serif" font-size="10.00" fill="#000000">FormationController</text>
</a>
</g>
</g>
<!-- Node16&#45;&gt;Node22 -->
<g id="edge6" class="edge">
<title>Node16&#45;&gt;Node22</title>
<path fill="none" stroke="#191970" d="M61.9604,-171.039C76.8664,-160.8084 97.4817,-147.6438 117,-138.5 124.7182,-134.8842 133.1018,-131.5721 141.3953,-128.6243"/>
<polygon fill="#191970" stroke="#191970" points="59.6694,-168.3701 53.478,-176.9676 63.6795,-174.1076 59.6694,-168.3701"/>
</g>
<!-- Node23 -->
<g id="node8" class="node">
<title>Node23</title>
<g id="a_node8"><a xlink:href="class_mediwatch_1_1_server_1_1_controllers_1_1_user_controller.html" target="_top" xlink:title="Mediwatch.Server.Controllers.\lUserController">
<polygon fill="#ffffff" stroke="#000000" points="119,-49.5 119,-79.5 268,-79.5 268,-49.5 119,-49.5"/>
<text text-anchor="start" x="127" y="-67.5" font-family="Helvetica,sans-Serif" font-size="10.00" fill="#000000">Mediwatch.Server.Controllers.</text>
<text text-anchor="middle" x="193.5" y="-56.5" font-family="Helvetica,sans-Serif" font-size="10.00" fill="#000000">UserController</text>
</a>
</g>
</g>
<!-- Node16&#45;&gt;Node23 -->
<g id="edge7" class="edge">
<title>Node16&#45;&gt;Node23</title>
<path fill="none" stroke="#191970" d="M50.4846,-168.0682C63.1872,-146.2838 87.109,-110.3662 117,-89.5 122.4994,-85.661 128.6259,-82.3828 134.9512,-79.5899"/>
<polygon fill="#191970" stroke="#191970" points="47.3233,-166.5487 45.4567,-176.9778 53.4196,-169.989 47.3233,-166.5487"/>
</g>
<!-- Node24 -->
<g id="node9" class="node">
<title>Node24</title>
<g id="a_node9"><a xlink:href="class_mediwatch_1_1_server_1_1_controllers_1_1_weather_forecast_controller.html" target="_top" xlink:title="Mediwatch.Server.Controllers.\lWeatherForecastController">
<polygon fill="#ffffff" stroke="#000000" points="119,-.5 119,-30.5 268,-30.5 268,-.5 119,-.5"/>
<text text-anchor="start" x="127" y="-18.5" font-family="Helvetica,sans-Serif" font-size="10.00" fill="#000000">Mediwatch.Server.Controllers.</text>
<text text-anchor="middle" x="193.5" y="-7.5" font-family="Helvetica,sans-Serif" font-size="10.00" fill="#000000">WeatherForecastController</text>
</a>
</g>
</g>
<!-- Node16&#45;&gt;Node24 -->
<g id="edge8" class="edge">
<title>Node16&#45;&gt;Node24</title>
<path fill="none" stroke="#191970" d="M45.5367,-167.0121C54.5879,-135.8191 76.5414,-74.7168 117,-40.5 121.5875,-36.6202 126.7923,-33.3385 132.2774,-30.5633"/>
<polygon fill="#191970" stroke="#191970" points="42.1482,-166.1344 42.8641,-176.705 48.8963,-167.9951 42.1482,-166.1344"/>
</g>
</g>
</svg>
