<?xml version="1.0" encoding="UTF-8" standalone="no"?>
<!DOCTYPE svg PUBLIC "-//W3C//DTD SVG 1.1//EN"
 "http://www.w3.org/Graphics/SVG/1.1/DTD/svg11.dtd">
<!-- Generated by graphviz version 2.40.1 (20161225.0304)
 -->
<!-- Title: Graphe hiérarchique des classes Pages: 1 -->
<svg width="248pt" height="50pt"
 viewBox="0.00 0.00 248.00 50.00" xmlns="http://www.w3.org/2000/svg" xmlns:xlink="http://www.w3.org/1999/xlink">
<g id="graph0" class="graph" transform="scale(1 1) rotate(0) translate(4 46)">
<title>Graphe hiérarchique des classes</title>
<polygon fill="#ffffff" stroke="transparent" points="-4,4 -4,-46 244,-46 244,4 -4,4"/>
<!-- Node10 -->
<g id="node1" class="node">
<title>Node10</title>
<polygon fill="#ffffff" stroke="#bfbfbf" points="0,-11.5 0,-30.5 59,-30.5 59,-11.5 0,-11.5"/>
<text text-anchor="middle" x="29.5" y="-18.5" font-family="Helvetica,sans-Serif" font-size="10.00" fill="#000000">Controller</text>
</g>
<!-- Node0 -->
<g id="node2" class="node">
<title>Node0</title>
<g id="a_node2"><a xlink:href="class_mediwatch_website_1_1_server_1_1_controllers_1_1_oidc_configuration_controller.html" target="_top" xlink:title="MediwatchWebsite.Server.\lControllers.OidcConfiguration\lController">
<polygon fill="#ffffff" stroke="#000000" points="95,-.5 95,-41.5 240,-41.5 240,-.5 95,-.5"/>
<text text-anchor="start" x="103" y="-29.5" font-family="Helvetica,sans-Serif" font-size="10.00" fill="#000000">MediwatchWebsite.Server.</text>
<text text-anchor="start" x="103" y="-18.5" font-family="Helvetica,sans-Serif" font-size="10.00" fill="#000000">Controllers.OidcConfiguration</text>
<text text-anchor="middle" x="167.5" y="-7.5" font-family="Helvetica,sans-Serif" font-size="10.00" fill="#000000">Controller</text>
</a>
</g>
</g>
<!-- Node10&#45;&gt;Node0 -->
<g id="edge1" class="edge">
<title>Node10&#45;&gt;Node0</title>
<path fill="none" stroke="#191970" d="M69.2774,-21C77.3385,-21 86.0523,-21 94.8455,-21"/>
<polygon fill="#191970" stroke="#191970" points="69.1045,-17.5001 59.1045,-21 69.1044,-24.5001 69.1045,-17.5001"/>
</g>
</g>
</svg>
