<?xml version="1.0" encoding="UTF-8" standalone="no"?>
<!DOCTYPE svg PUBLIC "-//W3C//DTD SVG 1.1//EN"
 "http://www.w3.org/Graphics/SVG/1.1/DTD/svg11.dtd">
<!-- Generated by graphviz version 2.43.0 (0)
 -->
<!-- Title: Graphe hiérarchique des classes Pages: 1 -->
<svg width="327pt" height="100pt"
 viewBox="0.00 0.00 327.00 99.50" xmlns="http://www.w3.org/2000/svg" xmlns:xlink="http://www.w3.org/1999/xlink">
<g id="graph0" class="graph" transform="scale(1 1) rotate(0) translate(4 95.5)">
<title>Graphe hiérarchique des classes</title>
<polygon fill="white" stroke="transparent" points="-4,4 -4,-95.5 323,-95.5 323,4 -4,4"/>
<!-- Node5 -->
<g id="node1" class="node">
<title>Node5</title>
<g id="a_node1"><a xlink:title=" ">
<polygon fill="white" stroke="#bfbfbf" points="0,-33 0,-52 92,-52 92,-33 0,-33"/>
<text text-anchor="middle" x="46" y="-40" font-family="Helvetica,sans-Serif" font-size="10.00">ModelSnapshot</text>
</a>
</g>
</g>
<!-- Node0 -->
<g id="node2" class="node">
<title>Node0</title>
<g id="a_node2"><a xlink:href="class_mediwatch_1_1_server_1_1_migrations_1_1_db_context_mediwatch_migrations_1_1_db_context_mediwatch_model_snapshot.html" target="_top" xlink:title=" ">
<polygon fill="white" stroke="black" points="128.5,-50 128.5,-91 318.5,-91 318.5,-50 128.5,-50"/>
<text text-anchor="start" x="136.5" y="-79" font-family="Helvetica,sans-Serif" font-size="10.00">Mediwatch.Server.Migrations.</text>
<text text-anchor="start" x="136.5" y="-68" font-family="Helvetica,sans-Serif" font-size="10.00">DbContextMediwatchMigrations.Db</text>
<text text-anchor="middle" x="223.5" y="-57" font-family="Helvetica,sans-Serif" font-size="10.00">ContextMediwatchModelSnapshot</text>
</a>
</g>
</g>
<!-- Node5&#45;&gt;Node0 -->
<g id="edge1" class="edge">
<title>Node5&#45;&gt;Node0</title>
<path fill="none" stroke="midnightblue" d="M102.16,-51.3C110.54,-52.64 119.38,-54.05 128.32,-55.47"/>
<polygon fill="midnightblue" stroke="midnightblue" points="102.62,-47.83 92.2,-49.71 101.52,-54.74 102.62,-47.83"/>
</g>
<!-- Node7 -->
<g id="node3" class="node">
<title>Node7</title>
<g id="a_node3"><a xlink:href="class_mediwatch_1_1_server_1_1_migrations_1_1_identity_data_context_model_snapshot.html" target="_top" xlink:title=" ">
<polygon fill="white" stroke="black" points="128,-0.5 128,-30.5 319,-30.5 319,-0.5 128,-0.5"/>
<text text-anchor="start" x="136" y="-18.5" font-family="Helvetica,sans-Serif" font-size="10.00">Mediwatch.Server.Migrations.</text>
<text text-anchor="middle" x="223.5" y="-7.5" font-family="Helvetica,sans-Serif" font-size="10.00">IdentityDataContextModelSnapshot</text>
</a>
</g>
</g>
<!-- Node5&#45;&gt;Node7 -->
<g id="edge2" class="edge">
<title>Node5&#45;&gt;Node7</title>
<path fill="none" stroke="midnightblue" d="M102.34,-33.99C110.56,-32.72 119.22,-31.39 127.97,-30.04"/>
<polygon fill="midnightblue" stroke="midnightblue" points="101.55,-30.57 92.2,-35.55 102.61,-37.49 101.55,-30.57"/>
</g>
</g>
</svg>
