<?xml version="1.0" encoding="UTF-8" standalone="no"?>
<!DOCTYPE svg PUBLIC "-//W3C//DTD SVG 1.1//EN"
 "http://www.w3.org/Graphics/SVG/1.1/DTD/svg11.dtd">
<!-- Generated by graphviz version 2.43.0 (0)
 -->
<!-- Title: Graphe hiérarchique des classes Pages: 1 -->
<svg width="366pt" height="329pt"
 viewBox="0.00 0.00 366.00 329.00" xmlns="http://www.w3.org/2000/svg" xmlns:xlink="http://www.w3.org/1999/xlink">
<g id="graph0" class="graph" transform="scale(1 1) rotate(0) translate(4 325)">
<title>Graphe hiérarchique des classes</title>
<polygon fill="white" stroke="transparent" points="-4,4 -4,-325 362,-325 362,4 -4,4"/>
<!-- Node15 -->
<g id="node1" class="node">
<title>Node15</title>
<g id="a_node1"><a xlink:title=" ">
<polygon fill="white" stroke="#bfbfbf" points="0,-151 0,-170 63,-170 63,-151 0,-151"/>
<text text-anchor="middle" x="31.5" y="-158" font-family="Helvetica,sans-Serif" font-size="10.00">Migration</text>
</a>
</g>
</g>
<!-- Node0 -->
<g id="node2" class="node">
<title>Node0</title>
<g id="a_node2"><a xlink:href="class_mediwatch_1_1_server_1_1_migrations_1_1_add_field_to_entity1.html" target="_top" xlink:title=" ">
<polygon fill="white" stroke="black" points="148,-290.5 148,-320.5 309,-320.5 309,-290.5 148,-290.5"/>
<text text-anchor="start" x="156" y="-308.5" font-family="Helvetica,sans-Serif" font-size="10.00">Mediwatch.Server.Migrations.</text>
<text text-anchor="middle" x="228.5" y="-297.5" font-family="Helvetica,sans-Serif" font-size="10.00">AddFieldToEntity1</text>
</a>
</g>
</g>
<!-- Node15&#45;&gt;Node0 -->
<g id="edge1" class="edge">
<title>Node15&#45;&gt;Node0</title>
<path fill="none" stroke="midnightblue" d="M37.65,-180C45.86,-207.07 64.62,-255.52 99,-280.5 113.25,-290.86 130.65,-297.23 147.98,-301.09"/>
<polygon fill="midnightblue" stroke="midnightblue" points="40.95,-178.8 34.84,-170.15 34.22,-180.72 40.95,-178.8"/>
</g>
<!-- Node17 -->
<g id="node3" class="node">
<title>Node17</title>
<g id="a_node3"><a xlink:href="class_mediwatch_1_1_server_1_1_migrations_1_1_db_context_mediwatch_migrations_1_1_applicantsession_idformationin_g_u_i_d.html" target="_top" xlink:title=" ">
<polygon fill="white" stroke="black" points="99,-230 99,-271 358,-271 358,-230 99,-230"/>
<text text-anchor="start" x="107" y="-259" font-family="Helvetica,sans-Serif" font-size="10.00">Mediwatch.Server.Migrations.</text>
<text text-anchor="start" x="107" y="-248" font-family="Helvetica,sans-Serif" font-size="10.00">DbContextMediwatchMigrations.Applicantsession</text>
<text text-anchor="middle" x="228.5" y="-237" font-family="Helvetica,sans-Serif" font-size="10.00">IdformationinGUID</text>
</a>
</g>
</g>
<!-- Node15&#45;&gt;Node17 -->
<g id="edge2" class="edge">
<title>Node15&#45;&gt;Node17</title>
<path fill="none" stroke="midnightblue" d="M47.28,-178C59.72,-191.6 78.69,-209.88 99,-220.5 105.8,-224.06 113.02,-227.19 120.44,-229.96"/>
<polygon fill="midnightblue" stroke="midnightblue" points="49.67,-175.42 40.43,-170.24 44.43,-180.05 49.67,-175.42"/>
</g>
<!-- Node18 -->
<g id="node4" class="node">
<title>Node18</title>
<g id="a_node4"><a xlink:href="class_mediwatch_1_1_server_1_1_migrations_1_1_db_context_mediwatch_migrations_1_1innitial_create.html" target="_top" xlink:title=" ">
<polygon fill="white" stroke="black" points="123.5,-170 123.5,-211 333.5,-211 333.5,-170 123.5,-170"/>
<text text-anchor="start" x="131.5" y="-199" font-family="Helvetica,sans-Serif" font-size="10.00">Mediwatch.Server.Migrations.</text>
<text text-anchor="start" x="131.5" y="-188" font-family="Helvetica,sans-Serif" font-size="10.00">DbContextMediwatchMigrations.innitial</text>
<text text-anchor="middle" x="228.5" y="-177" font-family="Helvetica,sans-Serif" font-size="10.00">Create</text>
</a>
</g>
</g>
<!-- Node15&#45;&gt;Node18 -->
<g id="edge3" class="edge">
<title>Node15&#45;&gt;Node18</title>
<path fill="none" stroke="midnightblue" d="M73.62,-166.83C88.33,-169.09 105.65,-171.75 123.26,-174.46"/>
<polygon fill="midnightblue" stroke="midnightblue" points="73.81,-163.31 63.4,-165.25 72.75,-170.23 73.81,-163.31"/>
</g>
<!-- Node19 -->
<g id="node5" class="node">
<title>Node19</title>
<g id="a_node5"><a xlink:href="class_mediwatch_1_1_server_1_1_migrations_1_1_db_context_mediwatch_migrations_1_1join_formation_add.html" target="_top" xlink:title=" ">
<polygon fill="white" stroke="black" points="131.5,-110 131.5,-151 325.5,-151 325.5,-110 131.5,-110"/>
<text text-anchor="start" x="139.5" y="-139" font-family="Helvetica,sans-Serif" font-size="10.00">Mediwatch.Server.Migrations.</text>
<text text-anchor="start" x="139.5" y="-128" font-family="Helvetica,sans-Serif" font-size="10.00">DbContextMediwatchMigrations.join</text>
<text text-anchor="middle" x="228.5" y="-117" font-family="Helvetica,sans-Serif" font-size="10.00">FormationAdd</text>
</a>
</g>
</g>
<!-- Node15&#45;&gt;Node19 -->
<g id="edge4" class="edge">
<title>Node15&#45;&gt;Node19</title>
<path fill="none" stroke="midnightblue" d="M73.49,-154.19C90.48,-151.58 110.97,-148.43 131.38,-145.29"/>
<polygon fill="midnightblue" stroke="midnightblue" points="72.75,-150.77 63.4,-155.75 73.81,-157.69 72.75,-150.77"/>
</g>
<!-- Node20 -->
<g id="node6" class="node">
<title>Node20</title>
<g id="a_node6"><a xlink:href="class_mediwatch_1_1_server_1_1_migrations_1_1_db_context_mediwatch_migrations_1_1join_formation_add_t_able.html" target="_top" xlink:title=" ">
<polygon fill="white" stroke="black" points="131.5,-50 131.5,-91 325.5,-91 325.5,-50 131.5,-50"/>
<text text-anchor="start" x="139.5" y="-79" font-family="Helvetica,sans-Serif" font-size="10.00">Mediwatch.Server.Migrations.</text>
<text text-anchor="start" x="139.5" y="-68" font-family="Helvetica,sans-Serif" font-size="10.00">DbContextMediwatchMigrations.join</text>
<text text-anchor="middle" x="228.5" y="-57" font-family="Helvetica,sans-Serif" font-size="10.00">FormationAddTAble</text>
</a>
</g>
</g>
<!-- Node15&#45;&gt;Node20 -->
<g id="edge5" class="edge">
<title>Node15&#45;&gt;Node20</title>
<path fill="none" stroke="midnightblue" d="M47.28,-143C59.72,-129.4 78.69,-111.12 99,-100.5 109.05,-95.25 120.02,-90.9 131.17,-87.31"/>
<polygon fill="midnightblue" stroke="midnightblue" points="44.43,-140.95 40.43,-150.76 49.67,-145.58 44.43,-140.95"/>
</g>
<!-- Node21 -->
<g id="node7" class="node">
<title>Node21</title>
<g id="a_node7"><a xlink:href="class_mediwatch_1_1_server_1_1_migrations_1_1innitial_create.html" target="_top" xlink:title=" ">
<polygon fill="white" stroke="black" points="131,-0.5 131,-30.5 326,-30.5 326,-0.5 131,-0.5"/>
<text text-anchor="start" x="139" y="-18.5" font-family="Helvetica,sans-Serif" font-size="10.00">Mediwatch.Server.Migrations.innitial</text>
<text text-anchor="middle" x="228.5" y="-7.5" font-family="Helvetica,sans-Serif" font-size="10.00">Create</text>
</a>
</g>
</g>
<!-- Node15&#45;&gt;Node21 -->
<g id="edge6" class="edge">
<title>Node15&#45;&gt;Node21</title>
<path fill="none" stroke="midnightblue" d="M37.65,-141C45.86,-113.93 64.62,-65.48 99,-40.5 108.56,-33.55 119.54,-28.4 130.96,-24.59"/>
<polygon fill="midnightblue" stroke="midnightblue" points="34.22,-140.28 34.84,-150.85 40.95,-142.2 34.22,-140.28"/>
</g>
</g>
</svg>
