<?xml version="1.0" encoding="UTF-8" standalone="no"?>
<!DOCTYPE svg PUBLIC "-//W3C//DTD SVG 1.1//EN"
 "http://www.w3.org/Graphics/SVG/1.1/DTD/svg11.dtd">
<!-- Generated by graphviz version 2.43.0 (0)
 -->
<!-- Title: Graphe hiérarchique des classes Pages: 1 -->
<svg width="366pt" height="209pt"
 viewBox="0.00 0.00 366.00 209.00" xmlns="http://www.w3.org/2000/svg" xmlns:xlink="http://www.w3.org/1999/xlink">
<g id="graph0" class="graph" transform="scale(1 1) rotate(0) translate(4 205)">
<title>Graphe hiérarchique des classes</title>
<polygon fill="white" stroke="transparent" points="-4,4 -4,-205 362,-205 362,4 -4,4"/>
<!-- Node8 -->
<g id="node1" class="node">
<title>Node8</title>
<g id="a_node1"><a xlink:title=" ">
<polygon fill="white" stroke="#bfbfbf" points="0,-91 0,-110 63,-110 63,-91 0,-91"/>
<text text-anchor="middle" x="31.5" y="-98" font-family="Helvetica,sans-Serif" font-size="10.00">Migration</text>
</a>
</g>
</g>
<!-- Node0 -->
<g id="node2" class="node">
<title>Node0</title>
<g id="a_node2"><a xlink:href="class_mediwatch_1_1_server_1_1_migrations_1_1_add_field_to_entity1.html" target="_top" xlink:title=" ">
<polygon fill="white" stroke="black" points="148,-170.5 148,-200.5 309,-200.5 309,-170.5 148,-170.5"/>
<text text-anchor="start" x="156" y="-188.5" font-family="Helvetica,sans-Serif" font-size="10.00">Mediwatch.Server.Migrations.</text>
<text text-anchor="middle" x="228.5" y="-177.5" font-family="Helvetica,sans-Serif" font-size="10.00">AddFieldToEntity1</text>
</a>
</g>
</g>
<!-- Node8&#45;&gt;Node0 -->
<g id="edge1" class="edge">
<title>Node8&#45;&gt;Node0</title>
<path fill="none" stroke="midnightblue" d="M47.18,-118.2C59.55,-131.92 78.49,-150.26 99,-160.5 114.05,-168.01 131.13,-173.27 147.82,-176.95"/>
<polygon fill="midnightblue" stroke="midnightblue" points="49.57,-115.62 40.36,-110.37 44.29,-120.21 49.57,-115.62"/>
</g>
<!-- Node10 -->
<g id="node3" class="node">
<title>Node10</title>
<g id="a_node3"><a xlink:href="class_mediwatch_1_1_server_1_1_migrations_1_1_db_context_mediwatch_migrations_1_1_applicantsession_idformationin_g_u_i_d.html" target="_top" xlink:title=" ">
<polygon fill="white" stroke="black" points="99,-110 99,-151 358,-151 358,-110 99,-110"/>
<text text-anchor="start" x="107" y="-139" font-family="Helvetica,sans-Serif" font-size="10.00">Mediwatch.Server.Migrations.</text>
<text text-anchor="start" x="107" y="-128" font-family="Helvetica,sans-Serif" font-size="10.00">DbContextMediwatchMigrations.Applicantsession</text>
<text text-anchor="middle" x="228.5" y="-117" font-family="Helvetica,sans-Serif" font-size="10.00">IdformationinGUID</text>
</a>
</g>
</g>
<!-- Node8&#45;&gt;Node10 -->
<g id="edge2" class="edge">
<title>Node8&#45;&gt;Node10</title>
<path fill="none" stroke="midnightblue" d="M73.32,-106.78C81.23,-108 89.89,-109.33 98.96,-110.72"/>
<polygon fill="midnightblue" stroke="midnightblue" points="73.81,-103.31 63.4,-105.25 72.75,-110.23 73.81,-103.31"/>
</g>
<!-- Node11 -->
<g id="node4" class="node">
<title>Node11</title>
<g id="a_node4"><a xlink:href="class_mediwatch_1_1_server_1_1_migrations_1_1_db_context_mediwatch_migrations_1_1innitial_create.html" target="_top" xlink:title=" ">
<polygon fill="white" stroke="black" points="123.5,-50 123.5,-91 333.5,-91 333.5,-50 123.5,-50"/>
<text text-anchor="start" x="131.5" y="-79" font-family="Helvetica,sans-Serif" font-size="10.00">Mediwatch.Server.Migrations.</text>
<text text-anchor="start" x="131.5" y="-68" font-family="Helvetica,sans-Serif" font-size="10.00">DbContextMediwatchMigrations.innitial</text>
<text text-anchor="middle" x="228.5" y="-57" font-family="Helvetica,sans-Serif" font-size="10.00">Create</text>
</a>
</g>
</g>
<!-- Node8&#45;&gt;Node11 -->
<g id="edge3" class="edge">
<title>Node8&#45;&gt;Node11</title>
<path fill="none" stroke="midnightblue" d="M73.62,-94.17C88.33,-91.91 105.65,-89.25 123.26,-86.54"/>
<polygon fill="midnightblue" stroke="midnightblue" points="72.75,-90.77 63.4,-95.75 73.81,-97.69 72.75,-90.77"/>
</g>
<!-- Node12 -->
<g id="node5" class="node">
<title>Node12</title>
<g id="a_node5"><a xlink:href="class_mediwatch_1_1_server_1_1_migrations_1_1innitial_create.html" target="_top" xlink:title=" ">
<polygon fill="white" stroke="black" points="131,-0.5 131,-30.5 326,-30.5 326,-0.5 131,-0.5"/>
<text text-anchor="start" x="139" y="-18.5" font-family="Helvetica,sans-Serif" font-size="10.00">Mediwatch.Server.Migrations.innitial</text>
<text text-anchor="middle" x="228.5" y="-7.5" font-family="Helvetica,sans-Serif" font-size="10.00">Create</text>
</a>
</g>
</g>
<!-- Node8&#45;&gt;Node12 -->
<g id="edge4" class="edge">
<title>Node8&#45;&gt;Node12</title>
<path fill="none" stroke="midnightblue" d="M47.18,-82.8C59.55,-69.08 78.49,-50.74 99,-40.5 108.96,-35.53 119.82,-31.54 130.86,-28.34"/>
<polygon fill="midnightblue" stroke="midnightblue" points="44.29,-80.79 40.36,-90.63 49.57,-85.38 44.29,-80.79"/>
</g>
</g>
</svg>
