<?xml version="1.0" encoding="UTF-8" standalone="no"?>
<!DOCTYPE svg PUBLIC "-//W3C//DTD SVG 1.1//EN"
 "http://www.w3.org/Graphics/SVG/1.1/DTD/svg11.dtd">
<!-- Generated by graphviz version 2.40.1 (20161225.0304)
 -->
<!-- Title: Graphe hiérarchique des classes Pages: 1 -->
<svg width="250pt" height="50pt"
 viewBox="0.00 0.00 250.00 50.00" xmlns="http://www.w3.org/2000/svg" xmlns:xlink="http://www.w3.org/1999/xlink">
<g id="graph0" class="graph" transform="scale(1 1) rotate(0) translate(4 46)">
<title>Graphe hiérarchique des classes</title>
<polygon fill="#ffffff" stroke="transparent" points="-4,4 -4,-46 246,-46 246,4 -4,4"/>
<!-- Node4 -->
<g id="node1" class="node">
<title>Node4</title>
<polygon fill="#ffffff" stroke="#bfbfbf" points="0,-11.5 0,-30.5 56,-30.5 56,-11.5 0,-11.5"/>
<text text-anchor="middle" x="28" y="-18.5" font-family="Helvetica,sans-Serif" font-size="10.00" fill="#000000">Migration</text>
</g>
<!-- Node0 -->
<g id="node2" class="node">
<title>Node0</title>
<g id="a_node2"><a xlink:href="class_mediwatch_website_1_1_server_1_1_data_1_1_migrations_1_1_create_identity_schema.html" target="_top" xlink:title="MediwatchWebsite.Server.\lData.Migrations.CreateIdentity\lSchema">
<polygon fill="#ffffff" stroke="#000000" points="92,-.5 92,-41.5 242,-41.5 242,-.5 92,-.5"/>
<text text-anchor="start" x="100" y="-29.5" font-family="Helvetica,sans-Serif" font-size="10.00" fill="#000000">MediwatchWebsite.Server.</text>
<text text-anchor="start" x="100" y="-18.5" font-family="Helvetica,sans-Serif" font-size="10.00" fill="#000000">Data.Migrations.CreateIdentity</text>
<text text-anchor="middle" x="167" y="-7.5" font-family="Helvetica,sans-Serif" font-size="10.00" fill="#000000">Schema</text>
</a>
</g>
</g>
<!-- Node4&#45;&gt;Node0 -->
<g id="edge1" class="edge">
<title>Node4&#45;&gt;Node0</title>
<path fill="none" stroke="#191970" d="M66.2004,-21C74.2055,-21 82.9109,-21 91.7411,-21"/>
<polygon fill="#191970" stroke="#191970" points="66.1288,-17.5001 56.1287,-21 66.1287,-24.5001 66.1288,-17.5001"/>
</g>
</g>
</svg>
