<?xml version="1.0" encoding="UTF-8" standalone="no"?>
<!DOCTYPE svg PUBLIC "-//W3C//DTD SVG 1.1//EN"
 "http://www.w3.org/Graphics/SVG/1.1/DTD/svg11.dtd">
<!-- Generated by graphviz version 2.43.0 (0)
 -->
<!-- Title: Graphe hiérarchique des classes Pages: 1 -->
<svg width="366pt" height="449pt"
 viewBox="0.00 0.00 366.00 449.00" xmlns="http://www.w3.org/2000/svg" xmlns:xlink="http://www.w3.org/1999/xlink">
<g id="graph0" class="graph" transform="scale(1 1) rotate(0) translate(4 445)">
<title>Graphe hiérarchique des classes</title>
<polygon fill="white" stroke="transparent" points="-4,4 -4,-445 362,-445 362,4 -4,4"/>
<!-- Node18 -->
<g id="node1" class="node">
<title>Node18</title>
<g id="a_node1"><a xlink:title=" ">
<polygon fill="white" stroke="#bfbfbf" points="0,-211 0,-230 63,-230 63,-211 0,-211"/>
<text text-anchor="middle" x="31.5" y="-218" font-family="Helvetica,sans-Serif" font-size="10.00">Migration</text>
</a>
</g>
</g>
<!-- Node0 -->
<g id="node2" class="node">
<title>Node0</title>
<g id="a_node2"><a xlink:href="class_mediwatch_1_1_server_1_1_migrations_1_1_add_field_to_entity1.html" target="_top" xlink:title=" ">
<polygon fill="white" stroke="black" points="148,-410.5 148,-440.5 309,-440.5 309,-410.5 148,-410.5"/>
<text text-anchor="start" x="156" y="-428.5" font-family="Helvetica,sans-Serif" font-size="10.00">Mediwatch.Server.Migrations.</text>
<text text-anchor="middle" x="228.5" y="-417.5" font-family="Helvetica,sans-Serif" font-size="10.00">AddFieldToEntity1</text>
</a>
</g>
</g>
<!-- Node18&#45;&gt;Node0 -->
<g id="edge1" class="edge">
<title>Node18&#45;&gt;Node0</title>
<path fill="none" stroke="midnightblue" d="M33.7,-240.25C37.09,-277.67 50,-358.85 99,-400.5 112.68,-412.13 130.15,-418.96 147.78,-422.85"/>
<polygon fill="midnightblue" stroke="midnightblue" points="37.18,-239.84 32.92,-230.14 30.2,-240.38 37.18,-239.84"/>
</g>
<!-- Node20 -->
<g id="node3" class="node">
<title>Node20</title>
<g id="a_node3"><a xlink:href="class_mediwatch_1_1_server_1_1_migrations_1_1_db_context_mediwatch_migrations_1_1_applicantsession_idformationin_g_u_i_d.html" target="_top" xlink:title=" ">
<polygon fill="white" stroke="black" points="99,-350 99,-391 358,-391 358,-350 99,-350"/>
<text text-anchor="start" x="107" y="-379" font-family="Helvetica,sans-Serif" font-size="10.00">Mediwatch.Server.Migrations.</text>
<text text-anchor="start" x="107" y="-368" font-family="Helvetica,sans-Serif" font-size="10.00">DbContextMediwatchMigrations.Applicantsession</text>
<text text-anchor="middle" x="228.5" y="-357" font-family="Helvetica,sans-Serif" font-size="10.00">IdformationinGUID</text>
</a>
</g>
</g>
<!-- Node18&#45;&gt;Node20 -->
<g id="edge2" class="edge">
<title>Node18&#45;&gt;Node20</title>
<path fill="none" stroke="midnightblue" d="M37.78,-239.82C46.15,-266.68 65.09,-314.88 99,-340.5 103.66,-344.02 108.67,-347.14 113.91,-349.9"/>
<polygon fill="midnightblue" stroke="midnightblue" points="41.09,-238.66 34.91,-230.05 34.37,-240.63 41.09,-238.66"/>
</g>
<!-- Node21 -->
<g id="node4" class="node">
<title>Node21</title>
<g id="a_node4"><a xlink:href="class_mediwatch_1_1_server_1_1_migrations_1_1_db_context_mediwatch_migrations_1_1innitial_create.html" target="_top" xlink:title=" ">
<polygon fill="white" stroke="black" points="123.5,-290 123.5,-331 333.5,-331 333.5,-290 123.5,-290"/>
<text text-anchor="start" x="131.5" y="-319" font-family="Helvetica,sans-Serif" font-size="10.00">Mediwatch.Server.Migrations.</text>
<text text-anchor="start" x="131.5" y="-308" font-family="Helvetica,sans-Serif" font-size="10.00">DbContextMediwatchMigrations.innitial</text>
<text text-anchor="middle" x="228.5" y="-297" font-family="Helvetica,sans-Serif" font-size="10.00">Create</text>
</a>
</g>
</g>
<!-- Node18&#45;&gt;Node21 -->
<g id="edge3" class="edge">
<title>Node18&#45;&gt;Node21</title>
<path fill="none" stroke="midnightblue" d="M47.28,-238C59.72,-251.6 78.69,-269.88 99,-280.5 106.71,-284.53 114.97,-288.03 123.44,-291.06"/>
<polygon fill="midnightblue" stroke="midnightblue" points="49.67,-235.42 40.43,-230.24 44.43,-240.05 49.67,-235.42"/>
</g>
<!-- Node22 -->
<g id="node5" class="node">
<title>Node22</title>
<g id="a_node5"><a xlink:href="class_mediwatch_1_1_server_1_1_migrations_1_1_db_context_mediwatch_migrations_1_1int_to_guid_for_tag.html" target="_top" xlink:title=" ">
<polygon fill="white" stroke="black" points="134,-230 134,-271 323,-271 323,-230 134,-230"/>
<text text-anchor="start" x="142" y="-259" font-family="Helvetica,sans-Serif" font-size="10.00">Mediwatch.Server.Migrations.</text>
<text text-anchor="start" x="142" y="-248" font-family="Helvetica,sans-Serif" font-size="10.00">DbContextMediwatchMigrations.int</text>
<text text-anchor="middle" x="228.5" y="-237" font-family="Helvetica,sans-Serif" font-size="10.00">ToGuidForTag</text>
</a>
</g>
</g>
<!-- Node18&#45;&gt;Node22 -->
<g id="edge4" class="edge">
<title>Node18&#45;&gt;Node22</title>
<path fill="none" stroke="midnightblue" d="M73.36,-226.79C91.09,-229.51 112.64,-232.83 133.94,-236.11"/>
<polygon fill="midnightblue" stroke="midnightblue" points="73.81,-223.31 63.4,-225.25 72.75,-230.23 73.81,-223.31"/>
</g>
<!-- Node23 -->
<g id="node6" class="node">
<title>Node23</title>
<g id="a_node6"><a xlink:href="class_mediwatch_1_1_server_1_1_migrations_1_1_db_context_mediwatch_migrations_1_1join_formation_add.html" target="_top" xlink:title=" ">
<polygon fill="white" stroke="black" points="131.5,-170 131.5,-211 325.5,-211 325.5,-170 131.5,-170"/>
<text text-anchor="start" x="139.5" y="-199" font-family="Helvetica,sans-Serif" font-size="10.00">Mediwatch.Server.Migrations.</text>
<text text-anchor="start" x="139.5" y="-188" font-family="Helvetica,sans-Serif" font-size="10.00">DbContextMediwatchMigrations.join</text>
<text text-anchor="middle" x="228.5" y="-177" font-family="Helvetica,sans-Serif" font-size="10.00">FormationAdd</text>
</a>
</g>
</g>
<!-- Node18&#45;&gt;Node23 -->
<g id="edge5" class="edge">
<title>Node18&#45;&gt;Node23</title>
<path fill="none" stroke="midnightblue" d="M73.49,-214.19C90.48,-211.58 110.97,-208.43 131.38,-205.29"/>
<polygon fill="midnightblue" stroke="midnightblue" points="72.75,-210.77 63.4,-215.75 73.81,-217.69 72.75,-210.77"/>
</g>
<!-- Node24 -->
<g id="node7" class="node">
<title>Node24</title>
<g id="a_node7"><a xlink:href="class_mediwatch_1_1_server_1_1_migrations_1_1_db_context_mediwatch_migrations_1_1join_formation_add_t_able.html" target="_top" xlink:title=" ">
<polygon fill="white" stroke="black" points="131.5,-110 131.5,-151 325.5,-151 325.5,-110 131.5,-110"/>
<text text-anchor="start" x="139.5" y="-139" font-family="Helvetica,sans-Serif" font-size="10.00">Mediwatch.Server.Migrations.</text>
<text text-anchor="start" x="139.5" y="-128" font-family="Helvetica,sans-Serif" font-size="10.00">DbContextMediwatchMigrations.join</text>
<text text-anchor="middle" x="228.5" y="-117" font-family="Helvetica,sans-Serif" font-size="10.00">FormationAddTAble</text>
</a>
</g>
</g>
<!-- Node18&#45;&gt;Node24 -->
<g id="edge6" class="edge">
<title>Node18&#45;&gt;Node24</title>
<path fill="none" stroke="midnightblue" d="M47.28,-203C59.72,-189.4 78.69,-171.12 99,-160.5 109.05,-155.25 120.02,-150.9 131.17,-147.31"/>
<polygon fill="midnightblue" stroke="midnightblue" points="44.43,-200.95 40.43,-210.76 49.67,-205.58 44.43,-200.95"/>
</g>
<!-- Node25 -->
<g id="node8" class="node">
<title>Node25</title>
<g id="a_node8"><a xlink:href="class_mediwatch_1_1_server_1_1_migrations_1_1_db_context_mediwatch_migrations_1_1paypal_migration.html" target="_top" xlink:title=" ">
<polygon fill="white" stroke="black" points="124,-50 124,-91 333,-91 333,-50 124,-50"/>
<text text-anchor="start" x="132" y="-79" font-family="Helvetica,sans-Serif" font-size="10.00">Mediwatch.Server.Migrations.</text>
<text text-anchor="start" x="132" y="-68" font-family="Helvetica,sans-Serif" font-size="10.00">DbContextMediwatchMigrations.paypal</text>
<text text-anchor="middle" x="228.5" y="-57" font-family="Helvetica,sans-Serif" font-size="10.00">Migration</text>
</a>
</g>
</g>
<!-- Node18&#45;&gt;Node25 -->
<g id="edge7" class="edge">
<title>Node18&#45;&gt;Node25</title>
<path fill="none" stroke="midnightblue" d="M37.78,-201.18C46.15,-174.32 65.09,-126.12 99,-100.5 106.49,-94.84 114.88,-90.22 123.69,-86.46"/>
<polygon fill="midnightblue" stroke="midnightblue" points="34.37,-200.37 34.91,-210.95 41.09,-202.34 34.37,-200.37"/>
</g>
<!-- Node26 -->
<g id="node9" class="node">
<title>Node26</title>
<g id="a_node9"><a xlink:href="class_mediwatch_1_1_server_1_1_migrations_1_1innitial_create.html" target="_top" xlink:title=" ">
<polygon fill="white" stroke="black" points="131,-0.5 131,-30.5 326,-30.5 326,-0.5 131,-0.5"/>
<text text-anchor="start" x="139" y="-18.5" font-family="Helvetica,sans-Serif" font-size="10.00">Mediwatch.Server.Migrations.innitial</text>
<text text-anchor="middle" x="228.5" y="-7.5" font-family="Helvetica,sans-Serif" font-size="10.00">Create</text>
</a>
</g>
</g>
<!-- Node18&#45;&gt;Node26 -->
<g id="edge8" class="edge">
<title>Node18&#45;&gt;Node26</title>
<path fill="none" stroke="midnightblue" d="M33.7,-200.75C37.09,-163.33 50,-82.15 99,-40.5 108.26,-32.62 119.27,-26.95 130.88,-22.9"/>
<polygon fill="midnightblue" stroke="midnightblue" points="30.2,-200.62 32.92,-210.86 37.18,-201.16 30.2,-200.62"/>
</g>
</g>
</svg>
