<?xml version="1.0" encoding="UTF-8" standalone="no"?>
<!DOCTYPE svg PUBLIC "-//W3C//DTD SVG 1.1//EN"
 "http://www.w3.org/Graphics/SVG/1.1/DTD/svg11.dtd">
<!-- Generated by graphviz version 2.43.0 (0)
 -->
<!-- Title: Graphe hiérarchique des classes Pages: 1 -->
<svg width="366pt" height="389pt"
 viewBox="0.00 0.00 366.00 389.00" xmlns="http://www.w3.org/2000/svg" xmlns:xlink="http://www.w3.org/1999/xlink">
<g id="graph0" class="graph" transform="scale(1 1) rotate(0) translate(4 385)">
<title>Graphe hiérarchique des classes</title>
<polygon fill="white" stroke="transparent" points="-4,4 -4,-385 362,-385 362,4 -4,4"/>
<!-- Node15 -->
<g id="node1" class="node">
<title>Node15</title>
<g id="a_node1"><a xlink:title=" ">
<polygon fill="white" stroke="#bfbfbf" points="0,-181 0,-200 63,-200 63,-181 0,-181"/>
<text text-anchor="middle" x="31.5" y="-188" font-family="Helvetica,sans-Serif" font-size="10.00">Migration</text>
</a>
</g>
</g>
<!-- Node0 -->
<g id="node2" class="node">
<title>Node0</title>
<g id="a_node2"><a xlink:href="class_mediwatch_1_1_server_1_1_migrations_1_1_add_field_to_entity1.html" target="_top" xlink:title=" ">
<polygon fill="white" stroke="black" points="148,-350.5 148,-380.5 309,-380.5 309,-350.5 148,-350.5"/>
<text text-anchor="start" x="156" y="-368.5" font-family="Helvetica,sans-Serif" font-size="10.00">Mediwatch.Server.Migrations.</text>
<text text-anchor="middle" x="228.5" y="-357.5" font-family="Helvetica,sans-Serif" font-size="10.00">AddFieldToEntity1</text>
</a>
</g>
</g>
<!-- Node15&#45;&gt;Node0 -->
<g id="edge1" class="edge">
<title>Node15&#45;&gt;Node0</title>
<path fill="none" stroke="midnightblue" d="M35.31,-210.1C41.07,-242.6 57.35,-307.31 99,-340.5 112.95,-351.62 130.43,-358.27 147.96,-362.15"/>
<polygon fill="midnightblue" stroke="midnightblue" points="38.74,-209.37 33.69,-200.06 31.83,-210.49 38.74,-209.37"/>
</g>
<!-- Node17 -->
<g id="node3" class="node">
<title>Node17</title>
<g id="a_node3"><a xlink:href="class_mediwatch_1_1_server_1_1_migrations_1_1_db_context_mediwatch_migrations_1_1_applicantsession_idformationin_g_u_i_d.html" target="_top" xlink:title=" ">
<polygon fill="white" stroke="black" points="99,-290 99,-331 358,-331 358,-290 99,-290"/>
<text text-anchor="start" x="107" y="-319" font-family="Helvetica,sans-Serif" font-size="10.00">Mediwatch.Server.Migrations.</text>
<text text-anchor="start" x="107" y="-308" font-family="Helvetica,sans-Serif" font-size="10.00">DbContextMediwatchMigrations.Applicantsession</text>
<text text-anchor="middle" x="228.5" y="-297" font-family="Helvetica,sans-Serif" font-size="10.00">IdformationinGUID</text>
</a>
</g>
</g>
<!-- Node15&#45;&gt;Node17 -->
<g id="edge2" class="edge">
<title>Node15&#45;&gt;Node17</title>
<path fill="none" stroke="midnightblue" d="M41.25,-209.21C51.92,-229.91 71.94,-262.7 99,-280.5 104.36,-284.03 110.08,-287.14 116.03,-289.89"/>
<polygon fill="midnightblue" stroke="midnightblue" points="44.34,-207.55 36.77,-200.13 38.06,-210.65 44.34,-207.55"/>
</g>
<!-- Node18 -->
<g id="node4" class="node">
<title>Node18</title>
<g id="a_node4"><a xlink:href="class_mediwatch_1_1_server_1_1_migrations_1_1_db_context_mediwatch_migrations_1_1innitial_create.html" target="_top" xlink:title=" ">
<polygon fill="white" stroke="black" points="123.5,-230 123.5,-271 333.5,-271 333.5,-230 123.5,-230"/>
<text text-anchor="start" x="131.5" y="-259" font-family="Helvetica,sans-Serif" font-size="10.00">Mediwatch.Server.Migrations.</text>
<text text-anchor="start" x="131.5" y="-248" font-family="Helvetica,sans-Serif" font-size="10.00">DbContextMediwatchMigrations.innitial</text>
<text text-anchor="middle" x="228.5" y="-237" font-family="Helvetica,sans-Serif" font-size="10.00">Create</text>
</a>
</g>
</g>
<!-- Node15&#45;&gt;Node18 -->
<g id="edge3" class="edge">
<title>Node15&#45;&gt;Node18</title>
<path fill="none" stroke="midnightblue" d="M60.3,-204.5C72.03,-210.02 85.97,-216.09 99,-220.5 109.09,-223.92 119.75,-227.08 130.45,-229.98"/>
<polygon fill="midnightblue" stroke="midnightblue" points="61.55,-201.22 51.03,-200.03 58.52,-207.52 61.55,-201.22"/>
</g>
<!-- Node19 -->
<g id="node5" class="node">
<title>Node19</title>
<g id="a_node5"><a xlink:href="class_mediwatch_1_1_server_1_1_migrations_1_1_db_context_mediwatch_migrations_1_1int_to_guid_for_tag.html" target="_top" xlink:title=" ">
<polygon fill="white" stroke="black" points="134,-170 134,-211 323,-211 323,-170 134,-170"/>
<text text-anchor="start" x="142" y="-199" font-family="Helvetica,sans-Serif" font-size="10.00">Mediwatch.Server.Migrations.</text>
<text text-anchor="start" x="142" y="-188" font-family="Helvetica,sans-Serif" font-size="10.00">DbContextMediwatchMigrations.int</text>
<text text-anchor="middle" x="228.5" y="-177" font-family="Helvetica,sans-Serif" font-size="10.00">ToGuidForTag</text>
</a>
</g>
</g>
<!-- Node15&#45;&gt;Node19 -->
<g id="edge4" class="edge">
<title>Node15&#45;&gt;Node19</title>
<path fill="none" stroke="midnightblue" d="M73.86,-190.5C91.49,-190.5 112.84,-190.5 133.94,-190.5"/>
<polygon fill="midnightblue" stroke="midnightblue" points="73.4,-187 63.4,-190.5 73.4,-194 73.4,-187"/>
</g>
<!-- Node20 -->
<g id="node6" class="node">
<title>Node20</title>
<g id="a_node6"><a xlink:href="class_mediwatch_1_1_server_1_1_migrations_1_1_db_context_mediwatch_migrations_1_1join_formation_add.html" target="_top" xlink:title=" ">
<polygon fill="white" stroke="black" points="131.5,-110 131.5,-151 325.5,-151 325.5,-110 131.5,-110"/>
<text text-anchor="start" x="139.5" y="-139" font-family="Helvetica,sans-Serif" font-size="10.00">Mediwatch.Server.Migrations.</text>
<text text-anchor="start" x="139.5" y="-128" font-family="Helvetica,sans-Serif" font-size="10.00">DbContextMediwatchMigrations.join</text>
<text text-anchor="middle" x="228.5" y="-117" font-family="Helvetica,sans-Serif" font-size="10.00">FormationAdd</text>
</a>
</g>
</g>
<!-- Node15&#45;&gt;Node20 -->
<g id="edge5" class="edge">
<title>Node15&#45;&gt;Node20</title>
<path fill="none" stroke="midnightblue" d="M60.3,-176.5C72.03,-170.98 85.97,-164.91 99,-160.5 109.42,-156.97 120.44,-153.71 131.49,-150.75"/>
<polygon fill="midnightblue" stroke="midnightblue" points="58.52,-173.48 51.03,-180.97 61.55,-179.78 58.52,-173.48"/>
</g>
<!-- Node21 -->
<g id="node7" class="node">
<title>Node21</title>
<g id="a_node7"><a xlink:href="class_mediwatch_1_1_server_1_1_migrations_1_1_db_context_mediwatch_migrations_1_1join_formation_add_t_able.html" target="_top" xlink:title=" ">
<polygon fill="white" stroke="black" points="131.5,-50 131.5,-91 325.5,-91 325.5,-50 131.5,-50"/>
<text text-anchor="start" x="139.5" y="-79" font-family="Helvetica,sans-Serif" font-size="10.00">Mediwatch.Server.Migrations.</text>
<text text-anchor="start" x="139.5" y="-68" font-family="Helvetica,sans-Serif" font-size="10.00">DbContextMediwatchMigrations.join</text>
<text text-anchor="middle" x="228.5" y="-57" font-family="Helvetica,sans-Serif" font-size="10.00">FormationAddTAble</text>
</a>
</g>
</g>
<!-- Node15&#45;&gt;Node21 -->
<g id="edge6" class="edge">
<title>Node15&#45;&gt;Node21</title>
<path fill="none" stroke="midnightblue" d="M41.25,-171.79C51.92,-151.09 71.94,-118.3 99,-100.5 108.86,-94.02 119.95,-88.93 131.38,-84.93"/>
<polygon fill="midnightblue" stroke="midnightblue" points="38.06,-170.35 36.77,-180.87 44.34,-173.45 38.06,-170.35"/>
</g>
<!-- Node22 -->
<g id="node8" class="node">
<title>Node22</title>
<g id="a_node8"><a xlink:href="class_mediwatch_1_1_server_1_1_migrations_1_1innitial_create.html" target="_top" xlink:title=" ">
<polygon fill="white" stroke="black" points="131,-0.5 131,-30.5 326,-30.5 326,-0.5 131,-0.5"/>
<text text-anchor="start" x="139" y="-18.5" font-family="Helvetica,sans-Serif" font-size="10.00">Mediwatch.Server.Migrations.innitial</text>
<text text-anchor="middle" x="228.5" y="-7.5" font-family="Helvetica,sans-Serif" font-size="10.00">Create</text>
</a>
</g>
</g>
<!-- Node15&#45;&gt;Node22 -->
<g id="edge7" class="edge">
<title>Node15&#45;&gt;Node22</title>
<path fill="none" stroke="midnightblue" d="M35.31,-170.9C41.07,-138.4 57.35,-73.69 99,-40.5 108.33,-33.06 119.24,-27.63 130.69,-23.68"/>
<polygon fill="midnightblue" stroke="midnightblue" points="31.83,-170.51 33.69,-180.94 38.74,-171.63 31.83,-170.51"/>
</g>
</g>
</svg>
