<?xml version="1.0" encoding="UTF-8" standalone="no"?>
<!DOCTYPE svg PUBLIC "-//W3C//DTD SVG 1.1//EN"
 "http://www.w3.org/Graphics/SVG/1.1/DTD/svg11.dtd">
<!-- Generated by graphviz version 2.40.1 (20161225.0304)
 -->
<!-- Title: Graphe hiérarchique des classes Pages: 1 -->
<svg width="266pt" height="186pt"
 viewBox="0.00 0.00 266.00 186.00" xmlns="http://www.w3.org/2000/svg" xmlns:xlink="http://www.w3.org/1999/xlink">
<g id="graph0" class="graph" transform="scale(1 1) rotate(0) translate(4 182)">
<title>Graphe hiérarchique des classes</title>
<polygon fill="#ffffff" stroke="transparent" points="-4,4 -4,-182 262,-182 262,4 -4,4"/>
<!-- Node8 -->
<g id="node1" class="node">
<title>Node8</title>
<polygon fill="#ffffff" stroke="#bfbfbf" points="0,-79 0,-98 56,-98 56,-79 0,-79"/>
<text text-anchor="middle" x="28" y="-86" font-family="Helvetica,sans-Serif" font-size="10.00" fill="#000000">Migration</text>
</g>
<!-- Node0 -->
<g id="node2" class="node">
<title>Node0</title>
<g id="a_node2"><a xlink:href="class_mediwatch_1_1_server_1_1_migrations_1_1_identity_data_1_1_user_role.html" target="_top" xlink:title="Mediwatch.Server.Migrations.\lIdentityData.UserRole">
<polygon fill="#ffffff" stroke="#000000" points="102,-147.5 102,-177.5 248,-177.5 248,-147.5 102,-147.5"/>
<text text-anchor="start" x="110" y="-165.5" font-family="Helvetica,sans-Serif" font-size="10.00" fill="#000000">Mediwatch.Server.Migrations.</text>
<text text-anchor="middle" x="175" y="-154.5" font-family="Helvetica,sans-Serif" font-size="10.00" fill="#000000">IdentityData.UserRole</text>
</a>
</g>
</g>
<!-- Node8&#45;&gt;Node0 -->
<g id="edge1" class="edge">
<title>Node8&#45;&gt;Node0</title>
<path fill="none" stroke="#191970" d="M45.6134,-105.2893C57.8035,-116.1096 74.8609,-129.7434 92,-138.5 98.5452,-141.8441 105.6257,-144.7872 112.7967,-147.3605"/>
<polygon fill="#191970" stroke="#191970" points="47.7538,-102.5039 38.0105,-98.3422 43.0319,-107.6716 47.7538,-102.5039"/>
</g>
<!-- Node10 -->
<g id="node3" class="node">
<title>Node10</title>
<g id="a_node3"><a xlink:href="class_mediwatch_1_1_server_1_1_migrations_1_1_migration_add_order_controller__price.html" target="_top" xlink:title="Mediwatch.Server.Migrations.\lMigrationAddOrderController_price">
<polygon fill="#ffffff" stroke="#000000" points="92,-98.5 92,-128.5 258,-128.5 258,-98.5 92,-98.5"/>
<text text-anchor="start" x="100" y="-116.5" font-family="Helvetica,sans-Serif" font-size="10.00" fill="#000000">Mediwatch.Server.Migrations.</text>
<text text-anchor="middle" x="175" y="-105.5" font-family="Helvetica,sans-Serif" font-size="10.00" fill="#000000">MigrationAddOrderController_price</text>
</a>
</g>
</g>
<!-- Node8&#45;&gt;Node10 -->
<g id="edge2" class="edge">
<title>Node8&#45;&gt;Node10</title>
<path fill="none" stroke="#191970" d="M66.3823,-95.0276C74.3701,-96.3861 83.0813,-97.8676 91.9819,-99.3813"/>
<polygon fill="#191970" stroke="#191970" points="66.7884,-91.5465 56.3431,-93.3203 65.6147,-98.4474 66.7884,-91.5465"/>
</g>
<!-- Node11 -->
<g id="node4" class="node">
<title>Node11</title>
<g id="a_node4"><a xlink:href="class_mediwatch_1_1_server_1_1_migrations_1_1_migration_add_order_controllercs.html" target="_top" xlink:title="Mediwatch.Server.Migrations.\lMigrationAddOrderControllercs">
<polygon fill="#ffffff" stroke="#000000" points="100,-49.5 100,-79.5 250,-79.5 250,-49.5 100,-49.5"/>
<text text-anchor="start" x="108" y="-67.5" font-family="Helvetica,sans-Serif" font-size="10.00" fill="#000000">Mediwatch.Server.Migrations.</text>
<text text-anchor="middle" x="175" y="-56.5" font-family="Helvetica,sans-Serif" font-size="10.00" fill="#000000">MigrationAddOrderControllercs</text>
</a>
</g>
</g>
<!-- Node8&#45;&gt;Node11 -->
<g id="edge3" class="edge">
<title>Node8&#45;&gt;Node11</title>
<path fill="none" stroke="#191970" d="M66.2208,-82.2599C76.5475,-80.5739 88.0921,-78.689 99.6968,-76.7944"/>
<polygon fill="#191970" stroke="#191970" points="65.6484,-78.8069 56.3431,-83.8726 66.7764,-85.7154 65.6484,-78.8069"/>
</g>
<!-- Node12 -->
<g id="node5" class="node">
<title>Node12</title>
<g id="a_node5"><a xlink:href="class_mediwatch_1_1_server_1_1_migrations_1_1_migration_change_id_user.html" target="_top" xlink:title="Mediwatch.Server.Migrations.\lMigrationChangeIdUser">
<polygon fill="#ffffff" stroke="#000000" points="102,-.5 102,-30.5 248,-30.5 248,-.5 102,-.5"/>
<text text-anchor="start" x="110" y="-18.5" font-family="Helvetica,sans-Serif" font-size="10.00" fill="#000000">Mediwatch.Server.Migrations.</text>
<text text-anchor="middle" x="175" y="-7.5" font-family="Helvetica,sans-Serif" font-size="10.00" fill="#000000">MigrationChangeIdUser</text>
</a>
</g>
</g>
<!-- Node8&#45;&gt;Node12 -->
<g id="edge4" class="edge">
<title>Node8&#45;&gt;Node12</title>
<path fill="none" stroke="#191970" d="M46.1965,-72.1073C58.4149,-61.8206 75.2819,-48.9509 92,-40.5 99.3869,-36.766 107.4309,-33.4825 115.5086,-30.6282"/>
<polygon fill="#191970" stroke="#191970" points="43.8132,-69.5412 38.5393,-78.7301 48.3924,-74.8356 43.8132,-69.5412"/>
</g>
</g>
</svg>
