<?xml version="1.0" encoding="UTF-8" standalone="no"?>
<!DOCTYPE svg PUBLIC "-//W3C//DTD SVG 1.1//EN"
 "http://www.w3.org/Graphics/SVG/1.1/DTD/svg11.dtd">
<!-- Generated by graphviz version 2.43.0 (0)
 -->
<!-- Title: Graphe hiérarchique des classes Pages: 1 -->
<svg width="300pt" height="529pt"
 viewBox="0.00 0.00 300.00 529.00" xmlns="http://www.w3.org/2000/svg" xmlns:xlink="http://www.w3.org/1999/xlink">
<g id="graph0" class="graph" transform="scale(1 1) rotate(0) translate(4 525)">
<title>Graphe hiérarchique des classes</title>
<polygon fill="white" stroke="transparent" points="-4,4 -4,-525 296,-525 296,4 -4,4"/>
<!-- Node26 -->
<g id="node1" class="node">
<title>Node26</title>
<g id="a_node1"><a xlink:title=" ">
<polygon fill="white" stroke="#bfbfbf" points="0,-251 0,-270 89,-270 89,-251 0,-251"/>
<text text-anchor="middle" x="44.5" y="-258" font-family="Helvetica,sans-Serif" font-size="10.00">ControllerBase</text>
</a>
</g>
</g>
<!-- Node0 -->
<g id="node2" class="node">
<title>Node0</title>
<g id="a_node2"><a xlink:href="class_blazing_blog_1_1_server_1_1_controllers_1_1_articles_controller.html" target="_top" xlink:title=" ">
<polygon fill="white" stroke="black" points="125,-490.5 125,-520.5 292,-520.5 292,-490.5 125,-490.5"/>
<text text-anchor="start" x="133" y="-508.5" font-family="Helvetica,sans-Serif" font-size="10.00">BlazingBlog.Server.Controllers.</text>
<text text-anchor="middle" x="208.5" y="-497.5" font-family="Helvetica,sans-Serif" font-size="10.00">ArticlesController</text>
</a>
</g>
</g>
<!-- Node26&#45;&gt;Node0 -->
<g id="edge1" class="edge">
<title>Node26&#45;&gt;Node0</title>
<path fill="none" stroke="midnightblue" d="M46.76,-280.1C50.6,-323.01 65.81,-425.88 125,-481.5 128.7,-484.97 132.87,-487.95 137.32,-490.49"/>
<polygon fill="midnightblue" stroke="midnightblue" points="50.25,-279.8 45.98,-270.11 43.27,-280.35 50.25,-279.8"/>
</g>
<!-- Node28 -->
<g id="node3" class="node">
<title>Node28</title>
<g id="a_node3"><a xlink:href="class_blazing_blog_1_1_server_1_1_controllers_1_1_blog_utils_controller.html" target="_top" xlink:title=" ">
<polygon fill="white" stroke="black" points="125,-441.5 125,-471.5 292,-471.5 292,-441.5 125,-441.5"/>
<text text-anchor="start" x="133" y="-459.5" font-family="Helvetica,sans-Serif" font-size="10.00">BlazingBlog.Server.Controllers.</text>
<text text-anchor="middle" x="208.5" y="-448.5" font-family="Helvetica,sans-Serif" font-size="10.00">BlogUtilsController</text>
</a>
</g>
</g>
<!-- Node26&#45;&gt;Node28 -->
<g id="edge2" class="edge">
<title>Node26&#45;&gt;Node28</title>
<path fill="none" stroke="midnightblue" d="M49.13,-280.55C56.69,-316.42 77.52,-391.65 125,-432.5 128.96,-435.9 133.38,-438.83 138.05,-441.34"/>
<polygon fill="midnightblue" stroke="midnightblue" points="52.5,-279.51 47.13,-270.38 45.63,-280.87 52.5,-279.51"/>
</g>
<!-- Node29 -->
<g id="node4" class="node">
<title>Node29</title>
<g id="a_node4"><a xlink:href="class_mediwatch_1_1_server_1_1_controllers_1_1_account_controller.html" target="_top" xlink:title=" ">
<polygon fill="white" stroke="black" points="127,-392.5 127,-422.5 290,-422.5 290,-392.5 127,-392.5"/>
<text text-anchor="start" x="135" y="-410.5" font-family="Helvetica,sans-Serif" font-size="10.00">Mediwatch.Server.Controllers.</text>
<text text-anchor="middle" x="208.5" y="-399.5" font-family="Helvetica,sans-Serif" font-size="10.00">AccountController</text>
</a>
</g>
</g>
<!-- Node26&#45;&gt;Node29 -->
<g id="edge3" class="edge">
<title>Node26&#45;&gt;Node29</title>
<path fill="none" stroke="midnightblue" d="M52.8,-279.72C64.11,-306.9 88.45,-356.29 125,-383.5 129.67,-386.97 134.83,-389.95 140.22,-392.49"/>
<polygon fill="midnightblue" stroke="midnightblue" points="55.95,-278.16 48.99,-270.17 49.45,-280.75 55.95,-278.16"/>
</g>
<!-- Node30 -->
<g id="node5" class="node">
<title>Node30</title>
<g id="a_node5"><a xlink:href="class_mediwatch_1_1_server_1_1_controllers_1_1_applicant_session_controller.html" target="_top" xlink:title=" ">
<polygon fill="white" stroke="black" points="127,-343.5 127,-373.5 290,-373.5 290,-343.5 127,-343.5"/>
<text text-anchor="start" x="135" y="-361.5" font-family="Helvetica,sans-Serif" font-size="10.00">Mediwatch.Server.Controllers.</text>
<text text-anchor="middle" x="208.5" y="-350.5" font-family="Helvetica,sans-Serif" font-size="10.00">ApplicantSessionController</text>
</a>
</g>
</g>
<!-- Node26&#45;&gt;Node30 -->
<g id="edge4" class="edge">
<title>Node26&#45;&gt;Node30</title>
<path fill="none" stroke="midnightblue" d="M60.03,-278.14C74.76,-294.93 99.03,-319.76 125,-334.5 130.97,-337.89 137.45,-340.83 144.08,-343.38"/>
<polygon fill="midnightblue" stroke="midnightblue" points="62.4,-275.52 53.24,-270.19 57.07,-280.07 62.4,-275.52"/>
</g>
<!-- Node31 -->
<g id="node6" class="node">
<title>Node31</title>
<g id="a_node6"><a xlink:href="class_mediwatch_1_1_server_1_1_controllers_1_1_compagny_controller.html" target="_top" xlink:title=" ">
<polygon fill="white" stroke="black" points="127,-294.5 127,-324.5 290,-324.5 290,-294.5 127,-294.5"/>
<text text-anchor="start" x="135" y="-312.5" font-family="Helvetica,sans-Serif" font-size="10.00">Mediwatch.Server.Controllers.</text>
<text text-anchor="middle" x="208.5" y="-301.5" font-family="Helvetica,sans-Serif" font-size="10.00">CompagnyController</text>
</a>
</g>
</g>
<!-- Node26&#45;&gt;Node31 -->
<g id="edge5" class="edge">
<title>Node26&#45;&gt;Node31</title>
<path fill="none" stroke="midnightblue" d="M85.12,-273.14C97.84,-277.15 112,-281.56 125,-285.5 134.71,-288.44 145.08,-291.51 155.08,-294.43"/>
<polygon fill="midnightblue" stroke="midnightblue" points="85.87,-269.71 75.28,-270.03 83.76,-276.38 85.87,-269.71"/>
</g>
<!-- Node32 -->
<g id="node7" class="node">
<title>Node32</title>
<g id="a_node7"><a xlink:href="class_mediwatch_1_1_server_1_1_controllers_1_1_formation_controller.html" target="_top" xlink:title=" ">
<polygon fill="white" stroke="black" points="127,-245.5 127,-275.5 290,-275.5 290,-245.5 127,-245.5"/>
<text text-anchor="start" x="135" y="-263.5" font-family="Helvetica,sans-Serif" font-size="10.00">Mediwatch.Server.Controllers.</text>
<text text-anchor="middle" x="208.5" y="-252.5" font-family="Helvetica,sans-Serif" font-size="10.00">FormationController</text>
</a>
</g>
</g>
<!-- Node26&#45;&gt;Node32 -->
<g id="edge6" class="edge">
<title>Node26&#45;&gt;Node32</title>
<path fill="none" stroke="midnightblue" d="M99.42,-260.5C108.23,-260.5 117.51,-260.5 126.79,-260.5"/>
<polygon fill="midnightblue" stroke="midnightblue" points="99.34,-257 89.34,-260.5 99.34,-264 99.34,-257"/>
</g>
<!-- Node33 -->
<g id="node8" class="node">
<title>Node33</title>
<g id="a_node8"><a xlink:href="class_mediwatch_1_1_server_1_1_controllers_1_1_join_tag_formation_controller.html" target="_top" xlink:title=" ">
<polygon fill="white" stroke="black" points="127,-196.5 127,-226.5 290,-226.5 290,-196.5 127,-196.5"/>
<text text-anchor="start" x="135" y="-214.5" font-family="Helvetica,sans-Serif" font-size="10.00">Mediwatch.Server.Controllers.</text>
<text text-anchor="middle" x="208.5" y="-203.5" font-family="Helvetica,sans-Serif" font-size="10.00">JoinTagFormationController</text>
</a>
</g>
</g>
<!-- Node26&#45;&gt;Node33 -->
<g id="edge7" class="edge">
<title>Node26&#45;&gt;Node33</title>
<path fill="none" stroke="midnightblue" d="M86.97,-247.96C108.55,-241.43 135.1,-233.4 157.79,-226.54"/>
<polygon fill="midnightblue" stroke="midnightblue" points="85.68,-244.69 77.12,-250.94 87.7,-251.39 85.68,-244.69"/>
</g>
<!-- Node34 -->
<g id="node9" class="node">
<title>Node34</title>
<g id="a_node9"><a xlink:href="class_mediwatch_1_1_server_1_1_controllers_1_1_order_controller.html" target="_top" xlink:title=" ">
<polygon fill="white" stroke="black" points="127,-147.5 127,-177.5 290,-177.5 290,-147.5 127,-147.5"/>
<text text-anchor="start" x="135" y="-165.5" font-family="Helvetica,sans-Serif" font-size="10.00">Mediwatch.Server.Controllers.</text>
<text text-anchor="middle" x="208.5" y="-154.5" font-family="Helvetica,sans-Serif" font-size="10.00">OrderController</text>
</a>
</g>
</g>
<!-- Node26&#45;&gt;Node34 -->
<g id="edge8" class="edge">
<title>Node26&#45;&gt;Node34</title>
<path fill="none" stroke="midnightblue" d="M60.12,-243.17C74.91,-226.66 99.22,-202.21 125,-187.5 131.63,-183.72 138.89,-180.45 146.27,-177.64"/>
<polygon fill="midnightblue" stroke="midnightblue" points="57.23,-241.15 53.29,-250.99 62.51,-245.76 57.23,-241.15"/>
</g>
<!-- Node35 -->
<g id="node10" class="node">
<title>Node35</title>
<g id="a_node10"><a xlink:href="class_mediwatch_1_1_server_1_1_controllers_1_1_tag_controller.html" target="_top" xlink:title=" ">
<polygon fill="white" stroke="black" points="127,-98.5 127,-128.5 290,-128.5 290,-98.5 127,-98.5"/>
<text text-anchor="start" x="135" y="-116.5" font-family="Helvetica,sans-Serif" font-size="10.00">Mediwatch.Server.Controllers.</text>
<text text-anchor="middle" x="208.5" y="-105.5" font-family="Helvetica,sans-Serif" font-size="10.00">TagController</text>
</a>
</g>
</g>
<!-- Node26&#45;&gt;Node35 -->
<g id="edge9" class="edge">
<title>Node26&#45;&gt;Node35</title>
<path fill="none" stroke="midnightblue" d="M52.89,-241.49C64.3,-214.6 88.76,-165.69 125,-138.5 130.15,-134.64 135.89,-131.37 141.89,-128.6"/>
<polygon fill="midnightblue" stroke="midnightblue" points="49.57,-240.36 49.03,-250.94 56.05,-243 49.57,-240.36"/>
</g>
<!-- Node36 -->
<g id="node11" class="node">
<title>Node36</title>
<g id="a_node11"><a xlink:href="class_mediwatch_1_1_server_1_1_controllers_1_1_users_controller.html" target="_top" xlink:title=" ">
<polygon fill="white" stroke="black" points="127,-49.5 127,-79.5 290,-79.5 290,-49.5 127,-49.5"/>
<text text-anchor="start" x="135" y="-67.5" font-family="Helvetica,sans-Serif" font-size="10.00">Mediwatch.Server.Controllers.</text>
<text text-anchor="middle" x="208.5" y="-56.5" font-family="Helvetica,sans-Serif" font-size="10.00">UsersController</text>
</a>
</g>
</g>
<!-- Node26&#45;&gt;Node36 -->
<g id="edge10" class="edge">
<title>Node26&#45;&gt;Node36</title>
<path fill="none" stroke="midnightblue" d="M49.21,-240.62C56.9,-205.03 77.93,-130.36 125,-89.5 129.41,-85.67 134.39,-82.43 139.66,-79.69"/>
<polygon fill="midnightblue" stroke="midnightblue" points="45.72,-240.21 47.17,-250.7 52.59,-241.6 45.72,-240.21"/>
</g>
<!-- Node37 -->
<g id="node12" class="node">
<title>Node37</title>
<g id="a_node12"><a xlink:href="class_mediwatch_1_1_server_1_1_controllers_1_1_weather_forecast_controller.html" target="_top" xlink:title=" ">
<polygon fill="white" stroke="black" points="127,-0.5 127,-30.5 290,-30.5 290,-0.5 127,-0.5"/>
<text text-anchor="start" x="135" y="-18.5" font-family="Helvetica,sans-Serif" font-size="10.00">Mediwatch.Server.Controllers.</text>
<text text-anchor="middle" x="208.5" y="-7.5" font-family="Helvetica,sans-Serif" font-size="10.00">WeatherForecastController</text>
</a>
</g>
</g>
<!-- Node26&#45;&gt;Node37 -->
<g id="edge11" class="edge">
<title>Node26&#45;&gt;Node37</title>
<path fill="none" stroke="midnightblue" d="M46.86,-240.77C50.89,-197.98 66.44,-96.06 125,-40.5 129.02,-36.69 133.6,-33.46 138.49,-30.72"/>
<polygon fill="midnightblue" stroke="midnightblue" points="43.36,-240.71 46.02,-250.96 50.33,-241.28 43.36,-240.71"/>
</g>
</g>
</svg>
