<?xml version="1.0" encoding="UTF-8" standalone="no"?>
<!DOCTYPE svg PUBLIC "-//W3C//DTD SVG 1.1//EN" "http://www.w3.org/Graphics/SVG/1.1/DTD/svg11.dtd">
<svg width="100%" height="100%" viewBox="0 0 846 846" version="1.1" xmlns="http://www.w3.org/2000/svg" xmlns:xlink="http://www.w3.org/1999/xlink" xml:space="preserve" xmlns:serif="http://www.serif.com/" style="fill-rule:evenodd;clip-rule:evenodd;stroke-linejoin:round;stroke-miterlimit:2;">
    <g transform="matrix(1,0,0,1,-3810.23,-2998.34)">
        <g transform="matrix(1,0,0,1,-222.65,4079.87)">
            <g transform="matrix(1.39874,0,0,1.39874,-1656.18,-1281.3)">
                <g transform="matrix(1.47896,-1.47896,0.71647,0.71647,-2754.75,6220.45)">
                    <path d="M4389.58,696.136C4389.58,631.099 4364.04,578.376 4332.53,578.376C4332.53,578.376 4332.53,578.376 4332.53,578.376L4332.53,1186.59C4332.53,1251.62 4358.08,1304.35 4389.58,1304.35L4389.58,1304.35L4389.58,696.136Z" style="fill:rgb(13,202,242);"/>
                </g>
                <g transform="matrix(1.47896,-1.47896,0.301801,0.301801,-2213.87,6547.89)">
                    <path d="M4389.58,857.935C4389.58,703.539 4364.04,578.376 4332.53,578.376C4332.53,578.376 4332.53,578.376 4332.53,578.376L4332.53,1208.79C4332.53,1261.57 4341.27,1304.35 4352.03,1304.35C4368.56,1304.35 4389.58,1304.35 4389.58,1304.35L4389.58,857.935Z" style="fill:rgb(13,121,242);"/>
                </g>
                <g transform="matrix(1.47896,-1.47896,0.300125,0.300125,-2513.94,6676.43)">
                    <path d="M4389.58,674.464C4389.58,648.98 4387.53,624.54 4383.87,606.519C4380.21,588.499 4375.26,578.376 4370.08,578.376C4353.56,578.376 4332.53,578.376 4332.53,578.376L4332.53,1023.23C4332.53,1178.49 4358.08,1304.35 4389.58,1304.35C4389.58,1304.35 4389.58,1304.35 4389.58,1304.35C4389.58,1304.35 4389.58,871.798 4389.58,674.464Z" style="fill:rgb(13,242,201);"/>
                </g>
                <g transform="matrix(1.47896,-1.47896,0.14395,0.14395,-2007.98,6551.58)">
                    <path d="M4389.58,1164.49C4389.58,840.789 4364.04,578.376 4332.53,578.376L4332.53,578.376L4332.53,1104.01C4332.53,1214.65 4341.27,1304.35 4352.03,1304.35C4368.56,1304.35 4389.58,1304.35 4389.58,1304.35L4389.58,1164.49Z" style="fill:rgb(13,40,242);"/>
                </g>
                <g transform="matrix(1.47896,-1.47896,0.14395,0.14395,-2423.61,6967.21)">
                    <path d="M4389.58,778.714C4389.58,668.07 4380.85,578.376 4370.08,578.376C4353.56,578.376 4332.53,578.376 4332.53,578.376L4332.53,718.231C4332.53,1041.93 4358.08,1304.35 4389.58,1304.35C4389.58,1304.35 4389.58,1304.35 4389.58,1304.35C4389.58,1304.35 4389.58,993.595 4389.58,778.714Z" style="fill:rgb(13,242,121);"/>
                </g>
            </g>
        </g>
    </g>
</svg>
