<?xml version="1.0" encoding="UTF-8" standalone="no"?>
<svg
   xmlns:dc="http://purl.org/dc/elements/1.1/"
   xmlns:cc="http://creativecommons.org/ns#"
   xmlns:rdf="http://www.w3.org/1999/02/22-rdf-syntax-ns#"
   xmlns:svg="http://www.w3.org/2000/svg"
   xmlns="http://www.w3.org/2000/svg"
   xmlns:sodipodi="http://sodipodi.sourceforge.net/DTD/sodipodi-0.dtd"
   xmlns:inkscape="http://www.inkscape.org/namespaces/inkscape"
   inkscape:version="1.1-dev (6c977cb, 2020-02-03)"
   sodipodi:docname="MediwatchLogoWhite.svg"
   id="svg8"
   version="1.1"
   viewBox="0 0 134.659 157.311"
   height="157.311mm"
   width="134.659mm">
  <defs
     id="defs2" />
  <sodipodi:namedview
     inkscape:window-maximized="1"
     inkscape:window-y="-9"
     inkscape:window-x="-9"
     inkscape:window-height="1013"
     inkscape:window-width="1920"
     showgrid="false"
     inkscape:current-layer="layer1"
     inkscape:document-units="mm"
     inkscape:cy="551.20067"
     inkscape:cx="552.18769"
     inkscape:zoom="0.7"
     inkscape:pageshadow="2"
     inkscape:pageopacity="0.0"
     borderopacity="1.0"
     bordercolor="#666666"
     pagecolor="#ffffff"
     id="base" />
  <metadata
     id="metadata5">
    <rdf:RDF>
      <cc:Work
         rdf:about="">
        <dc:format>image/svg+xml</dc:format>
        <dc:type
           rdf:resource="http://purl.org/dc/dcmitype/StillImage" />
        <dc:title></dc:title>
      </cc:Work>
    </rdf:RDF>
  </metadata>
  <g
     id="layer1"
     inkscape:groupmode="layer"
     inkscape:label="Calque 1">
    <path
       inkscape:connector-curvature="0"
       id="path38"
       d="m 0.06195644,119.77442 c 0,-20.644949 -0.02496,-38.056654 -0.05546,-38.692674 -0.05546,-1.15638 -0.05546,-1.15638 13.48740056,-1.15638 10.420445,0 13.566284,0.0234 13.644459,0.1016 0.07814,0.0781 0.1016,3.09769 0.1016,13.076 0,7.135924 0.0318,12.994064 0.07067,13.018094 0.0725,0.0448 2.360733,-1.39611 2.89266,-1.82154 0.162983,-0.13034 0.450465,-0.32433 0.638848,-0.43107 0.511668,-0.28992 2.341475,-1.50276 2.538527,-1.68259 0.09444,-0.0862 0.324771,-0.24373 0.511848,-0.3501 0.482106,-0.27411 2.227965,-1.43498 2.700094,-1.79536 0.218342,-0.166669 0.441693,-0.303879 0.496335,-0.304909 0.05464,-10e-4 0.194598,-0.0794 0.311015,-0.17409 0.273442,-0.22246 2.30417,-1.590245 2.706602,-1.823005 0.169868,-0.0983 0.49715,-0.32288 0.727291,-0.49916 0.230142,-0.1763 0.53274,-0.37321 0.67244,-0.4376 0.1397,-0.0644 0.50165,-0.30628 0.804333,-0.53753 0.302684,-0.23126 0.645584,-0.4659 0.762,-0.52143 0.116417,-0.0555 0.405658,-0.24621 0.642757,-0.42375 0.2371,-0.17754 0.581731,-0.40854 0.765848,-0.51334 0.512145,-0.29153 2.337044,-1.50227 2.53077,-1.67906 0.09444,-0.0862 0.324771,-0.24373 0.511848,-0.3501 0.482106,-0.27412 2.22797,-1.43498 2.70009,-1.79536 0.21835,-0.16667 0.4417,-0.30388 0.49634,-0.30491 0.0546,-0.001 0.1946,-0.0794 0.31101,-0.1741 0.27345,-0.22246 2.30417,-1.59023 2.70661,-1.823 0.16986,-0.0982 0.49715,-0.32287 0.72729,-0.49916 0.23014,-0.17629 0.53274,-0.37321 0.67244,-0.4376 0.1397,-0.0644 0.50165,-0.30679 0.80433,-0.53866 0.30268,-0.23189 0.66919,-0.4769 0.81446,-0.54447 0.14527,-0.0676 0.45007,-0.26544 0.67733,-0.43972 0.22727,-0.17427 0.54829,-0.39491 0.71339,-0.4903 0.50911,-0.29417 2.31467,-1.4963 2.4962,-1.66196 0.0944,-0.0862 0.32477,-0.24373 0.51184,-0.35009 0.48211,-0.27412 2.22797,-1.43498 2.7001,-1.79537 0.21834,-0.16666 0.44253,-0.30303 0.49821,-0.30303 0.0557,0 0.23373,-0.10852 0.39568,-0.24115 2.0343,-1.66609 3.20651,-1.68533 5.160907,-0.0847 0.16196,0.13263 0.34001,0.24115 0.39568,0.24115 0.0557,0 0.27988,0.13637 0.49821,0.30304 0.47213,0.36038 2.21799,1.52124 2.7001,1.79536 0.18708,0.10637 0.41741,0.26391 0.51184,0.3501 0.18153,0.16566 1.98709,1.36779 2.4962,1.66195 0.1651,0.0954 0.48613,0.31603 0.7134,0.49031 0.22726,0.17428 0.53206,0.37215 0.67733,0.43971 0.14527,0.0676 0.51178,0.31258 0.81446,0.54447 0.30268,0.23188 0.66463,0.47429 0.80433,0.53867 0.1397,0.0644 0.4423,0.2613 0.67244,0.4376 0.23014,0.17628 0.55742,0.40091 0.7273,0.49916 0.40243,0.23276 2.43316,1.60054 2.7066,1.823 0.11641,0.0947 0.25637,0.17305 0.31101,0.17409 0.0546,0.001 0.27799,0.13824 0.49633,0.30491 0.47213,0.36038 2.21799,1.52125 2.7001,1.79536 0.18708,0.10637 0.41741,0.26392 0.51184,0.3501 0.19374,0.17679 2.01863,1.38753 2.53077,1.67906 0.18412,0.1048 0.52876,0.3358 0.76586,0.51334 0.2371,0.17754 0.52634,0.36823 0.64275,0.42376 0.11642,0.0555 0.45932,0.29017 0.762,0.52143 0.30269,0.23125 0.66464,0.47314 0.80434,0.53752 0.1397,0.0644 0.44229,0.26131 0.67244,0.4376 0.23014,0.17628 0.55742,0.40091 0.72729,0.49916 0.40243,0.23277 2.43316,1.600545 2.7066,1.823005 0.11642,0.0947 0.25637,0.17305 0.31101,0.17409 0.0546,0.001 0.278,0.13825 0.49634,0.30491 0.47212,0.360389 2.217971,1.521249 2.700081,1.795369 0.18708,0.10636 0.41741,0.26391 0.51185,0.35009 0.19705,0.17984 2.02686,1.39267 2.53852,1.68259 0.18839,0.10674 0.47587,0.30073 0.63886,0.43107 0.53192,0.42544 2.82015,1.86635 2.89266,1.82154 0.0389,-0.024 0.0707,-5.88217 0.0707,-13.018084 0,-9.97832 0.0235,-12.99787 0.1016,-13.07601 0.0782,-0.0782 3.22401,-0.1016 13.64445,-0.1016 13.54287,0 13.54287,0 13.4874,1.15639 -0.0305,0.63601 -0.0555,18.047715 -0.0555,38.692664 0,37.53628 0,37.53628 -0.59193,37.53628 -0.54946,0 -0.62065,-0.0219 -0.99207,-0.30541 -0.22006,-0.16799 -0.48911,-0.33926 -0.59786,-0.38062 -0.10876,-0.0413 -0.33862,-0.18294 -0.51078,-0.31465 -0.66574,-0.50932 -1.25318,-0.91921 -1.45603,-1.01597 -0.11642,-0.0555 -0.45932,-0.29017 -0.762,-0.52142 -0.30268,-0.23125 -0.66463,-0.47315 -0.80433,-0.53753 -0.1397,-0.0644 -0.43521,-0.25589 -0.65668,-0.42557 -0.22147,-0.16966 -0.73582,-0.52212 -1.143,-0.78323 -0.40718,-0.26111 -0.81652,-0.54392 -0.90966,-0.62848 -0.0931,-0.0846 -0.32735,-0.24248 -0.52048,-0.35093 -0.19314,-0.10846 -0.64659,-0.40674 -1.00766,-0.66285 -0.36107,-0.25612 -0.81158,-0.5527 -1.00114,-0.65907 -0.18955,-0.10636 -0.4219,-0.26428 -0.51634,-0.35092 -0.0944,-0.0866 -0.50485,-0.37116 -0.91203,-0.63228 -0.40718,-0.26111 -0.91698,-0.60958 -1.13288,-0.77438 -0.2159,-0.1648 -0.5114,-0.35492 -0.65667,-0.42249 -0.14527,-0.0676 -0.51178,-0.31327 -0.81446,-0.546 -0.30268,-0.23272 -0.64549,-0.46427 -0.76179,-0.51453 -0.11631,-0.0503 -0.42111,-0.24788 -0.67733,-0.43913 -0.25624,-0.19123 -0.59923,-0.44678 -0.76221,-0.56787 -0.16299,-0.1211 -0.39159,-0.26168 -0.508,-0.31241 -0.11642,-0.0507 -0.39288,-0.2306 -0.61435,-0.39973 -0.22147,-0.16914 -0.73582,-0.52115 -1.143,-0.78226 -0.40718,-0.26112 -0.81652,-0.54393 -0.90965,-0.62848 -0.0931,-0.0846 -0.32517,-0.24248 -0.51563,-0.35093 -0.19046,-0.10846 -0.85155,-0.54009 -1.46908,-0.95919 -0.61753,-0.4191 -1.49104,-1.00965 -1.94112,-1.31233 -0.45008,-0.30269 -0.98914,-0.67732 -1.19791,-0.83252 -0.20878,-0.1552 -0.4939,-0.33588 -0.6336,-0.4015 -0.1397,-0.0656 -0.50165,-0.30903 -0.80433,-0.54092 -0.30268,-0.23187 -0.66463,-0.47406 -0.80433,-0.53816 -0.1397,-0.0641 -0.3683,-0.21225 -0.508,-0.32919 -0.1397,-0.11693 -0.70705,-0.51323 -1.26077,-0.88066 -2.3272,-1.54425 -2.66826,-1.77551 -2.81666,-1.90985 -0.0858,-0.0776 -0.31174,-0.23001 -0.5022,-0.33867 -0.19046,-0.10864 -0.85213,-0.54043 -1.47038,-0.95953 -0.618246,-0.4191 -1.492481,-1.00965 -1.942751,-1.31234 -0.45026,-0.30268 -0.98874,-0.67731 -1.19662,-0.83251 -0.20787,-0.15521 -0.49225,-0.33589 -0.63195,-0.4015 -0.1397,-0.0656 -0.50165,-0.30972 -0.80433,-0.54245 -0.30268,-0.23273 -0.64549,-0.46427 -0.76179,-0.51454 -0.11631,-0.0503 -0.40206,-0.23679 -0.635,-0.41447 -0.23295,-0.17768 -0.70929,-0.50327 -1.05854,-0.72353 -0.34925,-0.22026 -0.82903,-0.54849 -1.06616,-0.7294 -0.23714,-0.18092 -0.469,-0.32893 -0.51527,-0.32893 -0.0463,0 -0.25229,-0.12618 -0.45785,-0.2804 -0.20555,-0.15422 -0.5868,-0.43997 -0.84721,-0.635 -0.26042,-0.19503 -0.51188,-0.3546 -0.5588,-0.3546 -0.0469,0 -0.25157,-0.12382 -0.4548,-0.27517 -0.20322,-0.15134 -0.73789,-0.52281 -1.18815,-0.8255 -0.45027,-0.30268 -1.32536,-0.89323 -1.94463,-1.31233 -0.61928,-0.4191 -1.22381,-0.81456 -1.34339,-0.8788 -0.20629,-0.11082 -0.77265,-0.51433 -1.46128,-1.04112 -0.17189,-0.13149 -0.34995,-0.23908 -0.39568,-0.23908 -0.0457,0 -0.26482,-0.13867 -0.48688,-0.30818 -0.22205,-0.16949 -0.78695,-0.55563 -1.25532,-0.85808 -0.46837,-0.30245 -0.96096,-0.64143 -1.09464,-0.75329 -0.13368,-0.11186 -0.36228,-0.25882 -0.508,-0.32658 -0.14572,-0.0678 -0.51259,-0.31292 -0.81528,-0.5448 -0.30268,-0.23188 -0.66463,-0.47529 -0.80433,-0.5409 -0.1397,-0.0656 -0.42408,-0.24766 -0.63195,-0.40457 -0.20788,-0.15689 -0.74636,-0.53292 -1.19662,-0.8356 -0.45027,-0.30268 -1.32642,-0.89323 -1.94699,-1.31233 -0.62058,-0.4191 -1.28,-0.8484 -1.46538,-0.95401 -0.18539,-0.1056 -0.40947,-0.258 -0.49797,-0.33867 -0.15309,-0.13954 -0.48539,-0.3651 -2.82167,-1.91538 -0.553717,-0.36742 -1.116127,-0.75935 -1.249807,-0.87096 -0.61632,-0.51454 -1.11397,-0.49939 -1.83128,0.0558 -0.16299,0.12614 -0.74938,0.53052 -1.3031,0.89863 -0.55372,0.36811 -1.37891,0.91694 -1.83376,1.21963 -0.45485,0.30268 -0.89941,0.61633 -0.98791,0.69699 -0.0885,0.0807 -0.31258,0.23306 -0.49796,0.33867 -0.18539,0.1056 -0.84481,0.5349 -1.46538,0.954 -0.62058,0.4191 -1.49672,1.00965 -1.94699,1.31234 -0.45027,0.30268 -0.98874,0.6787 -1.19662,0.8356 -0.20787,0.1569 -0.49225,0.33895 -0.63195,0.40457 -0.1397,0.0656 -0.50165,0.30902 -0.80433,0.54089 -0.30269,0.23189 -0.66956,0.47705 -0.81528,0.54481 -0.14572,0.0678 -0.37432,0.21471 -0.508,0.32657 -0.13368,0.11186 -0.62627,0.45084 -1.09464,0.7533 -0.46837,0.30245 -1.03327,0.68859 -1.25532,0.85808 -0.22205,0.1695 -0.44115,0.30818 -0.48688,0.30818 -0.0457,0 -0.22379,0.10758 -0.39568,0.23908 -0.68863,0.52679 -1.25499,0.9303 -1.46128,1.04112 -0.11958,0.0642 -0.7241,0.4597 -1.34339,0.8788 -0.619277,0.4191 -1.494362,1.00965 -1.944629,1.31233 -0.450267,0.30268 -0.984937,0.67416 -1.188155,0.8255 -0.203219,0.15134 -0.407878,0.27517 -0.454798,0.27517 -0.04692,0 -0.298378,0.15957 -0.558797,0.3546 -0.260418,0.19503 -0.641665,0.48078 -0.847215,0.635 -0.20555,0.15422 -0.411581,0.2804 -0.457846,0.2804 -0.04627,0 -0.278137,0.14801 -0.515272,0.32893 -0.237135,0.1809 -0.716904,0.50914 -1.066154,0.7294 -0.34925,0.22026 -0.825594,0.54585 -1.058543,0.72353 -0.232947,0.17768 -0.518697,0.36419 -0.635,0.41447 -0.116301,0.0503 -0.459107,0.28181 -0.76179,0.51453 -0.302684,0.23273 -0.664634,0.47683 -0.804334,0.54245 -0.1397,0.0656 -0.424078,0.2463 -0.631952,0.4015 -0.207872,0.1552 -0.746352,0.52984 -1.196618,0.83252 -0.450267,0.30268 -1.324508,0.89323 -1.942756,1.31233 -0.61825,0.4191 -1.279922,0.8509 -1.470382,0.95954 -0.19046,0.10865 -0.416448,0.26105 -0.502196,0.33867 -0.148405,0.13434 -0.489465,0.3656 -2.816667,1.90985 -0.553719,0.36743 -1.121062,0.76372 -1.260762,0.88066 -0.1397,0.11694 -0.3683,0.26506 -0.508,0.32918 -0.1397,0.0641 -0.50165,0.30629 -0.804333,0.53817 -0.302684,0.23188 -0.664633,0.47529 -0.804333,0.54092 -0.1397,0.0656 -0.424816,0.24629 -0.633591,0.40149 -0.208775,0.15521 -0.747838,0.52984 -1.197917,0.83252 -0.45008,0.30269 -1.323583,0.89324 -1.941118,1.31234 -0.617535,0.4191 -1.278622,0.85073 -1.469083,0.95919 -0.19046,0.10845 -0.422491,0.26637 -0.515625,0.35092 -0.09313,0.0846 -0.502479,0.36737 -0.909658,0.62848 -0.407178,0.26111 -0.921528,0.61312 -1.142999,0.78226 -0.221472,0.16913 -0.497926,0.34902 -0.614343,0.39974 -0.116416,0.0507 -0.345016,0.1913 -0.508,0.3124 -0.162983,0.12109 -0.505977,0.37664 -0.762209,0.56788 -0.256231,0.19124 -0.561031,0.38885 -0.677333,0.43912 -0.116302,0.0503 -0.459108,0.28182 -0.761791,0.51454 -0.302683,0.23273 -0.669191,0.47843 -0.81446,0.546 -0.14527,0.0676 -0.440775,0.25769 -0.656677,0.42248 -0.215901,0.16481 -0.725694,0.51328 -1.132872,0.77439 -0.407179,0.26111 -0.817593,0.54564 -0.912032,0.63227 -0.09444,0.0866 -0.326796,0.24456 -0.516346,0.35093 -0.18955,0.10637 -0.640062,0.40295 -1.001138,0.65906 -0.3610753,0.25612 -0.8145196,0.5544 -1.0076546,0.66286 -0.193135,0.10845 -0.427354,0.26637 -0.520487,0.35093 -0.09313,0.0846 -0.502479,0.36736 -0.909658,0.62848 -0.407178,0.26111 -0.921528,0.61357 -1.143,0.78323 -0.221471,0.16967 -0.516976,0.36118 -0.656676,0.42557 -0.1397,0.0644 -0.50165,0.30627 -0.804333,0.53752 -0.302683,0.23126 -0.645583,0.46591 -0.762,0.52143 -0.202852,0.0968 -0.790285,0.50665 -1.456026,1.01597 -0.172165,0.1317 -0.402015,0.2733 -0.510776,0.31465 -0.108762,0.0414 -0.377805,0.21262 -0.597873,0.38061 -0.371413,0.28351 -0.442598,0.30542 -0.99205701,0.30542 -0.59193495,0 -0.59193495,0 -0.59193495,-37.53628 z M 107.52088,77.368436 c -0.0781,-0.0781 -0.1016,-3.097692 -0.1016,-13.076016 0,-7.13592 -0.0318,-12.99406 -0.0707,-13.01808 -0.0725,-0.0448 -2.36074,1.3961 -2.89266,1.82153 -0.16299,0.13035 -0.45047,0.32434 -0.63886,0.43108 -0.51166,0.28992 -2.34147,1.50275 -2.53852,1.68258 -0.0944,0.0862 -0.32477,0.24373 -0.51185,0.3501 -0.48211,0.27411 -2.227961,1.43498 -2.700081,1.79537 -0.21834,0.16666 -0.44169,0.30387 -0.49634,0.30491 -0.0546,10e-4 -0.19459,0.0794 -0.31101,0.17409 -0.27344,0.22246 -2.30417,1.59023 -2.7066,1.823 -0.16987,0.0983 -0.49715,0.32287 -0.72729,0.49916 -0.23015,0.17629 -0.53274,0.37321 -0.67244,0.43759 -0.1397,0.0644 -0.50165,0.30628 -0.80434,0.53753 -0.30268,0.23126 -0.64558,0.4659 -0.762,0.52143 -0.11641,0.0555 -0.40565,0.24622 -0.64275,0.42376 -0.2371,0.17753 -0.58174,0.40854 -0.76586,0.51334 -0.51214,0.29152 -2.33703,1.50226 -2.53077,1.67906 -0.0944,0.0862 -0.32476,0.24373 -0.51184,0.35009 -0.48211,0.27412 -2.22797,1.43499 -2.7001,1.79537 -0.21834,0.16667 -0.44169,0.30388 -0.49633,0.30491 -0.0546,0.001 -0.1946,0.0794 -0.31101,0.17409 -0.27344,0.22246 -2.30417,1.590244 -2.7066,1.823004 -0.16988,0.0983 -0.49716,0.32287 -0.7273,0.49916 -0.23014,0.17629 -0.53274,0.37321 -0.67244,0.4376 -0.1397,0.0644 -0.50165,0.30679 -0.80433,0.53867 -0.30268,0.23188 -0.66919,0.47689 -0.81446,0.54446 -0.14527,0.0676 -0.45007,0.26544 -0.67733,0.43972 -0.22727,0.17427 -0.5483,0.39491 -0.7134,0.49031 -0.50911,0.29416 -2.31467,1.49629 -2.49619,1.66195 -0.0944,0.0862 -0.32477,0.24373 -0.51185,0.3501 -0.4821,0.27411 -2.22796,1.43498 -2.70009,1.79536 -0.21834,0.16667 -0.44254,0.30303 -0.49821,0.30303 -0.0557,0 -0.23373,0.10852 -0.39569,0.24116 -1.954397,1.600652 -3.126597,1.581422 -5.160907,-0.0847 -0.16195,-0.13263 -0.34,-0.24115 -0.39568,-0.24115 -0.0557,0 -0.27987,-0.13637 -0.49821,-0.30303 -0.47213,-0.36039 -2.21799,-1.52126 -2.70009,-1.79537 -0.18708,-0.10637 -0.41741,-0.26391 -0.51185,-0.3501 -0.18152,-0.16565 -1.98708,-1.36779 -2.49619,-1.66195 -0.1651,-0.0954 -0.48613,-0.31603 -0.71339,-0.49031 -0.22726,-0.17427 -0.53206,-0.37215 -0.67733,-0.43972 -0.14527,-0.0676 -0.51178,-0.31257 -0.81447,-0.54446 -0.30268,-0.23188 -0.66463,-0.47428 -0.80433,-0.53867 -0.1397,-0.0644 -0.4423,-0.2613 -0.67244,-0.43759 -0.23014,-0.17629 -0.55742,-0.40092 -0.72729,-0.49917 -0.40243,-0.23276 -2.43316,-1.600534 -2.7066,-1.823004 -0.11642,-0.0947 -0.25638,-0.17305 -0.31102,-0.17409 -0.0546,-0.001 -0.27799,-0.13824 -0.49633,-0.30491 -0.47213,-0.36038 -2.21799,-1.52125 -2.700096,-1.79536 -0.187077,-0.10637 -0.417408,-0.26391 -0.511848,-0.3501 -0.193726,-0.17679 -2.018625,-1.38754 -2.53077,-1.67906 -0.184117,-0.1048 -0.528748,-0.3358 -0.765848,-0.51334 -0.237099,-0.17754 -0.52634,-0.36823 -0.642757,-0.42376 -0.116416,-0.0555 -0.459316,-0.29017 -0.762,-0.52142 -0.302683,-0.23126 -0.664633,-0.47315 -0.804333,-0.53753 -0.1397,-0.0644 -0.442298,-0.26131 -0.67244,-0.4376 -0.230141,-0.17629 -0.557423,-0.40091 -0.727291,-0.49916 -0.402432,-0.23276 -2.43316,-1.60054 -2.706602,-1.823 -0.116417,-0.0947 -0.256374,-0.17305 -0.311015,-0.17409 -0.05464,-10e-4 -0.277993,-0.13824 -0.496335,-0.30491 -0.472129,-0.36038 -2.217988,-1.52125 -2.700094,-1.79537 -0.187077,-0.10636 -0.417408,-0.26391 -0.511848,-0.35009 -0.197052,-0.17983 -2.026859,-1.39267 -2.538527,-1.68259 -0.188383,-0.10674 -0.475865,-0.30073 -0.638848,-0.43108 -0.531927,-0.42542 -2.820155,-1.86634 -2.89266,-1.82153 -0.03887,0.024 -0.07067,5.88216 -0.07067,13.01809 0,9.978314 -0.02346,12.997866 -0.1016,13.076006 -0.07818,0.0782 -3.224014,0.1016 -13.644459,0.1016 -13.54285956,0 -13.54285956,0 -13.48740056,-1.156392 0.0305,-0.63601 0.05546,-18.047714 0.05546,-38.692664 C 0.06193044,0 0.06193044,0 0.65386539,0 1.2033244,0 1.2745094,0.0219 1.6459224,0.30542 c 0.220068,0.16798 0.489111,0.33925 0.597873,0.3806 0.108761,0.0414 0.338611,0.18295 0.510776,0.31466 0.665741,0.50932 1.253174,0.91921 1.456026,1.01597 0.116417,0.0555 0.459317,0.29017 0.762,0.52142 0.302683,0.23126 0.664633,0.47314 0.804333,0.53753 0.1397,0.0644 0.435205,0.25589 0.656676,0.42556 0.221472,0.16967 0.735822,0.52213 1.143,0.78324 0.407179,0.26111 0.816524,0.54393 0.909658,0.62848 0.09313,0.0846 0.327352,0.24248 0.520487,0.35093 0.193135,0.10845 0.6465793,0.40674 1.0076546,0.66285 0.361076,0.25612 0.811588,0.5527 1.001138,0.65907 0.18955,0.10636 0.421906,0.26428 0.516346,0.35092 0.09444,0.0866 0.504853,0.37117 0.912032,0.63228 0.407178,0.26111 0.916971,0.60958 1.132872,0.77438 0.215902,0.1648 0.511407,0.35492 0.656677,0.4224902 0.145269,0.0676 0.511777,0.31327 0.81446,0.54599 0.302683,0.23273 0.645489,0.46427 0.761791,0.51455 0.116302,0.0503 0.421102,0.2478698 0.677333,0.4391098 0.256232,0.19125 0.599226,0.44679 0.762209,0.56789 0.162984,0.12109 0.391584,0.26167 0.508,0.31239 0.116417,0.0507 0.392871,0.23061 0.614343,0.39975 0.221471,0.16913 0.735821,0.52114 1.142999,0.78225 0.407179,0.26111 0.816525,0.54393 0.909658,0.62849 0.09313,0.0846 0.325165,0.24247 0.515625,0.35092 0.190461,0.10846 0.851548,0.54009 1.469083,0.95919 0.617535,0.4191 1.491038,1.00965 1.941118,1.31233 0.450079,0.30269 0.989142,0.67732 1.197917,0.83252 0.208775,0.15521 0.493891,0.33588 0.633591,0.4015 0.1397,0.0656 0.501649,0.30903 0.804333,0.54091 0.302683,0.23189 0.664633,0.47407 0.804333,0.53818 0.1397,0.0641 0.3683,0.21224 0.508,0.32918 0.1397,0.11693 0.707043,0.51323 1.260762,0.88066 2.327202,1.54425 2.668262,1.77551 2.816667,1.90985 0.08575,0.0776 0.311736,0.23002 0.502196,0.33866 0.19046,0.10865 0.852132,0.54044 1.470382,0.95954 0.618248,0.4191 1.492489,1.00965 1.942756,1.31234 0.450266,0.30268 0.988746,0.67731 1.196618,0.83252 0.207874,0.1552 0.492252,0.33587 0.631952,0.40149 0.1397,0.0656 0.50165,0.30972 0.804334,0.54245 0.302683,0.23273 0.645489,0.46427 0.76179,0.51454 0.116303,0.0503 0.402053,0.23678 0.635,0.41447 0.232949,0.17768 0.709293,0.50327 1.058543,0.72353 0.34925,0.22026 0.829019,0.54849 1.066154,0.7294 0.237135,0.18091 0.469007,0.32893 0.515272,0.32893 0.04626,0 0.252296,0.12618 0.457846,0.2804 0.20555,0.15422 0.586797,0.43997 0.847215,0.635 0.260419,0.19503 0.511877,0.3546 0.558797,0.3546 0.04692,0 0.251579,0.12382 0.454798,0.27517 0.203218,0.15134 0.737888,0.52281 1.188155,0.8255 0.450267,0.30268 1.325352,0.89323 1.944631,1.31233 0.61928,0.4191 1.22381,0.81456 1.34338,0.8788 0.2063,0.11082 0.77266,0.51433 1.46129,1.04112 0.17189,0.13149 0.34995,0.23908 0.39568,0.23908 0.0457,0 0.26482,0.13868 0.48688,0.30818 0.22205,0.16949 0.78694,0.55563 1.25532,0.85808 0.46837,0.30245 0.96096,0.64143 1.09464,0.75329 0.13368,0.11186 0.36228,0.25882 0.508,0.32658 0.14572,0.0678 0.51259,0.31292 0.81528,0.5448 0.30268,0.23188 0.66463,0.47529 0.80433,0.5409 0.1397,0.0656 0.42408,0.24767 0.63195,0.40457 0.20787,0.15689 0.74635,0.53292 1.19662,0.8356 0.45027,0.30268 1.32641,0.89323 1.94699,1.31233 0.62057,0.4191 1.27999,0.8484 1.46537,0.95401 0.18539,0.1056 0.40947,0.258 0.49797,0.33866 0.0885,0.0807 0.53306,0.39432 0.98791,0.697 0.45485,0.30268 1.28004,0.85151 1.83376,1.21963 0.55372,0.36811 1.14011,0.77249 1.3031,0.89863 0.71731,0.55515 1.21495,0.5703 1.83128,0.0558 0.13368,-0.1116 0.69609,-0.50354 1.249807,-0.87097 2.33628,-1.55027 2.66858,-1.77584 2.82167,-1.91538 0.0885,-0.0807 0.31258,-0.23306 0.49797,-0.33867 0.18538,-0.1056 0.8448,-0.5349 1.46537,-0.954 0.62058,-0.4191 1.49672,-1.00965 1.94699,-1.31233 0.45026,-0.30269 0.98874,-0.67871 1.19662,-0.83561 0.20787,-0.1569 0.49225,-0.33895 0.63195,-0.40456 0.1397,-0.0656 0.50165,-0.30902 0.80433,-0.5409 0.30269,-0.23188 0.66956,-0.47705 0.81528,-0.5448 0.14572,-0.0678 0.37432,-0.21472 0.508,-0.32658 0.13368,-0.11186 0.62627,-0.45084 1.09464,-0.75329 0.46837,-0.30245 1.03327,-0.68859 1.25532,-0.85809 0.22206,-0.16949 0.44115,-0.30817 0.48688,-0.30817 0.0457,0 0.22379,-0.10759 0.39568,-0.23908 0.68863,-0.52679 1.25499,-0.9303 1.46128,-1.04113 0.11958,-0.0642 0.72411,-0.45969 1.34339,-0.87879 0.61927,-0.4191 1.49436,-1.00965 1.94463,-1.31234 0.45026,-0.30268 0.98493,-0.67416 1.18815,-0.8255 0.20323,-0.15134 0.40788,-0.27516 0.4548,-0.27516 0.0469,0 0.29838,-0.15957 0.5588,-0.35461 0.26041,-0.19503 0.64166,-0.48078 0.84721,-0.635 0.20556,-0.15421 0.41158,-0.28039 0.45785,-0.28039 0.0463,0 0.27813,-0.14802 0.51527,-0.32893 0.23713,-0.18091 0.71691,-0.50915 1.06616,-0.72941 0.34925,-0.22026 0.82559,-0.54585 1.05854,-0.72353 0.23294,-0.17768 0.51869,-0.36419 0.635,-0.41446 0.1163,-0.0503 0.45911,-0.28182 0.76179,-0.51454 0.30268,-0.23273 0.66463,-0.47683 0.80433,-0.54245 0.1397,-0.0656 0.42408,-0.24629 0.63195,-0.4015 0.20788,-0.1552 0.74636,-0.52983 1.19662,-0.83252 0.45027,-0.30268 1.324505,-0.89323 1.942751,-1.31233 0.61825,-0.4191 1.27992,-0.85089 1.47038,-0.95954 0.19046,-0.10865 0.41645,-0.26105 0.5022,-0.33867 0.1484,-0.13434 0.48946,-0.36559 2.81666,-1.90984 0.55372,-0.36743 1.12107,-0.76373 1.26077,-0.88067 0.1397,-0.11693 0.3683,-0.26506 0.508,-0.32918 0.1397,-0.0641 0.50165,-0.30629 0.80433,-0.53817 0.30268,-0.23188 0.66463,-0.47529 0.80433,-0.54091 0.1397,-0.0656 0.42482,-0.2463 0.6336,-0.4015 0.20877,-0.1552 0.74783,-0.52984 1.19791,-0.83252 0.45008,-0.30268 1.32359,-0.89323 1.94112,-1.31233 0.61753,-0.4191 1.27862,-0.85074 1.46908,-0.95919 0.19046,-0.10845 0.42249,-0.26637 0.51563,-0.35093 0.0931,-0.0846 0.50247,-0.36737 0.90965,-0.62848 0.40718,-0.26111 0.92153,-0.61313 1.143,-0.78226 0.22147,-0.16913 0.49793,-0.34901 0.61435,-0.39974 0.11641,-0.0507 0.34501,-0.1913 0.508,-0.3124 0.16298,-0.12109 0.50597,-0.37664 0.76221,-0.56788 0.25622,-0.19124 0.56102,-0.3888398 0.67733,-0.4391198 0.1163,-0.0503 0.45911,-0.28181 0.76179,-0.51454 0.30268,-0.23273 0.66919,-0.47842 0.81446,-0.54599 0.14527,-0.0676 0.44077,-0.2576902 0.65667,-0.4224902 0.2159,-0.1648 0.7257,-0.51328 1.13288,-0.77439 0.40718,-0.26111 0.81759,-0.54563 0.91203,-0.63227 0.0944,-0.0866 0.32679,-0.24456 0.51634,-0.35093 0.18956,-0.10637 0.64007,-0.40294 1.00114,-0.65906 0.36107,-0.25612 0.81452,-0.5544 1.00766,-0.66285 0.19313,-0.10846 0.42735,-0.26637 0.52048,-0.35093 0.0931,-0.0846 0.50248,-0.36737 0.90966,-0.62848 0.40718,-0.26111 0.92153,-0.61357 1.143,-0.78324 0.22147,-0.16967 0.51698,-0.36117 0.65668,-0.42556 0.1397,-0.0644 0.50165,-0.30628 0.80433,-0.53753 0.30268,-0.23126 0.64558,-0.4659 0.762,-0.52143 0.20285,-0.0968 0.79029,-0.50665 1.45603,-1.01596 0.17216,-0.13171 0.40202,-0.27331 0.51078,-0.31466 0.10875,-0.0413 0.3778,-0.21262 0.59786,-0.38061 0.37142,-0.2835 0.44261,-0.30542 0.99207,-0.30542 0.59193,0 0.59193,0 0.59193,37.53628 0,20.64496 0.025,38.056664 0.0555,38.692674 0.0555,1.156392 0.0555,1.156392 -13.4874,1.156392 -10.42044,0 -13.56628,-0.0234 -13.64445,-0.1016 z"
       style="fill:#ffffff;stroke-width:0.0846667" />
  </g>
</svg>
